<?xml version="1.0" encoding="UTF-8"?>
<svg width="240px" height="240px" viewBox="0 0 240 240" version="1.1" xmlns="http://www.w3.org/2000/svg" xmlns:xlink="http://www.w3.org/1999/xlink">
    <!-- Generator: sketchtool 50.2 (55047) - http://www.bohemiancoding.com/sketch -->
    <title>42DA7BE8-F31D-496B-A669-ABD7E5422B15</title>
    <desc>Created with sketchtool.</desc>
    <defs>
        <path d="M103.355752,78.3596952 C101.095776,75.4244439 95.8115141,72.9991182 89.8115068,72.4065177 C85.3256659,71.9636573 77.7028006,72.8753948 69.4728811,75.704267 C66.5081444,73.455276 64.3476099,71.6491454 61.5586298,69.3533246 C56.2275383,64.9646123 50.7472849,60.1584781 45.3612695,55.853019 C53.4692,54.1156879 61.9182371,52.6755243 70.3071469,51.0815736 C79.5447762,49.3222729 86.1235085,47.7884495 95.0680174,47.644491 C102.226631,47.5334868 105.555022,49.0944831 108.533056,49.5835953 C108.620934,49.9917669 108.689734,50.3901101 108.735985,50.7774684 C109.550594,57.63718 107.261133,68.2513768 103.355752,78.3596952 M97.41009,85.9987486 C95.2767284,89.4676293 88.1042394,87.5713079 85.3193063,86.2855094 C82.5245448,84.9973984 77.3559125,82.0633034 74.3559089,79.6755572 C79.7708316,77.6491528 86.7924243,77.0288013 93.7648745,79.3373414 C97.8286683,80.6855797 98.4628953,84.286856 97.41009,85.9987486 M84.7544569,105.270115 C79.8916643,107.578655 71.6692608,108.900877 62.1997946,108.900877 C49.5013786,108.900877 37.8603931,106.613728 30.6965763,102.943653 C40.89682,95.0762313 57.2768747,85.8686656 70.295584,81.0411399 C76.8188142,86.961363 83.2553223,91.6952289 87.9897663,93.5545489 C89.9531528,94.3234841 92.545563,95.0299795 95.141442,94.7270306 C91.8483179,99.7482354 88.2661205,103.606209 84.7544569,105.270115 M20.8276107,92.3543162 C15.6161956,82.5159924 11.5466204,67.2355729 11.1297766,54.9568915 C11.8969774,55.8027202 12.7219928,56.5144189 13.526195,56.99139 C19.8493864,60.7319997 30.6844353,58.1725439 41.7062255,56.2617688 C49.0180479,61.761101 64.5545864,76.1344082 65.730537,77.0733186 C61.3695758,78.6609096 34.0758443,87.2226853 20.8276107,92.3543162 M13.5389142,46.3627396 C15.0756284,42.9759557 18.9220389,43.2239807 21.9578877,44.036855 C26.9727329,45.3891404 31.6568781,48.337689 36.0051201,51.3596622 C35.8883345,51.3700688 35.776174,51.3851007 35.6605446,51.4001325 C28.7008136,52.0996901 20.0719729,54.9910022 14.5049975,50.6086495 C13.3365629,49.6882399 12.9474701,47.6705076 13.5389142,46.3627396 M38.687143,18.7596995 C46.7389933,27.8551047 58.7378516,31.9796039 70.1510473,35.576255 C77.6299541,37.9408754 85.2025207,39.9886713 92.6802712,42.3596512 C94.0718705,42.8001991 95.4819705,43.2476847 96.9007427,43.7223432 C87.9331079,43.713671 78.8816419,45.2740892 70.0614345,46.5835916 C59.6802309,48.1324469 49.9546457,49.8466521 39.5185181,51.0231808 C38.9652316,50.6126966 38.4304459,50.1825554 37.8696435,49.7761182 C32.5373957,45.9094725 28.3851455,42.768401 22.3943885,39.9158248 C20.3702966,38.9526322 17.0413275,38.3299681 14.1991579,38.7259987 C18.3514081,31.9824946 28.2169048,24.3052835 38.687143,18.7596995 M62.8028017,11.1073487 C63.4167936,11.1073487 64.005347,11.1374123 64.5545864,11.195227 C71.3223727,11.912129 81.8932085,17.828305 91.4921795,26.2784984 C98.7236395,32.6467853 104.196955,39.3845079 106.911932,45.0572841 C97.4095119,38.6375422 85.1707226,36.0237406 74.3738314,32.8479803 C67.7760203,30.9094542 61.1770529,28.9258326 54.7509514,26.4669743 C51.6555535,25.288133 48.6341585,23.9248629 45.7226112,22.3395844 C44.0581267,21.4365191 41.562267,20.2767567 40.4441311,18.6695086 C40.3036414,18.4688917 40.1510107,18.2734781 40.0030051,18.0757519 C48.1687503,13.9102043 56.5680668,11.1073487 62.8028017,11.1073487 M113.809802,50.1761957 C111.785132,33.1561326 81.4237533,7.83330345 65.0893722,6.11100418 C64.3632198,6.04047027 63.5971754,6 62.8028017,6 C45.1589181,6 14.6188924,24.4428824 8.34889057,38.8930831 C1.51461744,54.6331293 10.6869162,90.9737017 21.8283828,102.798538 C29.6270048,111.075287 48.4491515,114.011117 62.1997946,114.011117 C72.4035072,114.011117 81.4191281,112.504466 86.9421643,109.887774 C96.8805075,105.175877 104.210252,89.7434053 106.902104,83.325976 C112.111785,70.8958202 114.758541,58.1898883 113.809802,50.1761957" id="path-1"></path>
        <path d="M60.9509586,30.7500906 C60.4954571,30.3231113 61.073988,29.8814086 61.2892893,29.9285235 C64.1336108,30.5866606 65.9717279,31.8381516 68.1115598,33.3517196 C68.6944846,33.7698648 68.6417577,34.5987936 68.455749,35.8355612 C68.2214074,37.1444736 67.3982825,37.7923042 66.9764676,37.9454278 C66.5165721,38.1000238 66.2104634,37.8953682 66.0566767,37.7142701 C65.5235495,37.0841075 64.586183,35.1818412 64.3723463,34.8711769 C63.4130103,33.4621453 62.5532695,32.2504075 60.9509586,30.7500906 L60.9509586,30.7500906 Z M58.548957,8.61783983 C59.3047087,6.22822813 59.6254638,4.7367453 59.9125323,3.47200319 C59.9872287,3.13483678 60.5804059,2.76969587 61.2116637,3.18636876 C61.8473153,3.59567995 62.5371585,3.29679444 62.9589734,3.48967129 C63.4203335,3.72082905 63.3295261,4.48203006 62.9736197,4.91931575 C62.3277156,5.71585298 61.8458507,6.42110499 61.3859553,7.65345557 C61.2922186,7.88755801 61.1970173,8.08043486 61.0813111,8.34545649 C61.5792871,8.31012027 62.7231671,7.76535359 63.4086164,7.50622133 C65.2833493,6.79802464 64.4646183,6.84955662 66.4916733,6.56539454 C67.0819213,6.48294337 67.9563085,7.56217034 67.9563085,8.42201829 C67.9563085,9.61608797 66.2251097,9.29364499 64.8747161,9.66025824 C62.6470061,10.2668633 62.3467559,10.381706 60.5232852,11.3225328 C58.7876925,12.2132999 58.5123411,13.2645524 58.283858,13.4574293 C57.248361,14.385005 57.0125547,12.8964668 57.5530051,11.6214183 C57.7023979,11.0059792 57.9338102,10.3154506 58.2033031,9.620505 C58.1740104,9.513024 58.1578994,9.48799418 58.1271421,9.42762814 C57.8649724,8.8843338 57.8971944,8.61783983 58.2413836,8.61783983 L58.548957,8.61783983 Z M51.7149695,9.04334678 C50.7175529,7.03948879 49.7889743,5.40666108 49.8270548,4.4069406 C49.8534182,3.73408013 50.3323539,3.00085362 52.1939051,3.42930526 C53.3670779,3.69874391 53.7361659,4.14044663 53.623389,4.49675349 C53.3963706,5.23292468 53.8489428,8.00681774 53.9456088,8.69440163 C54.0979308,9.783935 54.7936325,12.8449348 54.2941919,13.0760926 C53.7083379,13.2969439 53.4857133,13.0981777 53.0507167,12.1926871 C52.8149104,11.7023971 52.371126,11.2916136 52.0913807,11.1119878 C51.3107302,10.6187531 50.6238163,10.820464 49.4491789,11.1252389 C48.2393903,11.4373755 48.1573707,11.6832567 47.6213143,11.8746612 C46.4349598,12.2972235 45.3247664,12.2559979 44.8458307,11.9880316 C44.0212411,11.5286607 43.1336722,10.9338344 43.3841248,10.2874761 C43.792758,9.23033426 50.9094201,9.12138093 51.7149695,9.04334678 L51.7149695,9.04334678 Z M68.0617622,11.7127035 C68.1979733,13.0760926 67.9240865,13.2262715 66.7348028,13.8726298 C64.9494125,14.8399588 62.8447318,15.1020357 62.482967,15.7115855 C62.1475655,16.2799096 64.0061875,16.3358586 64.5202744,16.238684 C64.9992101,16.1503435 66.1386963,15.7204195 66.7479845,15.4126999 C67.5081301,15.0240016 68.9595835,14.3158049 69.7416987,14.4232859 C70.2191698,14.4880689 71.0803752,15.2183508 71.2063338,15.688028 C71.3322925,16.1665392 71.0554764,17.0955873 70.6805298,17.593239 C70.0888172,18.3735805 68.2799928,18.2808229 65.3433994,18.5590956 C64.2375999,18.6651043 61.7374677,18.4943126 61.4489346,19.1171134 C61.0930282,19.8974549 67.1727287,23.0939102 69.2510459,23.7520472 C70.7933067,24.2393926 75.4874623,25.1522448 75.7423088,25.6837604 C76.0088724,26.2461952 72.357537,27.2444434 72.357537,27.2444434 C72.357537,27.2444434 70.4374004,27.9673635 69.2510459,27.7111759 C68.1174183,27.4873799 67.2928288,26.640783 66.504855,25.8663309 C65.8560217,25.2273343 63.827502,23.3309573 63.0160942,22.689016 C62.1607472,22.0117385 61.4884797,21.4169122 60.9685342,21.0885799 C60.3900034,20.7160772 59.0410744,19.7237185 58.9546609,19.3364924 C58.8389548,18.8138109 58.8287023,18.1188653 59.6620797,18.0202183 C60.6360621,17.9009586 62.2310497,17.0573064 62.3570083,17.1809832 C61.5163078,16.3653055 59.0103171,16.8570678 59.2431941,15.3876701 C59.5141516,13.6635572 61.2043405,13.3808675 62.0523642,13.0466457 C62.7656416,12.7610113 64.8761808,11.9895039 65.5001153,11.7568738 C66.2719781,11.4712394 67.9489853,10.601085 68.0617622,11.7127035 L68.0617622,11.7127035 Z M46.4232427,13.5707996 C47.1936408,13.2645524 47.6432838,13.0775649 49.3671593,12.8272667 C50.360182,12.5946366 51.1730545,12.9067732 51.5069913,13.2822205 C51.7076463,13.5074889 52.0225428,14.1479578 51.9786038,14.4939583 C51.9170891,14.9783589 51.2052764,15.855875 50.978258,16.0605306 C50.4085149,16.5920462 50.1316989,16.8497061 49.368624,17.7463626 C49.4843301,17.6094348 50.1346281,17.9878268 51.612445,17.7728648 C52.4399638,17.6536051 52.6538006,19.055275 52.5864274,19.5867906 C52.5380944,19.9769613 51.612445,20.9398733 51.07053,21.3668526 C50.5857358,21.7481892 49.9720536,22.4033816 49.1855446,23.1601656 C48.4400453,23.880141 47.1672774,25.5365262 46.5828879,26.2344165 C45.8740045,27.079541 44.3214913,29.0171436 43.218621,29.3528377 C42.0600946,29.7223956 41.3790393,29.251246 40.9630829,28.8183774 C40.5134399,28.4208449 41.2047477,27.4329032 41.2047477,27.4329032 C41.2047477,27.4329032 43.2772064,25.6675647 44.4093694,24.9667297 C45.7158239,24.1628308 50.512504,20.3509363 50.0833659,19.6118204 C49.7347828,19.0184665 47.5949508,19.9578209 46.6487965,20.5364515 C45.8095606,21.0502989 42.773372,22.8907269 42.1113569,22.1707515 C41.6880773,21.712853 41.7188347,20.6041792 41.8316116,20.1624765 C41.9326714,19.764944 42.568323,18.513453 43.1190259,18.4545593 C43.7781117,18.3824145 44.5441158,18.7505001 45.8139545,18.5252318 C46.1742547,18.461921 47.228792,18.3087974 47.9288876,17.8155627 C48.4561563,17.4460048 50.32796,15.6217726 49.9354378,15.0887846 C49.5194814,14.5160434 47.0061675,16.5758504 46.6854124,16.617076 C46.3851622,16.6553569 45.2588578,16.8379274 45.2632517,15.4671766 C45.2691102,14.3496687 46.0878413,13.7091998 46.4232427,13.5707996 L46.4232427,13.5707996 Z M54.3571712,21.2152013 C55.096812,21.171031 56.3783677,20.9384009 57.2542195,20.5055323 C57.7624479,20.2581787 59.1333464,20.3759661 59.4423844,20.8692008 C59.6313224,21.1695587 59.5610199,21.6097891 59.4980406,21.7290488 C59.323749,22.0735769 58.9634487,22.5520882 58.7276425,22.7626331 C57.9382041,23.4605234 55.7544332,25.7986031 55.7544332,25.7986031 C55.7544332,25.7986031 56.6830118,25.5041347 56.9612925,25.4290452 C58.1842628,24.9623127 59.3823344,24.0465157 61.0110087,24.3527629 C62.2325144,24.5824483 62.7011976,25.1596066 62.7363488,25.6793434 C62.759783,26.0636248 62.6777634,27.0073962 61.9732739,27.5021033 C61.3464101,27.9496954 60.808889,27.8584101 59.8217249,28.7123687 C58.8843584,29.5236294 57.1678061,32.1340924 56.4647812,32.8967658 C55.6138282,33.8213968 53.7742465,35.9312635 52.202693,36.4303875 C50.560837,36.9722095 49.4213508,36.6291537 48.6890333,36.2831533 C47.9186352,35.9739614 47.7487375,35.2819605 48.7066089,34.9168196 C49.8431658,34.4795339 51.552395,33.525456 53.0756155,32.6744421 C54.8302484,31.6909174 59.0718317,27.0604006 59.0718317,27.0604006 C59.0718317,27.0604006 54.121365,28.9818074 53.0082423,29.4794591 C52.202693,30.0198088 49.9237207,30.3039709 48.7534772,29.7223956 C48.0079779,29.349893 47.7751009,28.2809724 47.8307571,27.840742 C47.8834839,27.4387926 48.1222195,26.9190557 48.9292334,26.7762385 C49.9002865,26.5995574 50.5344735,27.0456771 52.387237,26.6201702 C52.9115764,26.5067998 54.4025749,25.6763987 54.4025749,25.6763987 C54.4025749,25.6763987 56.6346789,23.7019876 56.6346789,22.9672887 C55.6914538,23.1601656 54.6881788,23.5665321 54.2209602,23.6578173 C53.780105,23.7432132 52.138249,24.0980477 51.8013829,22.7861906 C51.5289608,21.712853 53.1605643,21.282929 54.3571712,21.2152013 Z M19.1769282,32.9724442 C17.3768916,32.9768612 13.4194475,33.1491253 12.0412259,33.9809987 C11.7468342,34.1606245 12.3839505,35.384141 11.5593609,35.646218 C10.9573959,35.8376225 9.56892174,35.4091708 9.07241043,34.4609823 C7.49792766,31.4824337 5.40349942,23.4110527 6.15925115,22.147783 C6.70263079,21.2349307 7.203536,21.6839951 8.38696119,22.1801745 C9.49129608,22.7161071 9.54988149,23.1990354 9.70952672,23.8041681 C9.90725246,24.5256159 11.1463338,30.9965607 11.1463338,30.9965607 L17.6141625,30.0056743 C17.6141625,30.0056743 17.8690091,29.2783371 17.8690091,27.0197639 C17.8690091,24.7965269 18.1443605,23.6392658 17.9202713,17.9501348 C17.7738078,14.2339426 17.299266,12.0607653 17.1850244,11.371709 C16.6914424,10.0289328 17.9202713,9.59459177 19.6368237,10.0937158 C21.2742857,10.5530867 22.6686184,11.1066874 22.236551,11.6809009 C21.7444336,12.3360933 21.6770604,14.884718 21.4471127,20.8270918 C21.1805491,26.7282401 20.6825731,29.5198013 20.6825731,29.5198013 L28.3836247,29.7818782 C28.3836247,29.7818782 29.3561424,26.482359 29.3663949,25.1808083 C29.389829,22.7882519 28.7746823,21.6000716 28.8669543,20.4030572 C28.8874592,20.101227 29.1364471,19.3812516 29.4132632,19.3459154 C30.7870909,19.1604003 31.5164792,19.6182987 32.5841983,20.6136022 C33.5933319,21.5514843 34.8851401,24.4093009 34.5790313,25.9464263 C34.1967615,27.514471 32.348392,31.3484505 31.1971888,32.9002994 C30.8954739,33.3051936 30.2217418,34.6126336 29.5509389,35.0602257 C29.0720032,35.3811963 28.338221,34.8835446 28.2503429,34.5787697 C27.9735268,33.6600281 27.7977706,33.0504783 27.7977706,33.0504783 C27.7977706,33.0504783 21.13661,32.9680272 19.1769282,32.9724442 Z M95.0185183,27.4735398 C94.8559438,25.1104303 94.8163987,22.6280611 94.9379634,20.1015215 C95.0185183,17.579399 95.0229122,15.9554054 95.0858915,14.0384156 C95.1518001,12.0404469 96.1829033,11.5781314 96.9005745,11.3469737 C98.9613161,10.6800026 100.237013,10.3487255 102.633156,9.8437121 C104.975108,9.3504774 105.00733,9.47709885 106.094089,10.0056698 C107.236505,10.5622152 106.671155,13.8529004 106.561308,15.9936863 C106.439743,18.2699276 106.400198,21.2028336 106.400198,24.7835703 C106.316714,27.6369699 106.303532,29.5392362 106.395804,30.5742929 C106.868881,30.6184632 107.611451,30.6464377 108.017155,30.6464377 C109.760071,30.7303612 111.103141,30.5801823 112.963228,30.3475522 C113.472921,30.2842415 113.93721,30.6302419 114.50256,31.6093496 C114.947809,32.5884573 115.284675,33.8208079 114.647558,34.7528006 C114.224279,35.3711844 112.85631,34.5717025 112.579494,34.4995577 C109.985625,33.8105015 106.983123,33.3202115 105.084956,33.3408243 C102.972952,33.3658541 98.7460147,33.8281696 96.689667,34.3228766 C95.2396782,34.6732941 92.2562165,35.9822065 91.0889023,36.3723772 C90.4649677,36.5814499 87.8388769,37.4869404 87.4727181,36.4695518 C87.0670142,35.5316697 87.4727181,33.8914803 90.0270418,33.5351735 C91.03764,33.3894116 92.6018703,32.8917598 94.4121594,32.3602442 C95.5589687,32.0216055 95.0990733,29.6319938 95.0185183,27.4735398 Z M91.389006,23.0657884 C91.7478416,24.1361814 91.1810278,25.0240038 90.9042118,25.265468 C90.8837069,25.2860808 90.8588081,25.3052212 90.8280507,25.3243617 C90.2465906,25.7572303 86.43561,28.0025525 84.1668901,30.524675 C82.7872038,32.0573834 82.4386207,34.7620764 82.517711,35.7514905 C82.6568513,37.4329055 80.3236875,37.4211267 79.5034919,36.7541556 C78.8531939,36.2358911 78.4006216,35.6263413 78.2731984,34.8577786 C78.1457751,34.1157181 78.4474899,32.4401924 79.8125299,31.4772805 C83.7216411,28.7195832 89.3267997,25.3508638 89.3399814,25.3435021 C88.0525672,25.6909749 86.3682367,26.5493505 85.3693556,27.0690874 C84.5081501,27.6212158 83.6410861,27.5902966 83.1973017,27.3399984 C82.935132,27.1883471 82.4269036,26.6789167 82.3566011,26.3329162 C82.2555413,25.8514602 82.6465989,24.7722333 82.7915977,24.4983776 C83.1606858,23.803432 83.3349774,23.4603762 83.7597216,22.3561194 C83.6967423,22.5224941 82.9629601,22.3723152 81.6360006,23.0687331 C80.891966,23.4574315 80.2314155,22.1794383 80.1230325,21.6523398 C80.0395483,21.257752 80.6019682,20.0298184 80.9754502,19.4423538 C81.3079224,18.9196723 81.6755458,18.0863265 82.1705925,17.0998571 C82.6407403,16.166392 83.3012908,14.1595893 83.629369,13.2967967 C84.0218913,12.2499613 84.8567333,9.87949002 85.7926351,9.19337847 C86.7651529,8.4616243 87.5619144,8.68836503 88.0979708,8.96369306 C88.647209,9.1977955 88.3205954,10.3727247 88.3205954,10.3727247 C88.3205954,10.3727247 86.9394445,12.7490853 86.09435,13.7959208 C85.1247615,14.9958798 81.8337264,20.234474 82.4810951,20.7998535 C83.0025052,21.2548073 84.7190576,19.6499541 85.4250117,18.7827444 C86.0474817,18.0141817 88.3191307,15.2447057 89.1788716,15.7173276 C89.7266451,16.0191578 90.0225014,16.6331246 90.0635112,17.0939677 C90.0971978,17.5091683 89.9683099,18.9741489 89.4674047,19.2111961 C88.8654397,19.4953582 87.9983757,19.800133 86.8706066,20.4376573 C86.5498515,20.6143384 85.6022326,21.1105178 85.102792,21.8113527 C84.7263808,22.3428683 83.5488141,24.7059779 84.0936584,25.0917316 C84.6721893,25.4995704 86.8339907,23.592887 87.7303474,23.0657884 C88.5197858,22.6005282 90.9437569,21.748042 91.389006,23.0657884 Z M87.2309068,32.5432564 C87.254341,32.7611631 87.5370156,33.9360923 87.5370156,34.4204929 C87.5370156,34.5544761 87.4813595,34.7694381 87.2309068,34.8931148 C86.993636,35.0079575 86.4136404,35.07863 85.845362,34.6339826 C85.3224873,34.2011139 85.0017322,33.8757263 85.1013274,33.4634704 C85.4616276,31.9499024 85.7940998,30.6704369 86.7680821,29.226069 C86.8398493,29.1171157 87.2426239,29.0552773 87.2030788,29.4218905 C87.0639384,30.7072454 87.1313117,31.565621 87.2309068,32.5432564 Z M91.1524674,29.8317906 C91.3179712,29.9804972 92.3432158,30.6739705 92.6625062,31.0376391 C92.7547783,31.1436477 92.844121,31.3453586 92.7108392,31.6236313 C92.579022,31.8739295 92.1205912,32.3465514 91.3296883,32.4113345 C90.5871183,32.4584495 90.0935362,32.4378367 89.9060629,32.0535553 C89.219149,30.641579 88.6611231,29.4313135 88.5483461,27.6306388 C88.541023,27.4922386 88.8559195,27.1624339 89.0624331,27.4701535 C89.7918214,28.5493804 90.4186852,29.1545132 91.1524674,29.8317906 Z M97.3297126,31.6623539 C97.3297126,31.6623539 103.391837,30.6979697 103.400625,30.6596888 C103.591028,28.9517716 103.787289,21.2101953 103.913247,18.060855 C103.946934,17.1980623 103.973298,15.5475665 103.746279,14.2666286 C103.608603,13.4995382 103.378656,12.8649587 103.005174,12.6161328 C102.170332,12.0595874 98.2890486,12.6853329 97.5113273,13.786645 C97.19936,14.2327648 97.5479432,16.6238488 97.4673883,18.3332383 C97.6065286,18.284651 98.5731878,17.9813485 99.555958,16.934513 C100.174034,16.2793207 100.783322,16.3544101 101.167057,16.486921 C101.464378,16.5855679 101.782203,17.0199089 101.855435,17.7281056 C101.949172,18.6129834 100.604637,18.9648732 100.039288,19.2107544 C99.3494444,19.4522185 97.4673883,20.3120665 97.4673883,20.3120665 L97.4673883,24.1725482 C97.4673883,24.1725482 98.5248548,24.1563524 98.8382868,23.9885054 C99.30697,23.7426242 100.001207,23.1993299 100.729131,22.9549211 C101.093825,22.8327166 101.738264,23.208164 101.900839,23.9413905 C101.981394,24.7173149 101.498064,25.1104303 101.254935,25.1914091 C100.729131,25.3577838 99.2059102,25.5874692 98.5175317,25.8731037 C98.0239496,26.0630358 97.4673883,26.1042614 97.4673883,26.1042614 L97.3297126,31.6623539 Z" id="path-3"></path>
        <path d="M100.342414,21.7721223 C99.7460797,23.0034624 98.8172165,24.1275735 97.6063775,24.1275735 C96.6887047,24.1275735 96.1825229,23.7518645 95.7256502,22.9454645 C95.2203411,22.055719 95.0130684,20.6048099 95.0169956,19.8433554 C95.017432,19.7744099 94.9292865,19.7368826 94.9004865,19.7761554 C94.0783775,20.8880099 93.0743047,23.6960099 90.966232,23.6960099 C88.9992263,23.6960099 87.5738194,23.1068072 86.9342889,21.6044684 C86.8048952,21.7731393 86.6644751,21.94288 86.5123556,22.1118354 C85.5440647,23.186599 84.4837011,23.9423808 83.1135193,24.0776535 C80.5372284,24.3311808 78.6665375,23.6207808 77.2261011,21.8421626 C77.1174465,21.7077626 77.013592,21.5663808 76.9119193,21.4123445 C76.6025375,21.4996172 76.3398465,21.5646354 76.1290829,21.6056535 C75.5500284,21.7191081 74.8976647,21.7452899 74.7113375,21.4031808 C74.6611556,21.3111081 74.5987556,21.0929263 74.8121375,20.8716899 C75.0207193,20.6548172 75.5225375,20.5836899 76.3333011,20.3000535 C75.9340284,18.962599 76.0684284,17.2743081 76.8346829,16.1000535 C77.6607193,14.8337263 79.0365738,13.9701626 80.6223193,13.8139445 C80.6345375,13.8126354 80.7824647,13.7886354 80.7946829,13.7873263 C81.8127193,13.6869626 83.1946829,13.8287808 83.9670465,14.8337263 C84.3968647,15.3927081 84.4051556,16.0433263 84.2480647,16.6721263 C83.9461011,17.8795445 81.9641375,19.5743808 79.5637011,20.685799 C79.5637011,20.685799 80.3221011,21.2164172 80.5778102,21.3639081 C81.4357011,21.8587445 82.1893011,21.9508172 83.0921375,21.861799 C84.9427556,21.679399 85.8848647,20.1809263 86.8099556,18.5554717 C86.8784647,18.4350354 87.0914102,18.0117626 87.0914102,18.0117626 C88.184598,15.8079194 90.8969982,14.136969 93.0455047,13.8067008 C95.7592502,13.3891008 96.6529229,14.4049554 96.8841956,15.359719 C97.1303047,16.3751372 96.4024502,19.2259008 96.9863047,20.6100463 C97.1892138,21.0913554 97.5143047,21.5962281 97.9589593,21.6088826 C98.8469718,21.6342387 99.1668007,20.8844349 99.414527,20.3156808 C98.108858,17.6076091 99.0723227,14.0263423 100.824516,14.2442426 C101.271352,14.2996608 102.105243,14.2996608 102.415497,14.8839517 C102.710916,15.4394426 102.376225,16.2737699 102.249679,16.6630063 C102.059425,17.2464245 101.714261,17.7473699 101.622188,18.3591517 C101.53797,18.775879 101.274407,19.2209699 101.584661,19.8048245 C101.614334,19.860679 101.801097,20.0548608 101.91237,20.0548608 C102.05157,20.0548608 102.192952,19.6935517 102.232225,19.6097699 C102.840079,18.1920245 105.157607,13.2432245 106.965025,13.2432245 C107.71557,13.2432245 108.400225,13.7991517 108.784661,14.5222063 C109.435279,15.7457699 108.77157,18.0074426 108.623643,19.0817699 C108.621025,19.0992245 108.611861,19.1280245 108.645025,19.1498426 C108.663788,19.1620608 108.696516,19.1485335 108.708734,19.1371881 C109.40997,18.4931154 110.520952,17.5990063 111.22437,16.5046063 C112.043861,15.2295517 112.455788,14.7656972 112.767352,14.6470063 C113.428879,14.3956608 114.523716,14.7984245 114.759788,15.3835881 C114.960079,15.8810426 114.780297,16.4683881 114.65157,16.8017699 C114.052007,18.6855517 114.707861,19.9915881 115.053897,20.6125335 C115.421752,21.2723154 117.36357,23.7133335 114.968807,24.1139154 C114.146261,24.2513699 113.122552,23.3079517 112.693607,22.5011154 C111.954407,21.1112972 112.262916,19.4640245 112.266843,18.3207517 C112.266843,18.2954426 112.257243,18.1885335 112.181752,18.2653335 C111.14277,19.3165335 110.008661,22.0010426 110.008661,22.0010426 C109.694479,22.6123881 109.28517,23.5863517 108.354407,23.7526063 C107.095934,23.9773335 106.893025,23.2520972 106.510334,22.5844608 C106.053897,21.7784972 106.041243,20.4995154 106.384661,17.7473699 C106.410843,17.6919517 106.403861,17.4694063 106.359352,17.3856245 C106.300443,17.2743517 106.172152,17.1910063 106.061316,17.1910063 C105.783352,17.1910063 105.52677,17.8582063 105.43557,18.0532608 C104.802843,19.582279 104.310625,20.6452608 103.86117,22.2576245 C103.838479,22.9457699 103.402552,23.6413335 102.901607,23.6413335 C102.022692,23.6413335 101.053666,22.7004705 100.342414,21.7721223 Z M40.4283855,18.7695813 L43.0546829,14.8131299 C42.7186829,13.8958935 42.8674829,13.0065845 43.8680647,13.0065845 C44.702392,13.0065845 44.5885011,13.3822935 45.0017375,14.1620754 C46.2667556,16.5485481 46.2017375,16.0257845 47.2193375,17.6132754 C48.5458829,19.6820754 46.7009375,22.8705845 43.2693738,21.644839 C47.3450102,22.9347299 48.4237011,22.0947299 49.1284284,20.9052026 C49.2022286,20.7807164 49.2962838,20.5997129 49.4002891,20.3880311 C48.8060779,16.962175 52.8289795,13.9697335 55.7852865,13.5149481 C58.499032,13.0977845 59.3922684,14.1132026 59.6235411,15.0684026 C59.8696502,16.0838208 59.142232,18.9345845 59.7256502,20.3187299 C59.9285593,20.7996026 60.4290684,21.428839 60.8732865,21.4414935 C62.2792502,21.4812026 62.4612138,20.5124754 62.9874684,20.4614208 C63.5508138,20.406439 63.5909593,21.0051299 63.2898684,21.736039 C62.713432,23.1341481 61.9973593,24.1273117 60.635032,24.1273117 C59.7173593,24.1273117 58.9223047,23.4605481 58.4649956,22.6541481 C57.9596865,21.7644026 57.7524138,20.3134935 57.7567775,19.552039 C57.7567775,19.4830935 57.6690684,19.4455663 57.639832,19.484839 C56.8177229,20.5962572 55.8136502,23.4046935 53.7055775,23.4046935 C52.041924,23.4046935 50.7656996,22.9829126 50.0246977,21.9441051 C49.1028626,23.5438306 48.1788431,24.991118 46.0577375,24.6553117 C44.2114705,24.3630906 43.1647167,22.0119197 40.364906,21.5000152 C39.5345669,22.7913547 38.318228,24.1273117 37.4052575,24.1273117 C36.4875847,24.1273117 35.6925302,23.4605481 35.2352211,22.6541481 C34.729912,21.7644026 34.5226393,20.3134935 34.5265665,19.552039 C34.5270029,19.4830935 34.4388575,19.4455663 34.4100575,19.484839 C33.5879484,20.5962572 32.5838756,23.4046935 30.4758029,23.4046935 C28.4650393,23.4046935 27.0202393,22.7885481 26.4023484,21.2115299 C24.9300575,17.4535663 29.3643847,14.0058572 32.5550756,13.5149481 C35.2688211,13.0977845 36.1624938,14.1132026 36.3937665,15.0684026 C36.6398756,16.0838208 35.7544938,19.0118208 36.4958756,20.3187299 C36.7638029,20.7913117 37.2913665,20.9863663 37.7360211,20.9863663 C38.9037302,20.9863663 39.6843847,19.5681845 40.4222756,18.7617845 L40.4283855,18.7695813 Z M74.2463047,12.7260026 C70.5101593,14.1162572 71.9676138,20.0185117 72.176632,22.7340026 C72.2067411,23.1306572 72.1439047,23.4758208 71.903032,23.8986572 C71.5539411,24.5113117 71.2367047,25.3997481 70.7100138,25.3997481 C69.5012865,25.4006208 69.7993229,22.2478935 69.6972138,21.7212026 C69.6247775,21.3773481 69.4179411,16.6305845 71.336632,13.8897845 C72.2765593,12.5466572 73.2941593,12.0217117 74.6399047,11.3828754 C74.6241956,11.3863663 69.0356865,12.4253481 64.5428865,12.5841845 C62.6796138,12.6500754 61.2221593,11.5574208 60.795832,10.8356754 C60.3511775,10.0934208 60.296632,9.24949354 60.4764138,8.339239 C60.6945956,7.18112991 62.6721956,5.48018445 63.7652865,7.004839 C64.4106684,7.90069354 66.6561956,9.70636627 68.9353229,10.0057117 C72.6845593,10.4979299 75.3913229,9.99785718 76.1972865,9.94287536 C76.237432,9.93720263 76.2723411,9.93458445 76.3050684,9.93807536 C76.7148138,9.94112991 78.1967047,10.4294208 78.3023047,11.6809117 C78.3625229,12.3917481 75.2049956,12.3690572 74.2463047,12.7260026 Z M25.5366902,11.2775808 C26.3077447,12.0617263 26.988472,13.8839808 26.273272,15.561799 C25.6497084,17.0253626 22.4337084,21.0032535 21.8629447,22.1229626 C21.3890538,23.0532899 21.3362538,23.5459445 20.1545811,23.7610717 C18.814072,24.0045626 18.3528356,23.4176535 17.9142902,22.6003445 C17.4408356,21.7167081 17.5119629,21.5155445 16.9966175,17.7492899 C16.8979993,17.0275445 16.7601084,16.2992535 16.702072,16.1404172 C16.5938538,15.8428172 16.3311629,15.6717626 16.0937811,15.7760535 C15.7102175,15.9440535 14.9958902,17.7348899 14.8959629,18.0521263 C14.4072356,19.6029626 13.5777084,22.4432535 13.4241084,22.996999 C13.1915265,23.8348172 12.2581447,24.0071808 11.7715993,24.0071808 C9.47109018,24.0071808 7.28316291,19.9053626 6.16956291,17.8889263 C5.00665382,15.7830354 3.55399927,11.4119808 4.13043564,8.28674445 C4.32330836,7.24034445 5.26890836,6.24238082 7.05494473,6.61023536 C8.37974473,6.88296263 9.52389018,8.02841718 9.69799927,8.78638082 C10.0243993,10.204999 9.78396291,10.694599 9.41872655,12.3881263 C8.57829018,16.2844172 10.3678175,19.4772899 11.4674538,19.5235445 C11.6882538,19.5331445 11.9627265,18.8759808 12.0434538,18.7023081 C13.0942175,16.4336535 14.9033811,12.4871808 16.678072,12.4871808 C17.5350902,12.4871808 17.8222175,13.0749626 18.3065811,14.2252172 C18.9707265,15.801799 19.3189447,19.075399 19.4886902,20.2439808 C19.5576356,20.7152535 20.0062175,20.4525626 20.1270902,20.3312535 C20.527672,19.9306717 21.2598902,18.1860899 22.1443993,16.4170717 C22.6235265,15.4583808 23.5363993,13.6239081 24.0722538,11.5206354 C24.2891265,10.6692899 25.2718175,11.0083445 25.5366902,11.2775808 Z M82.2927193,15.8718354 C82.1997738,15.6737263 82.0038465,15.511399 81.7551193,15.5140172 C79.8316284,15.5371445 78.9868284,17.4737263 78.9148284,19.0865263 C80.8431193,18.5729263 81.7629738,17.4711081 82.1666102,16.5975081 C82.3306829,16.2423081 82.3481375,15.976999 82.2927193,15.8718354 Z M29.4494756,20.2057117 C29.8282393,20.9169845 30.6027847,20.953639 30.9400938,20.8772754 C31.3908575,20.7756026 32.3787847,20.9052026 33.8772575,17.0909481 C34.0504938,16.6502208 34.1674393,15.6876026 33.2257665,15.9005481 C28.8040938,16.9002572 29.123512,19.3805481 29.4494756,20.2057117 Z M52.6792502,20.2057117 C53.0584502,20.9169845 53.8325593,20.953639 54.1703047,20.8772754 C54.620632,20.7756026 55.6085593,20.9052026 57.1074684,17.0909481 C57.2802684,16.6502208 57.3972138,15.6876026 56.4555411,15.9005481 C52.0343047,16.9002572 52.3537229,19.3805481 52.6792502,20.2057117 Z M89.9399047,20.4970281 C90.3186684,21.2083008 91.0932138,21.2449554 91.4305229,21.1690281 C91.8812865,21.0673554 92.8692138,21.196519 94.3676865,17.3822645 C94.5409229,16.9419735 94.6578684,15.978919 93.7161956,16.1918645 C89.2945229,17.1915735 89.6139411,19.6718645 89.9399047,20.4970281 Z M41.3205738,20.0682572 C42.3726465,20.123239 45.8461011,20.118439 45.1195556,18.5667299 C44.8333011,17.9553845 44.4855193,17.4278208 43.5896647,15.9358935 L41.3205738,20.0682572 Z" id="path-5"></path>
    </defs>
    <g id="Symbols" stroke="none" stroke-width="1" fill="none" fill-rule="evenodd">
        <g id="Logo/直式組合/白">
            <g id="Logo/logo" transform="translate(60.000000, 16.000000)">
                <mask id="mask-2" fill="white">
                    <use xlink:href="#path-1"></use>
                </mask>
                <use id="Mask" fill="#6F8A40" fill-rule="evenodd" xlink:href="#path-1"></use>
                <g id="Color/Light-500" mask="url(#mask-2)" fill="#FEFFF6" fill-rule="evenodd">
                    <rect id="color" x="0" y="0" width="120" height="120"></rect>
                </g>
            </g>
            <g id="Logo/山葵組" transform="translate(60.000000, 146.000000)">
                <mask id="mask-4" fill="white">
                    <use xlink:href="#path-3"></use>
                </mask>
                <use id="Mask" fill="#FEFFF6" fill-rule="evenodd" xlink:href="#path-3"></use>
                <g id="Color/Light-500" mask="url(#mask-4)" fill="#FEFFF6" fill-rule="evenodd">
                    <rect id="color" x="0" y="0" width="120" height="40"></rect>
                </g>
            </g>
            <g id="Logo/WasaTeam" transform="translate(60.000000, 188.000000)">
                <mask id="mask-6" fill="white">
                    <use xlink:href="#path-5"></use>
                </mask>
                <use id="Combined-Shape" fill="#6D8640" fill-rule="evenodd" xlink:href="#path-5"></use>
                <g id="Color/Light-500" mask="url(#mask-6)" fill="#FEFFF6" fill-rule="evenodd">
                    <rect id="color" x="0" y="0" width="120" height="32"></rect>
                </g>
            </g>
        </g>
    </g>
</svg>