<?xml version="1.0" encoding="utf-8"?>
<!-- Generator: Adobe Illustrator 25.0.0, SVG Export Plug-In . SVG Version: 6.00 Build 0)  -->
<svg version="1.1" id="圖層_1" xmlns="http://www.w3.org/2000/svg" xmlns:xlink="http://www.w3.org/1999/xlink" x="0px" y="0px"
	 viewBox="0 0 453 367" style="enable-background:new 0 0 453 367;" xml:space="preserve">
<style type="text/css">
	.st0{fill-rule:evenodd;clip-rule:evenodd;fill:url(#SVGID_1_);}
	.st1{fill:none;stroke:#93AD65;stroke-width:1.941;}
	.st2{fill-rule:evenodd;clip-rule:evenodd;fill:#DCDDDD;}
	.st3{fill:none;stroke:#93AD65;stroke-width:1.295;}
	.st4{fill-rule:evenodd;clip-rule:evenodd;fill:#FFFFFF;}
	.st5{fill:none;stroke:#8FC31F;stroke-width:1.295;}
	.st6{fill:none;}
	.st7{fill-rule:evenodd;clip-rule:evenodd;fill:#8FC31F;}
	.st8{fill-rule:evenodd;clip-rule:evenodd;fill:#93AD65;}
	.st9{fill-rule:evenodd;clip-rule:evenodd;fill:#FAEE00;}
	.st10{fill:none;stroke:#8FC31F;}
	.st11{fill:none;stroke:#FAEE00;stroke-width:1.86;}
	.st12{fill-rule:evenodd;clip-rule:evenodd;fill:#FDDEA5;}
	.st13{fill:none;stroke:#FDDEA5;stroke-width:0.647;}
	.st14{fill:none;stroke:#FAEE00;stroke-width:1.295;}
	.st15{fill-rule:evenodd;clip-rule:evenodd;fill:#040000;}
	.st16{fill-rule:evenodd;clip-rule:evenodd;fill:#231815;}
	.st17{fill:none;stroke:#231815;stroke-width:0.647;}
	.st18{fill:none;stroke:#8FC31F;stroke-width:0.647;}
	.st19{fill:#727171;}
	.st20{font-family:'MicrosoftSansSerif';}
	.st21{font-size:1.5176px;}
	.st22{fill:none;stroke:#93AD65;stroke-width:0.647;}
	.st23{fill-rule:evenodd;clip-rule:evenodd;fill:#727171;}
	.st24{fill:none;stroke:#FFFFFF;stroke-width:0.324;}
	.st25{fill:none;stroke:#FAEE00;stroke-width:0.647;}
	.st26{fill-rule:evenodd;clip-rule:evenodd;fill:#EFEFEF;}
	.st27{fill-rule:evenodd;clip-rule:evenodd;fill:#3E3A39;}
	.st28{fill:none;stroke:#898989;stroke-width:0.647;}
	.st29{fill-rule:evenodd;clip-rule:evenodd;fill:#6C8F31;}
	.st30{fill:none;stroke:#93AD65;stroke-width:1.302;}
	.st31{fill:none;stroke:#FAEE00;stroke-width:1.302;}
	.st32{fill:none;stroke:#FFFFFF;stroke-width:0.75;stroke-linecap:round;stroke-linejoin:round;stroke-miterlimit:10;}
</style>
<g id="GUI-Page-20191216updated">
	<g id="服務項目" transform="translate(-721.000000, -489.000000)">
		<g id="IMG_x2F_Service" transform="translate(711.000000, 474.000000)">
			<g id="IMG_x2F_BG-Footer-White" transform="translate(15.025543, 119.981700)">
				<g id="BG-Footer-White">
					
						<linearGradient id="SVGID_1_" gradientUnits="userSpaceOnUse" x1="-745.8849" y1="5.1205" x2="-745.8849" y2="6.1208" gradientTransform="matrix(443 0 0 257 330648.625 -1315.8862)">
						<stop  offset="0" style="stop-color:#FFFFFF"/>
						<stop  offset="1" style="stop-color:#FEFFF6"/>
					</linearGradient>
					<path class="st0" d="M247.5,256.6c-17.1,0.7-34.3,0.8-51.5,0c-3.3-0.1-6.5-0.7-9.8-0.9c-27.8-1.5-55.3-4.5-81.8-11.3
						C52.8,231.2,18,206.3,5.9,165.8c-2.4-7.9-4.4-15.9-5.2-23.9c-0.8-7.5-0.9-15.1,0-22.6c0.5-4,1.9-7.9,3-11.9
						c8.8-29.7,31.6-52.6,63.6-70.7c39.5-22.3,84.7-33.3,133.8-36C254.5-2.2,305.2,5,352,24.7c37.3,15.7,66.3,37.3,82.1,67.7
						c11.5,22.1,10.6,44.9,5.2,67.7c-8.5,35.7-34.2,61.9-78.5,77.7c-25.2,9-52,13.7-79.6,16.2C269.9,255,258.7,256.2,247.5,256.6"/>
				</g>
			</g>
			<g id="Group-359" transform="translate(33.000000, 14.000000)">
				<g id="Group-181" transform="translate(0.000000, 86.791000)">
					<path id="Stroke-1" class="st1" d="M333.6,182.2v13.3c0,0.9,0.8,3.6,5.8,3.6h11.4c3,0,4.9,1.3,4.9,3.4v3c0,0,0.1,4.3-5.2,4.3
						H219.3c0,0-4-0.4-4,2.9"/>
					<path id="Stroke-3" class="st1" d="M50.3,62.4V49c0-0.9-0.8-3.6-5.8-3.6h-29c-3,0-4.9-1.3-4.9-3.4v-3c0,0-0.1-4.3,5.2-4.3H123
						c0,0,4,0.4,4-2.9V7.4"/>
					<path id="Stroke-5" class="st1" d="M67.4,175.1v26.4c0,6.6,4.9,8.3,10.2,8.3h91.8"/>
					<path id="Stroke-7" class="st1" d="M363.8,97.6V33.2c0-3.2-4.7-4.7-4.7-4.7h-4.3c-3.8,0-4.7,4.4-4.7,4.4v29.9
						c0,5.9-6.1,6.9-6.1,6.9h0.1c-4.2,0-8.1-1-8.1-8.1V0.8"/>
					<path id="Fill-9" class="st2" d="M106.1,164c0.4,2-0.9,3.9-2.9,4.3l-78,14.9c-2,0.4-3.9-0.9-4.3-2.9L0.7,74.8
						c-0.4-2,0.9-3.9,2.9-4.3l78-14.9c2-0.4,3.9,0.9,4.3,2.9L106.1,164z"/>
					<path id="Stroke-11" class="st3" d="M106.1,164c0.4,2-0.9,3.9-2.9,4.3l-78,14.9c-2,0.4-3.9-0.9-4.3-2.9L0.7,74.8
						c-0.4-2,0.9-3.9,2.9-4.3l78-14.9c2-0.4,3.9,0.9,4.3,2.9L106.1,164z"/>
					<path id="Fill-13" class="st4" d="M66.2,169.4c0.3,1.7-0.8,3.4-2.5,3.7c-1.7,0.3-3.4-0.8-3.7-2.5s0.8-3.4,2.5-3.7
						C64.3,166.6,65.9,167.7,66.2,169.4"/>
					<path id="Stroke-15" class="st5" d="M66.2,169.4c0.3,1.7-0.8,3.4-2.5,3.7c-1.7,0.3-3.4-0.8-3.7-2.5s0.8-3.4,2.5-3.7
						C64.3,166.6,65.9,167.7,66.2,169.4z"/>
					<polygon id="Fill-17" class="st4" points="96.3,157.7 27.7,170.9 9.8,77.7 78.5,64.6 					"/>
					<polygon id="Stroke-19" class="st5" points="96.3,157.7 27.7,170.9 9.8,77.7 78.5,64.6 					"/>
					<g id="Group-24" transform="translate(11.000000, 69.000000)">
						<line id="Fill-21" class="st6" x1="0.4" y1="14" x2="68.6" y2="1"/>
						<line id="Stroke-23" class="st5" x1="0.4" y1="14" x2="68.6" y2="1"/>
					</g>
					<path id="Fill-25" class="st7" d="M77.4,67.4c0.1,0.5-0.2,1-0.8,1.1l-11.7,2.2c-0.5,0.1-1-0.2-1.1-0.8c-0.1-0.5,0.2-1,0.8-1.1
						l11.7-2.2C76.7,66.6,77.3,66.9,77.4,67.4"/>
					<path id="Fill-27" class="st7" d="M61,70.6c0.1,0.5-0.1,1-0.4,1.1l-7.4,1.4c-0.3,0.1-0.7-0.3-0.8-0.8s0.1-1,0.4-1.1l7.4-1.4
						C60.5,69.7,60.9,70,61,70.6"/>
					<polygon id="Fill-29" class="st8" points="13.3,81.4 12.3,81.6 11.8,79 12.8,78.8 					"/>
					<polygon id="Fill-31" class="st8" points="19.8,80.2 18.7,80.4 18.2,77.8 19.3,77.5 					"/>
					<polygon id="Fill-33" class="st8" points="21.4,79.9 20.3,80.1 19.8,77.4 20.9,77.2 					"/>
					<polygon id="Fill-35" class="st8" points="23,79.6 21.9,79.8 21.4,77.1 22.5,76.9 					"/>
					<path id="Fill-37" class="st8" d="M14,79.1l2.1,1.8l1.3-2.5C17.4,78.4,15.4,77.7,14,79.1"/>
					<line id="Stroke-39" class="st5" x1="17.2" y1="86.5" x2="74.9" y2="75.5"/>
					<line id="Stroke-41" class="st5" x1="17.8" y1="90" x2="75.6" y2="79"/>
					<line id="Stroke-43" class="st5" x1="18.5" y1="93.5" x2="50.6" y2="87.4"/>
					<polygon id="Fill-45" class="st9" points="82.9,117.4 25.2,128.5 19.4,98 77.1,86.9 					"/>
					<polygon id="Stroke-47" class="st10" points="82.9,117.4 25.2,128.5 19.4,98 77.1,86.9 					"/>
					<polygon id="Stroke-49" class="st3" points="86.5,135.9 73.9,138.3 71.4,125.1 84,122.7 					"/>
					<line id="Stroke-51" class="st3" x1="26.9" y1="135.6" x2="43.1" y2="132.5"/>
					<line id="Stroke-53" class="st3" x1="27.6" y1="139" x2="68.1" y2="131.3"/>
					<line id="Stroke-55" class="st3" x1="28.2" y1="142.5" x2="68.8" y2="134.7"/>
					<line id="Stroke-57" class="st3" x1="28.9" y1="145.9" x2="69.4" y2="138.2"/>
					<line id="Stroke-59" class="st3" x1="48.1" y1="151" x2="87" y2="143.6"/>
					<line id="Stroke-61" class="st3" x1="48.8" y1="154.4" x2="87.7" y2="147"/>
					<line id="Stroke-63" class="st3" x1="49.4" y1="157.9" x2="88.4" y2="150.4"/>
					<path id="Stroke-65" class="st3" d="M44.6,155.2c0.7,3.8-1.8,7.5-5.6,8.2s-7.5-1.8-8.2-5.6s1.8-7.5,5.6-8.2
						C40.2,148.9,43.9,151.4,44.6,155.2z"/>
					<line id="Stroke-67" class="st3" x1="36.4" y1="149.6" x2="37.7" y2="156.6"/>
					<line id="Stroke-69" class="st3" x1="37.7" y1="156.6" x2="42.1" y2="151.1"/>
					<line id="Stroke-71" class="st3" x1="37.7" y1="156.6" x2="41.5" y2="162.4"/>
					<polygon id="Stroke-73" class="st5" points="86.5,135.9 73.9,138.3 71.4,125.1 84,122.7 					"/>
					<line id="Stroke-75" class="st5" x1="26.9" y1="135.6" x2="43.1" y2="132.5"/>
					<line id="Stroke-77" class="st5" x1="27.6" y1="139" x2="68.1" y2="131.3"/>
					<line id="Stroke-79" class="st5" x1="28.2" y1="142.5" x2="68.8" y2="134.7"/>
					<line id="Stroke-81" class="st5" x1="28.9" y1="145.9" x2="69.4" y2="138.2"/>
					<line id="Stroke-83" class="st5" x1="48.1" y1="151" x2="87" y2="143.6"/>
					<line id="Stroke-85" class="st5" x1="48.8" y1="154.4" x2="87.7" y2="147"/>
					<line id="Stroke-87" class="st5" x1="49.4" y1="157.9" x2="88.4" y2="150.4"/>
					<path id="Stroke-89" class="st5" d="M44.6,155.2c0.7,3.8-1.8,7.5-5.6,8.2s-7.5-1.8-8.2-5.6s1.8-7.5,5.6-8.2
						C40.2,148.9,43.9,151.4,44.6,155.2z"/>
					<line id="Stroke-91" class="st5" x1="36.4" y1="149.6" x2="37.7" y2="156.6"/>
					<line id="Stroke-93" class="st5" x1="37.7" y1="156.6" x2="42.1" y2="151.1"/>
					<line id="Stroke-95" class="st5" x1="37.7" y1="156.6" x2="41.5" y2="162.4"/>
					<line id="Stroke-97" class="st5" x1="61.3" y1="92.6" x2="74.5" y2="100.9"/>
					<line id="Stroke-99" class="st5" x1="54.7" y1="94.5" x2="74.2" y2="105.9"/>
					<path id="Fill-101" class="st8" d="M165,249.3c-0.1,2.3,1.7,4.2,4,4.2l76.5,2.5c2.3,0.1,4.2-1.7,4.2-4l3.3-98.9
						c0.1-2.3-1.7-4.2-4-4.2l-76.5-2.5c-2.3-0.1-4.2,1.7-4.2,4L165,249.3z"/>
					<path id="Stroke-103" class="st11" d="M165,249.3c-0.1,2.3,1.7,4.2,4,4.2l76.5,2.5c2.3,0.1,4.2-1.7,4.2-4l3.3-98.9
						c0.1-2.3-1.7-4.2-4-4.2l-76.5-2.5c-2.3-0.1-4.2,1.7-4.2,4L165,249.3z"/>
					<polygon id="Fill-105" class="st4" points="174,244.8 241.1,247 244.1,155.3 177,153.1 					"/>
					<path id="Fill-107" class="st9" d="M209.5,145.3c0-0.8,0.7-1.4,1.4-1.3c0.8,0,1.4,0.7,1.3,1.4c0,0.8-0.7,1.4-1.4,1.3
						C210.1,146.7,209.5,146.1,209.5,145.3 M188,156c-0.2,0.6-0.1,2.4-0.1,2.4l22.5,0.7l22.5,0.7c0,0,0.2-1.8,0.1-2.4
						c-0.4-1.9-2.7-5.7-3.5-7s-2.4-1.6-3.5-1.6c-1.2,0-6-0.2-6-0.2s-0.1-0.7-0.7-3.1c-0.7-2.4-2.8-3.3-4.4-3.3
						c-1.7-0.1-3.8-0.1-3.8-0.1s-2.1-0.1-3.8-0.1c-1.7-0.1-3.8,0.7-4.7,3c-0.8,2.3-0.9,3-0.9,3s-4.9-0.2-6-0.2
						c-1.2,0-2.8,0.1-3.6,1.4C191,150.5,188.5,154.1,188,156"/>
					<path id="Stroke-109" class="st5" d="M209.5,145.3c0-0.8,0.7-1.4,1.4-1.3c0.8,0,1.4,0.7,1.3,1.4c0,0.8-0.7,1.4-1.4,1.3
						C210.1,146.7,209.5,146.1,209.5,145.3z M188,156c-0.2,0.6-0.1,2.4-0.1,2.4l22.5,0.7l22.5,0.7c0,0,0.2-1.8,0.1-2.4
						c-0.4-1.9-2.7-5.7-3.5-7s-2.4-1.6-3.5-1.6c-1.2,0-6-0.2-6-0.2s-0.1-0.7-0.7-3.1c-0.7-2.4-2.8-3.3-4.4-3.3
						c-1.7-0.1-3.8-0.1-3.8-0.1s-2.1-0.1-3.8-0.1c-1.7-0.1-3.8,0.7-4.7,3c-0.8,2.3-0.9,3-0.9,3s-4.9-0.2-6-0.2
						c-1.2,0-2.8,0.1-3.6,1.4C191,150.5,188.5,154.1,188,156z"/>
					<path id="Stroke-111" class="st5" d="M205.7,170.3c0,0.3,0.4,0.6,0.9,0.6l6.8,0.2c0.5,0,0.9-0.2,0.9-0.5l0.1-3
						c0-0.3-0.4-0.6-0.9-0.6l-6.8-0.2c-0.5,0-0.9,0.2-0.9,0.5L205.7,170.3z"/>
					<path id="Stroke-113" class="st5" d="M205.4,180c0,0.3,0.4,0.6,0.9,0.6l6.8,0.2c0.5,0,0.9-0.2,0.9-0.5l0.1-3
						c0-0.3-0.4-0.6-0.9-0.6l-6.8-0.2c-0.5,0-0.9,0.2-0.9,0.5L205.4,180z"/>
					<path id="Stroke-115" class="st5" d="M191.1,179.5c0,0.3,0.4,0.6,0.9,0.6l6.8,0.2c0.5,0,0.9-0.2,0.9-0.5l0.1-3
						c0-0.3-0.4-0.6-0.9-0.6l-6.8-0.2c-0.5,0-0.9,0.2-0.9,0.5L191.1,179.5z"/>
					<path id="Stroke-117" class="st5" d="M225.6,195c0,0.3,0.4,0.6,0.9,0.6l6.8,0.2c0.5,0,0.9-0.2,0.9-0.5l0.1-3
						c0-0.3-0.4-0.6-0.9-0.6l-6.8-0.2c-0.5,0-0.9,0.2-0.9,0.5L225.6,195z"/>
					<path id="Stroke-119" class="st5" d="M184.8,191.8c0,0.3,0.4,0.6,0.9,0.6l6.8,0.2c0.5,0,0.9-0.2,0.9-0.5l0.1-3
						c0-0.3-0.4-0.6-0.9-0.6l-6.8-0.2c-0.5,0-0.9,0.2-0.9,0.5L184.8,191.8z"/>
					<path id="Stroke-121" class="st5" d="M196.5,192.2c0,0.3,0.4,0.6,0.9,0.6l6.8,0.2c0.5,0,0.9-0.2,0.9-0.5l0.1-3
						c0-0.3-0.4-0.6-0.9-0.6l-6.8-0.2c-0.5,0-0.9,0.2-0.9,0.5L196.5,192.2z"/>
					<path id="Stroke-123" class="st5" d="M219.8,180.5c0,0.3,0.4,0.6,0.9,0.6l6.8,0.2c0.5,0,0.9-0.2,0.9-0.5l0.1-3
						c0-0.3-0.4-0.6-0.9-0.6l-6.8-0.2c-0.5,0-0.9,0.2-0.9,0.5L219.8,180.5z"/>
					<path id="Stroke-125" class="st5" d="M224.4,180.8c0,0-1.1,4.2,0.3,4.8c1.9,0.7,5.5-0.9,5.4,2.1s-0.1,4.2-0.1,4.2"/>
					<path id="Stroke-127" class="st5" d="M189.3,188.5c0,0-0.8-3.1,1.9-2.9c1.5,0.1,7.3,0.2,7.8,0.3s2.2,0.5,1.9,3.1"/>
					<path id="Stroke-129" class="st5" d="M195.5,176.1c0,0-0.7-3.1,5.6-2.8c3.5,0.2,17.2,0.6,18.5,0.6s5.1,0.6,4.5,3.1"/>
					<line id="Stroke-131" class="st5" x1="210" y1="171" x2="209.8" y2="176.6"/>
					<line id="Stroke-133" class="st5" x1="195.3" y1="180.3" x2="195.2" y2="185.3"/>
					<line id="Stroke-135" class="st5" x1="231.9" y1="198.5" x2="231.4" y2="215.5"/>
					<line id="Stroke-137" class="st5" x1="227.6" y1="198.3" x2="227" y2="218.7"/>
					<line id="Stroke-139" class="st5" x1="202.7" y1="197.5" x2="202" y2="220.3"/>
					<line id="Stroke-141" class="st5" x1="198.4" y1="197.3" x2="197.5" y2="224.7"/>
					<line id="Stroke-143" class="st5" x1="194.1" y1="197.2" x2="193.2" y2="224.5"/>
					<line id="Stroke-145" class="st5" x1="189.8" y1="197.1" x2="188.8" y2="224.4"/>
					<line id="Stroke-147" class="st5" x1="185.4" y1="196.9" x2="184.5" y2="224.2"/>
					<path id="Fill-149" class="st12" d="M159.8,183.6c0,0,0.9-5.1,0.3-5.3c-0.6-0.2-3.8,3.1-4,3.5
						C155.9,182.2,158.9,184,159.8,183.6"/>
					<path id="Stroke-151" class="st13" d="M159.8,183.6c0,0,0.9-5.1,0.3-5.3c-0.6-0.2-3.8,3.1-4,3.5
						C155.9,182.2,158.9,184,159.8,183.6z"/>
					<path id="Fill-153" class="st7" d="M156,182.1l-26.5,54.2c0,0-0.3,1.3,1.2,2s2.1,0.1,2.3-0.4c0.3-0.5,26.5-54.1,26.5-54.1
						l-0.9-0.1l-0.5-1.4l-0.9,0.4L156,182.1z"/>
					<path id="Stroke-155" class="st14" d="M156,182.1l-26.5,54.2c0,0-0.3,1.3,1.2,2s2.1,0.1,2.3-0.4c0.3-0.5,26.5-54.1,26.5-54.1
						l-0.9-0.1l-0.5-1.4l-0.9,0.4L156,182.1z"/>
					<path id="Fill-157" class="st15" d="M136.3,222.5l-6.7,13.8c0,0-0.3,1.3,1.2,2s2.1,0.1,2.3-0.4c0.3-0.5,6.7-13.7,6.7-13.7
						L136.3,222.5z"/>
					<path id="Stroke-159" class="st14" d="M136.3,222.5l-6.7,13.8c0,0-0.3,1.3,1.2,2s2.1,0.1,2.3-0.4c0.3-0.5,6.7-13.7,6.7-13.7
						L136.3,222.5z"/>
					<path id="Fill-161" class="st16" d="M160.1,178.3c-0.3-0.1-1.6,1-1.6,1s1,1,1.3,0.9l0.4-0.1C160.3,180,160.5,178.4,160.1,178.3
						"/>
					<path id="Stroke-163" class="st17" d="M160.1,178.3c-0.3-0.1-1.6,1-1.6,1s1,1,1.3,0.9l0.4-0.1
						C160.3,180,160.5,178.4,160.1,178.3z"/>
					<path id="Fill-165" class="st2" d="M353.8,177.2c-0.6,4.4-4.7,7.5-9.2,6.8l-30-4.4c-4.4-0.6-7.5-4.7-6.8-9.2l11.4-77.9
						c0.6-4.4,4.7-7.5,9.2-6.8l30,4.4c4.4,0.6,7.5,4.7,6.8,9.2L353.8,177.2z"/>
					<path id="Stroke-167" class="st3" d="M353.8,177.2c-0.6,4.4-4.7,7.5-9.2,6.8l-30-4.4c-4.4-0.6-7.5-4.7-6.8-9.2l11.4-77.9
						c0.6-4.4,4.7-7.5,9.2-6.8l30,4.4c4.4,0.6,7.5,4.7,6.8,9.2L353.8,177.2z"/>
					<path id="Fill-169" class="st4" d="M335.1,173.2c-0.3,2.3-2.4,3.8-4.7,3.5c-2.3-0.3-3.8-2.4-3.5-4.7s2.4-3.8,4.7-3.5
						C333.9,168.8,335.4,170.9,335.1,173.2"/>
					<path id="Stroke-171" class="st5" d="M335.1,173.2c-0.3,2.3-2.4,3.8-4.7,3.5c-2.3-0.3-3.8-2.4-3.5-4.7s2.4-3.8,4.7-3.5
						C333.9,168.8,335.4,170.9,335.1,173.2z"/>
					<path id="Fill-173" class="st4" d="M348.6,94.9c-0.1,0.4-0.4,0.7-0.9,0.6l-11.4-1.7c-0.4-0.1-0.7-0.4-0.6-0.9
						c0.1-0.4,0.4-0.7,0.9-0.6L348,94C348.4,94.1,348.6,94.5,348.6,94.9"/>
					<path id="Stroke-175" class="st18" d="M348.6,94.9c-0.1,0.4-0.4,0.7-0.9,0.6l-11.4-1.7c-0.4-0.1-0.7-0.4-0.6-0.9
						c0.1-0.4,0.4-0.7,0.9-0.6L348,94C348.4,94.1,348.6,94.5,348.6,94.9z"/>
					<path id="Fill-177" class="st4" d="M355,95.9c-0.1,0.9-1,1.6-1.9,1.4c-0.9-0.1-1.6-1-1.4-1.9c0.1-0.9,1-1.6,1.9-1.4
						S355.1,94.9,355,95.9"/>
					<path id="Stroke-179" class="st18" d="M355,95.9c-0.1,0.9-1,1.6-1.9,1.4c-0.9-0.1-1.6-1-1.4-1.9c0.1-0.9,1-1.6,1.9-1.4
						S355.1,94.9,355,95.9z"/>
				</g>
				<text transform="matrix(1 0 0 1 337.9435 190.729)" class="st19 st20 st21">1</text>
				<text transform="matrix(1 0 0 1 338.7875 190.729)" class="st19 st20 st21"> </text>
				<text transform="matrix(1 0 0 1 338.8231 190.729)" class="st19 st20 st21">2</text>
				<text transform="matrix(1 0 0 1 339.6656 190.729)" class="st19 st20 st21"> </text>
				<text transform="matrix(1 0 0 1 339.7012 190.729)" class="st19 st20 st21">:</text>
				<text transform="matrix(1 0 0 1 340.1246 190.729)" class="st19 st20 st21"> </text>
				<text transform="matrix(1 0 0 1 340.0528 190.729)" class="st19 st20 st21">0</text>
				<text transform="matrix(1 0 0 1 340.8954 190.729)" class="st19 st20 st21"> </text>
				<text transform="matrix(1 0 0 1 340.9309 190.729)" class="st19 st20 st21">0</text>
				<text transform="matrix(1 0 0 1 323.365 188.5918)" class="st19 st20 st21">8</text>
				<text transform="matrix(1 0 0 1 324.209 188.5918)" class="st19 st20 st21"> </text>
				<text transform="matrix(1 0 0 1 324.2446 188.5918)" class="st19 st20 st21">7</text>
				<text transform="matrix(1 0 0 1 325.087 188.5918)" class="st19 st20 st21"> </text>
				<text transform="matrix(1 0 0 1 325.1226 188.5918)" class="st19 st20 st21">88</text>
				<g id="Group-358" transform="translate(0.000000, 0.791000)">
					<line id="Stroke-182" class="st22" x1="320" y1="190.9" x2="361" y2="196.9"/>
					<path id="Fill-184" class="st23" d="M358.5,191.2c-0.1,0.4-0.4,0.6-0.8,0.6l-3-0.4c-0.4-0.1-0.6-0.4-0.6-0.8
						c0.1-0.4,0.4-0.6,0.8-0.6l3,0.4C358.3,190.5,358.5,190.8,358.5,191.2"/>
					<path id="Fill-186" class="st23" d="M353.5,190.4c-0.1,0.3-0.4,0.6-0.7,0.5c-0.3-0.1-0.6-0.4-0.5-0.7s0.4-0.6,0.7-0.5
						C353.3,189.8,353.6,190.1,353.5,190.4"/>
					<polygon id="Fill-188" class="st4" points="352.7,253.4 311.7,247.4 321,183.5 362.1,189.5 					"/>
					<polygon id="Stroke-190" class="st3" points="352.7,253.4 311.7,247.4 321,183.5 362.1,189.5 					"/>
					<polygon id="Fill-192" class="st9" points="354.3,218.3 320.8,213.4 323.4,195.6 356.9,200.6 					"/>
					<polygon id="Stroke-194" class="st10" points="354.3,218.3 320.8,213.4 323.4,195.6 356.9,200.6 					"/>
					<line id="Stroke-196" class="st5" x1="320.4" y1="217.6" x2="333.6" y2="219.5"/>
					<line id="Stroke-198" class="st5" x1="320.1" y1="219.6" x2="353.4" y2="224.5"/>
					<line id="Stroke-200" class="st5" x1="319.8" y1="221.6" x2="353.1" y2="226.5"/>
					<line id="Stroke-202" class="st5" x1="319.5" y1="223.6" x2="352.8" y2="228.5"/>
					<path id="Stroke-204" class="st5" d="M331.7,235.4c-0.6,3.8-4.1,6.5-8,5.9c-3.8-0.6-6.5-4.1-5.9-8c0.6-3.8,4.1-6.5,8-5.9
						C329.6,228,332.3,231.6,331.7,235.4z"/>
					<path id="Stroke-206" class="st5" d="M330.7,230.7l-5.4,3.4c-0.2,0.1-0.5,0-0.5-0.3l0.9-6.3"/>
					<line id="Stroke-208" class="st5" x1="347.2" y1="200.6" x2="352.9" y2="207.7"/>
					<line id="Stroke-210" class="st5" x1="343.3" y1="200.4" x2="351.8" y2="210.4"/>
					<path id="Stroke-212" class="st5" d="M349.1,244.4l-10.5-1.5c-0.8-0.1-1.3-0.8-1.2-1.6l1.4-9.8c0.1-0.8,0.8-1.3,1.6-1.2
						l10.5,1.5c0.8,0.1,1.3,0.8,1.2,1.6l-1.4,9.8C350.6,244,349.8,244.5,349.1,244.4z"/>
					<polygon id="Fill-214" class="st7" points="352.9,247.8 313.1,242.1 312.4,246.9 352.1,253.2 					"/>
					<polygon id="Stroke-216" class="st24" points="321.9,247.9 317.8,247.3 318.2,244.2 322.3,244.8 					"/>
					<polyline id="Stroke-218" class="st24" points="318.2,244.2 320,246.2 322.3,244.8 					"/>
					<line id="Stroke-220" class="st24" x1="321.9" y1="247.9" x2="320.4" y2="246"/>
					<line id="Stroke-222" class="st24" x1="317.8" y1="247.3" x2="319.7" y2="245.9"/>
					<polyline id="Stroke-224" class="st24" points="327.4,248.3 327.8,245.6 330.3,245.5 329.9,248.2 					"/>
					<line id="Stroke-226" class="st24" x1="327.6" y1="246.9" x2="330.1" y2="246.7"/>
					<path id="Fill-228" class="st4" d="M327.6,248.4c-0.1,0.5-0.5,0.8-0.9,0.7c-0.5-0.1-0.8-0.5-0.7-0.9c0.1-0.5,0.5-0.8,0.9-0.7
						C327.3,247.5,327.6,247.9,327.6,248.4"/>
					<path id="Fill-230" class="st4" d="M330,248.4c-0.1,0.5-0.5,0.8-0.9,0.7c-0.5-0.1-0.8-0.5-0.7-0.9c0.1-0.5,0.5-0.8,1-0.7
						C329.8,247.5,330.1,247.9,330,248.4"/>
					<path id="Stroke-232" class="st24" d="M337.4,248.1c0.1-0.7-0.4-1.2-1-1.3s-1.2,0.2-1.3,1c-0.4-0.1-1.1,0.3-1.1,0.9
						c-0.1,0.6,0.3,1.2,0.9,1.3c0.5,0.1,1.1,0.2,1.1,0.2s0.6,0.1,1.1,0.2c0.5,0.1,1.1-0.4,1.2-1
						C338.4,248.7,337.8,248.2,337.4,248.1z"/>
					<line id="Stroke-234" class="st24" x1="336" y1="249.5" x2="336.2" y2="248.4"/>
					<polyline id="Stroke-236" class="st24" points="335.7,248.4 336.3,247.9 336.7,248.5 					"/>
					<g id="Group-241" transform="translate(344.000000, 232.000000)">
						<line id="Fill-238" class="st6" x1="0.3" y1="16" x2="40.5" y2="0.4"/>
						<line id="Stroke-240" class="st5" x1="0.3" y1="16" x2="40.5" y2="0.4"/>
					</g>
					<g id="Group-245" transform="translate(343.000000, 250.000000)">
						<line id="Fill-242" class="st6" x1="0.9" y1="0.5" x2="40.4" y2="21.8"/>
						<line id="Stroke-244" class="st5" x1="0.9" y1="0.5" x2="40.4" y2="21.8"/>
					</g>
					<path id="Fill-246" class="st9" d="M413.8,255.4c-1.7,11.7-12.6,19.9-24.4,18.2c-11.7-1.7-19.9-12.6-18.2-24.4
						c1.7-11.7,12.6-19.9,24.4-18.2C407.4,232.8,415.5,243.7,413.8,255.4"/>
					<path id="Stroke-248" class="st5" d="M413.8,255.4c-1.7,11.7-12.6,19.9-24.4,18.2c-11.7-1.7-19.9-12.6-18.2-24.4
						c1.7-11.7,12.6-19.9,24.4-18.2C407.4,232.8,415.5,243.7,413.8,255.4z"/>
					<path id="Fill-250" class="st8" d="M394.6,238c-4.3-0.6-9.4,0-10.5,7.7s6.2,21.8,6.2,21.8s11-11.5,12.2-19.2
						C403.6,240.7,398.9,238.6,394.6,238"/>
					<path id="Stroke-252" class="st14" d="M394.6,238c-4.3-0.6-9.4,0-10.5,7.7s6.2,21.8,6.2,21.8s11-11.5,12.2-19.2
						C403.6,240.7,398.9,238.6,394.6,238z"/>
					<path id="Fill-254" class="st9" d="M397.9,247.7c-0.4,2.5-2.7,4.3-5.3,3.9c-2.5-0.4-4.3-2.7-3.9-5.3c0.4-2.5,2.7-4.3,5.3-3.9
						C396.5,242.8,398.2,245.1,397.9,247.7"/>
					<path id="Stroke-256" class="st24" d="M344.5,247.8c-0.6-0.1-1.4,0-1.5,1.1c-0.2,1.1,1,2.7,1,2.7s1.5-1.2,1.7-2.3
						C345.8,248.2,345.2,247.9,344.5,247.8z"/>
					<path id="Stroke-258" class="st24" d="M345,249.2c-0.1,0.4-0.4,0.6-0.8,0.6c-0.4-0.1-0.6-0.4-0.6-0.8c0.1-0.4,0.4-0.6,0.8-0.6
						C344.8,248.5,345.1,248.9,345,249.2z"/>
					<path id="Stroke-260" class="st14" d="M347.7,250c-0.2,1.5-1.6,2.5-3.1,2.3s-2.5-1.6-2.3-3.1s1.6-2.5,3.1-2.3
						C346.8,247.1,347.9,248.5,347.7,250z"/>
					<path id="Fill-262" class="st23" d="M347.5,107.7c0,0.6,0.2,1.2,0,1.7c-0.2,1.3-1.3,2.2-2.7,2.3c-0.6,0-0.8,0.3-1,0.8
						c-0.3,0.6-0.6,1.2-1,1.8c-0.2,0.3-0.3,0.6,0,0.9c0.6,1.1,0.6,2.2-0.1,3.3c-0.7,1-1.7,1.4-3,1.2c-0.9-0.1-1.6-0.7-2.1-1.5
						c-0.2-0.4-0.4-0.4-0.8-0.3c-0.7,0.1-1.5,0.1-2.2,0.1c-0.5,0-0.7,0-1,0.5c-1.2,1.9-3.7,2.1-5,0.3c-0.8-1-0.8-2.1-0.2-3.2
						c0.2-0.4,0.1-0.6-0.1-0.9c-0.4-0.6-0.8-1.3-1.2-2c-0.2-0.3-0.4-0.5-0.8-0.5c-1.9,0-3.2-1.5-3-3.4c0.2-1.5,1.4-2.5,3-2.6
						c0.4,0,0.5-0.1,0.7-0.5c0.3-0.7,0.7-1.4,1.2-2.1c0.2-0.3,0.2-0.5,0.1-0.8c-0.7-1.4-0.6-2.7,0.4-3.7c1.4-1.4,3.6-1.1,4.6,0.5
						c0.3,0.4,0.5,0.5,1,0.5c0.9-0.1,1.8-0.1,2.8-0.1c0.4-0.7,0.9-1.4,1.7-1.7c1.3-0.5,2.4-0.1,3.4,0.7c0.2,0.4,0.4,0.7,0.6,1.1
						c0.2,1,0.1,1.9-0.4,2.7c-0.1,0.1,0,0.3,0.1,0.5c0.4,0.8,0.9,1.5,1.3,2.2c0.1,0.2,0.3,0.3,0.4,0.3c1,0,1.8,0.3,2.6,1
						C347.1,107.1,347.3,107.4,347.5,107.7"/>
					<path id="Stroke-264" class="st25" d="M347.5,107.7c0,0.6,0.2,1.2,0,1.7c-0.2,1.3-1.3,2.2-2.7,2.3c-0.6,0-0.8,0.3-1,0.8
						c-0.3,0.6-0.6,1.2-1,1.8c-0.2,0.3-0.3,0.6,0,0.9c0.6,1.1,0.6,2.2-0.1,3.3c-0.7,1-1.7,1.4-3,1.2c-0.9-0.1-1.6-0.7-2.1-1.5
						c-0.2-0.4-0.4-0.4-0.8-0.3c-0.7,0.1-1.5,0.1-2.2,0.1c-0.5,0-0.7,0-1,0.5c-1.2,1.9-3.7,2.1-5,0.3c-0.8-1-0.8-2.1-0.2-3.2
						c0.2-0.4,0.1-0.6-0.1-0.9c-0.4-0.6-0.8-1.3-1.2-2c-0.2-0.3-0.4-0.5-0.8-0.5c-1.9,0-3.2-1.5-3-3.4c0.2-1.5,1.4-2.5,3-2.6
						c0.4,0,0.5-0.1,0.7-0.5c0.3-0.7,0.7-1.4,1.2-2.1c0.2-0.3,0.2-0.5,0.1-0.8c-0.7-1.4-0.6-2.7,0.4-3.7c1.4-1.4,3.6-1.1,4.6,0.5
						c0.3,0.4,0.5,0.5,1,0.5c0.9-0.1,1.8-0.1,2.8-0.1c0.4-0.7,0.9-1.4,1.7-1.7c1.3-0.5,2.4-0.1,3.4,0.7c0.2,0.4,0.4,0.7,0.6,1.1
						c0.2,1,0.1,1.9-0.4,2.7c-0.1,0.1,0,0.3,0.1,0.5c0.4,0.8,0.9,1.5,1.3,2.2c0.1,0.2,0.3,0.3,0.4,0.3c1,0,1.8,0.3,2.6,1
						C347.1,107.1,347.3,107.4,347.5,107.7z"/>
					<path id="Fill-266" class="st4" d="M336.6,110.7c1-0.6,1.3-1.9,0.7-2.9c-0.6-0.9-1.9-1.3-2.9-0.7c-1,0.6-1.3,1.9-0.7,2.8
						C334.3,111,335.6,111.3,336.6,110.7 M337.6,112.4c-1.9,1.1-4.3,0.6-5.5-1.3s-0.5-4.4,1.4-5.5s4.4-0.5,5.5,1.4
						C340.1,108.7,339.5,111.2,337.6,112.4"/>
					<path id="Stroke-268" class="st25" d="M336.6,110.7c1-0.6,1.3-1.9,0.7-2.9c-0.6-0.9-1.9-1.3-2.9-0.7c-1,0.6-1.3,1.9-0.7,2.8
						C334.3,111,335.6,111.3,336.6,110.7z M337.6,112.4c-1.9,1.1-4.3,0.6-5.5-1.3s-0.5-4.4,1.4-5.5s4.4-0.5,5.5,1.4
						C340.1,108.7,339.5,111.2,337.6,112.4z"/>
					<path id="Fill-270" class="st26" d="M309.4,122.2c0,6.8-5.5,12.3-12.3,12.3H117.5c-6.8,0-12.3-5.5-12.3-12.3v-109
						c0-6.8,5.5-12.3,12.3-12.3h179.6c6.8,0,12.3,5.5,12.3,12.3V122.2z"/>
					<path id="Stroke-272" class="st5" d="M309.4,122.2c0,6.8-5.5,12.3-12.3,12.3H117.5c-6.8,0-12.3-5.5-12.3-12.3v-109
						c0-6.8,5.5-12.3,12.3-12.3h179.6c6.8,0,12.3,5.5,12.3,12.3V122.2z"/>
					<polygon id="Fill-274" class="st27" points="117.6,111.3 298.8,111.3 298.8,11.9 117.6,11.9 					"/>
					<polygon id="Stroke-276" class="st5" points="117.6,111.3 298.8,111.3 298.8,11.9 117.6,11.9 					"/>
					<path id="Fill-277" class="st26" d="M105.2,117.8v4.3c0,6.8,5.5,12.3,12.3,12.3h86.7v13c-18.9,0.5-33.8,7.9-33.8,16.8
						c0,0,4.9,5.5,35.2,5.5c30.9,0,36.9-5.5,36.9-5.5c0-9-15-16.3-33.8-16.8v-13h88.4c6.8,0,12.3-5.5,12.3-12.3v-4.3H105.2z"/>
					<path id="Stroke-278" class="st5" d="M105.2,117.8v4.3c0,6.8,5.5,12.3,12.3,12.3h86.7v13c-18.9,0.5-33.8,7.9-33.8,16.8
						c0,0,4.9,5.5,35.2,5.5c30.9,0,36.9-5.5,36.9-5.5c0-9-15-16.3-33.8-16.8v-13h88.4c6.8,0,12.3-5.5,12.3-12.3v-4.3H105.2z"/>
					<path id="Fill-279" class="st26" d="M211.1,126c0,2.5-2,4.5-4.5,4.5s-4.5-2-4.5-4.5s2-4.5,4.5-4.5
						C209.1,121.6,211.1,123.6,211.1,126"/>
					<path id="Stroke-280" class="st10" d="M211.1,126c0,2.5-2,4.5-4.5,4.5s-4.5-2-4.5-4.5s2-4.5,4.5-4.5
						C209.1,121.6,211.1,123.6,211.1,126z"/>
					<polygon id="Fill-281" class="st26" points="204.2,147.4 208.7,147.4 208.7,134.5 204.2,134.5 					"/>
					<polygon id="Stroke-282" class="st5" points="204.2,147.4 208.7,147.4 208.7,134.5 204.2,134.5 					"/>
					<path id="Fill-283" class="st9" d="M242.1,161.8c-7.9,3.4-21.8,5.5-35.7,5.5s-26.9-1.5-35.7-5.5l-0.4,2.4c0,0,7.5,5.5,36.2,5.5
						s34.6-5,35.9-5.5C242.2,163.3,242.1,161.8,242.1,161.8"/>
					<path id="Stroke-284" class="st5" d="M242.1,161.8c-7.9,3.4-21.8,5.5-35.7,5.5s-26.9-1.5-35.7-5.5l-0.4,2.4
						c0,0,7.5,5.5,36.2,5.5s34.6-5,35.9-5.5C242.2,163.3,242.1,161.8,242.1,161.8z"/>
					<polygon id="Fill-285" class="st4" points="116.6,111.6 298,111.6 298,11.7 116.6,11.7 					"/>
					<polygon id="Stroke-286" class="st28" points="116.6,111.6 298,111.6 298,11.7 116.6,11.7 					"/>
					<path id="Fill-287" class="st8" d="M298,86.9c-6.7,2.9-16.7,3.9-27.3,3.4c-14.1-0.7-34-3.4-56.4-3.4c-13.7,0-31.4,4.4-47.8,4.4
						c-13.1,0-44.5-6.3-49.8-2.4V11.7H298V86.9z"/>
					<path id="Fill-288" class="st4" d="M172.5,82.4c-1.7,0-4.1-0.4-5.1-1.4c-1.4-1.5-2.5-6-1.7-8c0.8-1.8,4.6-4.1,6.8-4.1
						c0.1,0,0.2,0,0.3,0c2,0.2,5.9,3.4,6.1,5.5c0.1,1-0.2,2.6-0.9,4.2c-0.3,0.8-1.3,2.7-2.5,3.3C174.9,82.3,173.8,82.4,172.5,82.4"
						/>
					<path id="Fill-289" class="st29" d="M172.2,73.7C172.2,73.7,172.2,73.8,172.2,73.7l-0.1,2.2c0,0,0,0.1,0.1,0.1h0.1
						c0,0,0.1,0,0.1-0.1v-2.2c0,0,0-0.1-0.1-0.1L172.2,73.7L172.2,73.7z M172.3,76.3h-0.1c-0.2,0-0.3-0.1-0.3-0.3v-2.2
						c0-0.2,0.1-0.3,0.3-0.3h0.1c0.2,0,0.3,0.1,0.3,0.3V76C172.7,76.1,172.5,76.3,172.3,76.3L172.3,76.3z"/>
					<path id="Fill-290" class="st29" d="M172.3,76.7L172.3,76.7c-0.1,0-0.2,0.1-0.2,0.3c0,0.1,0.1,0.3,0.2,0.3h0.1
						c0-0.1,0-0.2,0-0.3c0-0.1,0-0.2,0-0.3C172.4,76.7,172.4,76.7,172.3,76.7 M172.6,77.6c-0.1,0-0.3,0-0.3-0.1
						c-0.2-0.1-0.4-0.3-0.4-0.5c-0.1-0.3,0.1-0.5,0.4-0.6c0.2,0,0.3,0,0.4,0.2c0.1,0.1,0.1,0.4,0.1,0.5s0,0.1,0,0.2c0,0,0,0.1,0,0.2
						C172.8,77.5,172.7,77.6,172.6,77.6"/>
					<path id="Fill-291" class="st29" d="M174.7,78.1c-0.6,0-1.1-0.2-1.6-0.5c0,0-0.1-0.1,0-0.2s0.2,0,0.2,0
						c0.4,0.3,0.9,0.5,1.4,0.5s0.8-0.1,1.1-0.4s0.4-0.5,0.4-0.9c0-0.3-0.1-0.5-0.2-0.7c-0.1-0.2-0.3-0.3-0.6-0.4l-0.6-0.2l0,0
						c-0.1,0-0.2-0.1-0.3-0.1s-0.1-0.1-0.2-0.1c-0.1-0.1-0.2-0.1-0.2-0.2s-0.1-0.2-0.1-0.3c0-0.2,0.1-0.4,0.2-0.5
						c0.1-0.1,0.3-0.1,0.6-0.1s0.6,0.1,0.9,0.3c0,0,0,0,0.1,0l0,0L176,74c0,0,0,0,0-0.1c0,0,0,0,0-0.1c-0.3-0.3-0.7-0.4-1.2-0.4
						c-0.4,0-0.8,0.1-1,0.3c-0.3,0.2-0.4,0.5-0.4,0.8s0.1,0.5,0.2,0.7c0.2,0.2,0.4,0.3,0.6,0.4l0.6,0.3l0,0c0.2,0.1,0.4,0.2,0.5,0.3
						c0.1,0.1,0.2,0.2,0.2,0.4c0,0.2-0.1,0.4-0.2,0.5c-0.1,0.1-0.3,0.2-0.6,0.2c0,0-0.1,0-0.1-0.2c0-0.1,0.1-0.1,0.1-0.1
						c0.2,0,0.3,0,0.4-0.1c0.1-0.1,0.1-0.2,0.1-0.3c0-0.1-0.1-0.2-0.1-0.2c-0.1-0.1-0.2-0.1-0.5-0.2l0,0L174,76
						c-0.3-0.1-0.5-0.3-0.7-0.5S173,75,173,74.7c0-0.4,0.2-0.8,0.5-1c0.3-0.3,0.7-0.4,1.2-0.4s0.9,0.2,1.3,0.5
						c0.1,0.1,0.1,0.1,0.1,0.2s0,0.2-0.1,0.3l-0.2,0.2c-0.1,0.1-0.1,0.1-0.2,0.1c-0.1,0-0.2,0-0.3-0.1c-0.2-0.1-0.4-0.2-0.7-0.2
						c-0.2,0-0.3,0-0.4,0.1c-0.1,0.1-0.1,0.1-0.1,0.2s0,0.1,0,0.1l0.1,0.1c0.1,0,0.1,0.1,0.2,0.1c0,0,0.1,0.1,0.2,0.1c0,0,0,0,0.1,0
						l0.6,0.2c0.3,0.1,0.6,0.3,0.7,0.5c0.2,0.2,0.3,0.5,0.3,0.8c0,0.4-0.2,0.8-0.5,1.1C175.7,78,175.3,78.1,174.7,78.1"/>
					<path id="Fill-292" class="st29" d="M171.5,77.4c0-0.1-0.1-0.1-0.1-0.1h-0.1l0,0c-0.3,0.3-0.7,0.5-1.2,0.5
						c-0.3,0-0.5,0-0.7-0.1s-0.4-0.2-0.6-0.4c-0.2-0.2-0.3-0.4-0.4-0.7c-0.1-0.3-0.2-0.6-0.2-0.9s0.1-0.6,0.2-0.9
						c0.1-0.3,0.2-0.5,0.4-0.7s0.4-0.3,0.6-0.4c0.2-0.1,0.5-0.1,0.7-0.1c0.4,0,0.7,0.1,1,0.4l0,0h0.1c0.1,0,0.1-0.1,0.1-0.1
						s0-0.1-0.1-0.1c-0.4-0.3-0.8-0.4-1.2-0.4c-0.3,0-0.6,0.1-0.8,0.2c-0.3,0.1-0.5,0.3-0.7,0.5s-0.4,0.5-0.5,0.8s-0.2,0.6-0.2,1
						s0.1,0.7,0.2,1c0.1,0.3,0.3,0.6,0.5,0.8c0.2,0.2,0.4,0.4,0.7,0.5s0.5,0.2,0.8,0.2c0.5,0,1-0.2,1.4-0.5l0,0
						C171.5,77.5,171.5,77.5,171.5,77.4"/>
					<path id="Fill-293" class="st4" d="M182.9,76c0-1.7,0.4-4.1,1.4-5.1c1.5-1.4,6.1-2.6,8-1.7c1.8,0.8,4.1,4.6,4.1,6.9
						c0,0.1,0,0.2,0,0.3c-0.2,2.1-3.4,5.9-5.5,6.1c-1,0.1-2.6-0.2-4.2-0.9c-0.8-0.3-2.7-1.3-3.3-2.5C183.1,78.4,182.9,77.2,182.9,76
						"/>
					<path id="Fill-294" class="st29" d="M188.6,76.8c0-0.3,0-0.6,0-1c0-0.3-0.1-0.5-0.2-0.8c-0.1-0.3-0.3-0.6-0.4-0.9
						c0-0.2,0-0.5,0-0.7V73c0-0.1-0.2-0.1-0.2,0v0.6c0,0.2,0,0.5,0,0.7c0,0.3,0.2,0.6,0.4,0.9c0.1,0.3,0.2,0.6,0.2,0.9
						c0,0.5,0,1.1,0,1.6s0,1-0.3,1.4c-0.1,0.2-0.3,0.3-0.5,0.3s-0.3,0-0.5,0s-0.3,0-0.5,0c-0.5-0.1-0.6-0.6-0.7-1
						c-0.1-0.5,0-1,0-1.5c0-0.3,0-0.6,0-0.9s0.1-0.6,0.3-0.9c0.1-0.2,0.2-0.4,0.3-0.6c0-0.2,0-0.3,0-0.5v-1c0-0.1-0.2-0.1-0.2,0v0.6
						c0,0.2,0,0.5,0,0.7c-0.1,0.3-0.3,0.6-0.4,0.9c-0.1,0.3-0.1,0.6-0.2,0.9c0,0.5,0,1.1,0,1.6s0,1,0.3,1.4c0.1,0.2,0.3,0.3,0.5,0.4
						c0.3,0.1,0.6,0.1,0.8,0.1c0.3,0,0.5,0,0.8-0.1c0.2-0.1,0.3-0.3,0.4-0.5c0.2-0.5,0.2-1,0.2-1.5C188.6,77.3,188.6,77,188.6,76.8"
						/>
					<path id="Fill-295" class="st29" d="M186.5,72.1c0-0.2,0.2-0.1,0.3-0.1h0.5h0.3c0.1,0,0.1,0.1,0.1,0.1l-0.7,0.4h0h-0.3
						C186.4,72.5,186.5,72.3,186.5,72.1 M186.5,72.7c0.1,0.1,0.3,0,0.5,0h0.6c0.2,0,0.4-0.1,0.4-0.3l0,0c0-0.2,0-0.4-0.2-0.5
						c-0.1-0.1-0.3,0-0.5,0h-0.6c-0.2,0-0.4,0.1-0.4,0.4C186.2,72.4,186.3,72.6,186.5,72.7"/>
					<path id="Fill-296" class="st29" d="M187.6,75.9v0.9c0,0.1,0.2,0.1,0.2,0v-0.9C187.8,75.8,187.6,75.8,187.6,75.9"/>
					<path id="Fill-297" class="st29" d="M187.2,76v1.7c0,0.1,0.2,0.1,0.2,0V76C187.5,75.8,187.2,75.8,187.2,76"/>
					<path id="Fill-298" class="st29" d="M186.8,76v2.5c0,0.1,0.2,0.1,0.2,0V76C187.1,75.8,186.8,75.8,186.8,76"/>
					<path id="Fill-299" class="st29" d="M193.5,76.3L193.5,76.3c-0.1,0.2-0.2,0.4-0.4,0.4v-0.2v-0.3v-0.9l0,0
						c0-0.2,0.1-0.4,0.3-0.5c0.1-0.1,0.1-0.2,0.2-0.2C193.5,75.1,193.5,75.7,193.5,76.3L193.5,76.3z M193.5,78c0,0.1,0,0.2-0.1,0.3
						c-0.1,0.1-0.1,0.2-0.2,0.2c0,0.1-0.1,0.1-0.1,0.2V77c0.2,0,0.3-0.1,0.4-0.2C193.5,77.2,193.5,77.6,193.5,78L193.5,78z
						 M193,74.8c-0.1,0.1-0.1,0.1-0.2,0.1c-0.1,0-0.1,0-0.2,0h-0.1h-1c0.2-0.3,0.4-0.5,0.6-0.8c0.4,0,0.8,0,1.1,0c0.1,0,0.1,0,0.2,0
						l0,0c0,0,0,0,0.1,0c-0.1,0.1-0.2,0.3-0.3,0.4c0,0,0,0,0,0.1C193.1,74.7,193,74.7,193,74.8L193,74.8z M192.8,75.3
						c0,0.3,0,0.6,0,0.9v0.4v0.2c-0.1,0-0.2,0-0.3,0c-0.2,0-0.3,0-0.5,0c0.2-0.1,0.2-0.3,0-0.5s-0.5,0-0.8,0.1V75h0.1h1h0.1
						c0.1,0,0.2,0,0.3,0l0,0C192.8,75.1,192.8,75.2,192.8,75.3L192.8,75.3z M191.5,76.7c0.1-0.1,0.2-0.2,0.4-0.2
						c0.1,0,0.1,0,0.1,0.1l-0.1,0.1C191.7,76.7,191.6,76.7,191.5,76.7L191.5,76.7z M192.8,79c0,0.1-0.3,0.1-0.3,0.1h-0.7h-0.5v-1.6
						l0.1,0.1c0.1,0.1,0.2,0.2,0.3,0.3c0.1,0.1,0.3,0.2,0.4,0.4c0,0.2,0.3,0.1,0.2-0.1c-0.1-0.3-0.5-0.5-0.7-0.7
						c-0.1-0.1-0.2-0.3-0.3-0.5c0.4,0,0.9,0.1,1.3,0h0.1L192.8,79L192.8,79z M191.1,74.9h-1.2c0.1-0.2,0.2-0.3,0.3-0.5
						s0.2-0.3,0.4-0.3c0.4,0,0.7,0,1.1,0C191.5,74.3,191.3,74.6,191.1,74.9L191.1,74.9L191.1,74.9z M191,75.5v1.2
						c-0.2,0-0.5-0.1-0.7,0c-0.2,0-0.4,0-0.6,0V76v-0.6c0,0,0-0.3,0.1-0.3h1.2V75.5z M190.3,76.9c0-0.1,0.3-0.1,0.5-0.1
						c-0.1,0.1-0.2,0.1-0.3,0.1C190.5,77,190.3,77,190.3,76.9L190.3,76.9z M191,78.5V79h-0.8h-0.4c-0.1,0-0.1-0.1-0.1-0.2v-1.3v-0.7
						c0.1,0,0.2,0,0.3,0l0,0l0,0c0,0,0,0,0,0.1c0,0.2,0.2,0.2,0.4,0.2s0.3,0,0.5-0.1c0,0.1-0.1,0.2-0.1,0.3
						c-0.1,0.3-0.2,0.6-0.2,0.9c0,0.2,0.3,0.2,0.3,0c0-0.3,0.1-0.5,0.2-0.8L191,78.5L191,78.5z M193.7,74.1L193.7,74.1
						c-0.1-0.2-0.2-0.3-0.4-0.3c-0.4,0-0.8,0-1.2,0c-0.1,0-0.1,0-0.2,0c0,0,0,0-0.1,0c-0.4,0-0.8,0-1.2,0c-0.1,0-0.3,0-0.4,0.1
						c-0.2,0.1-0.4,0.4-0.5,0.6c-0.1,0.1-0.2,0.3-0.3,0.4l0,0c-0.1,0.1-0.1,0.3-0.1,0.5v1.4v1.6c0,0.3-0.1,0.7,0.2,0.8
						c0.1,0,0.2,0,0.3,0h0.7h1.6c0.2,0,0.6,0,0.7-0.2l0,0c0.1-0.2,0.3-0.3,0.4-0.5c0.1-0.1,0.1-0.2,0.2-0.2c0.1-0.1,0.1-0.3,0.1-0.4
						C193.7,76.7,193.7,75.4,193.7,74.1L193.7,74.1z"/>
					<path id="Fill-300" class="st4" d="M208,69c1.8,0.3,4.1,1,5,2.2c1.2,1.7,1.7,6.6,0.6,8.5c-1.1,1.7-5.4,3.6-7.6,3.2
						c-0.1,0-0.2,0-0.3-0.1c-2.1-0.5-5.5-4.4-5.5-6.6c0-1.1,0.6-2.6,1.5-4.2c0.5-0.8,1.7-2.6,3.1-3.1C205.5,68.8,206.7,68.8,208,69"
						/>
					<path id="Fill-301" class="st29" d="M210.7,77.3C210.7,77.3,210.8,77.2,210.7,77.3c0.1-0.1,0.1-0.2,0.1-0.2
						c-0.1-0.1-0.2-0.2-0.3-0.3h-0.1v0.1C210.3,77,210.6,77.3,210.7,77.3L210.7,77.3z M209,78c0.1,0.2,0.1,0.3,0.2,0.4h0.1l0.1-0.1
						c0-0.1-0.1-0.3-0.2-0.4c0,0-0.1-0.1-0.1,0C209.1,77.9,209.1,77.9,209,78L209,78z M209.4,73C209.4,73,209.4,72.9,209.4,73
						c-0.2-0.1-0.2-0.1-0.2,0s-0.1,0.2-0.1,0.3c0,0.1,0,0.1,0.1,0.1s0.1,0,0.2-0.1c0-0.1,0.1-0.2,0.1-0.3
						C209.4,73.1,209.4,73.1,209.4,73L209.4,73z M210.4,74.5L210.4,74.5c0.2-0.1,0.3-0.2,0.4-0.3v-0.1h-0.1
						c-0.1,0.1-0.2,0.2-0.3,0.2C210.3,74.4,210.3,74.4,210.4,74.5C210.3,74.5,210.3,74.5,210.4,74.5L210.4,74.5z M210.3,77.7
						C210.4,77.7,210.4,77.7,210.3,77.7c0.1-0.1,0.1-0.2,0.1-0.2c-0.1-0.1-0.2-0.2-0.3-0.3c-0.1-0.1-0.1-0.1-0.2,0c0,0,0,0.1,0,0.2
						C210.1,77.5,210.1,77.6,210.3,77.7L210.3,77.7L210.3,77.7z M211,75.3c-0.1,0-0.2,0-0.4,0.1c-0.1,0-0.1,0.1-0.1,0.1
						c0,0.1,0.1,0.1,0.1,0.1c0.1,0,0.3,0,0.4-0.1c0.1,0,0.1-0.1,0.1-0.1C211.2,75.3,211.1,75.2,211,75.3L211,75.3z M208.7,73.3
						C208.7,73.3,208.8,73.3,208.7,73.3c0.1-0.2,0.1-0.3,0.2-0.5c0-0.1,0-0.1-0.1-0.1s-0.1,0-0.1,0.1s-0.1,0.3-0.1,0.4
						C208.5,73.3,208.6,73.3,208.7,73.3L208.7,73.3z M210,74.1C210.1,74.1,210.1,74.1,210,74.1c0.2-0.1,0.3-0.2,0.4-0.3v-0.1
						c0,0-0.1-0.1-0.1,0C210.2,73.8,210.1,73.9,210,74.1C209.9,74,209.9,74,210,74.1L210,74.1L210,74.1z M211,76.1
						c0.1,0,0.1,0,0.1-0.1s0-0.1-0.1-0.1s-0.3,0-0.4-0.1c-0.1,0-0.1,0-0.1,0.1s0,0.1,0.1,0.1C210.8,76,210.9,76,211,76.1L211,76.1z
						 M208.5,78.1c0,0.2,0.1,0.3,0.1,0.5c0,0,0.1,0.1,0.1,0l0.1-0.1c0-0.1-0.1-0.3-0.1-0.4l-0.1-0.1C208.6,78,208.6,78.1,208.5,78.1
						L208.5,78.1z M209.5,77.7C209.5,77.7,209.5,77.8,209.5,77.7c0.1,0.2,0.3,0.4,0.4,0.6c0,0,0.1,0,0.2,0c0.1,0,0.1-0.1,0-0.1
						c-0.1-0.2-0.2-0.3-0.4-0.5C209.7,77.6,209.6,77.6,209.5,77.7C209.5,77.6,209.5,77.7,209.5,77.7L209.5,77.7z M210.1,73.1
						L210.1,73.1c-0.1-0.1-0.2-0.1-0.2,0c-0.1,0.2-0.2,0.3-0.3,0.5c0,0.1,0,0.1,0,0.2c0.1,0,0.1,0,0.2,0
						C209.8,73.5,210,73.4,210.1,73.1C210.1,73.2,210.1,73.2,210.1,73.1L210.1,73.1z M210.4,74.9c0,0.1,0.1,0.2,0.2,0.1
						c0.2-0.1,0.4-0.1,0.6-0.2c0.1,0,0.1-0.1,0.1-0.2s-0.1-0.1-0.2-0.1C210.9,74.7,210.7,74.7,210.4,74.9
						C210.5,74.8,210.4,74.9,210.4,74.9L210.4,74.9z M211.1,76.8L211.1,76.8c0.1,0,0.1-0.1,0.1-0.1c0-0.1,0-0.1-0.1-0.1
						c-0.2-0.1-0.4-0.1-0.6-0.2c-0.1,0-0.1,0-0.2,0.1c0,0.1,0,0.1,0.1,0.2C210.7,76.6,210.9,76.7,211.1,76.8L211.1,76.8L211.1,76.8z
						 M208,72.8c0,0.1,0,0.2,0,0.3c0,0.1,0,0.1,0.1,0.1s0.1,0,0.1-0.1v-0.6c0-0.1,0-0.1-0.1-0.1s-0.1,0.1-0.1,0.1
						C208,72.7,208,72.8,208,72.8L208,72.8z M208.3,78.5c0-0.1,0-0.2,0-0.3c0-0.1,0-0.1-0.1-0.1s-0.1,0-0.1,0.1c0,0.2,0,0.4,0,0.6
						c0,0.1,0.1,0.1,0.1,0.1c0.1,0,0.1-0.1,0.1-0.1C208.3,78.7,208.3,78.6,208.3,78.5L208.3,78.5z M208.4,73.7v4
						c0.9-0.1,1.7-0.8,1.7-1.9C210.2,74.6,209.4,73.9,208.4,73.7L208.4,73.7z M207.4,75.7v-3.6c0-0.2,0-0.2,0.2-0.2
						c0.8,0,1.6,0.2,2.3,0.6c1,0.6,1.6,1.4,1.8,2.5c0.1,0.8,0.1,1.5-0.3,2.3c-0.4,0.8-0.9,1.4-1.7,1.7c-0.7,0.3-1.4,0.5-2.2,0.5
						c-0.1,0-0.2-0.1-0.2-0.2L207.4,75.7L207.4,75.7z"/>
					<path id="Fill-302" class="st29" d="M205.3,73h-0.8c0.1-0.2,0.3-0.4,0.4-0.7C205,72.5,205.1,72.7,205.3,73 M205.6,73
						c-0.2-0.4-0.4-0.7-0.6-1.1c-0.1-0.1-0.2-0.1-0.2,0c-0.2,0.4-0.4,0.7-0.6,1.1c0,0.1,0,0.1,0,0.2l0.1,0.1h1.3
						C205.6,73.2,205.7,73.1,205.6,73"/>
					<path id="Fill-303" class="st29" d="M205.1,79.2h-0.5c-0.1,0-0.2-0.1-0.2-0.3v-0.1h1v0.1C205.4,79.1,205.3,79.2,205.1,79.2
						L205.1,79.2z M204.4,78.5h1v-4.6h-1V78.5z M204.1,73.7V79c0,0.3,0.2,0.5,0.5,0.5h0.5c0.3,0,0.5-0.2,0.5-0.5v-5.3H204.1z"/>
					<path id="Fill-304" class="st4" d="M224.3,68.9c1.7,0,4.1,0.4,5.1,1.4c1.4,1.5,2.6,6.1,1.7,8.1c-0.8,1.8-4.6,4.2-6.9,4.2
						c-0.1,0-0.2,0-0.3,0c-2.1-0.2-5.9-3.4-6.2-5.6c-0.1-1,0.2-2.6,0.9-4.2c0.3-0.8,1.3-2.8,2.5-3.4
						C221.9,69.1,223.1,68.9,224.3,68.9"/>
					<path id="Fill-305" class="st29" d="M222.3,74.6c0.1,0,0.2,0,0.2-0.1c0.3-0.3,0.5-0.6,0.8-0.8c0.1-0.1,0-0.1,0-0.2
						c-0.1,0-0.2,0-0.2,0.1c-0.3,0.3-0.5,0.6-0.8,0.8C222.2,74.5,222.2,74.6,222.3,74.6"/>
					<path id="Fill-306" class="st29" d="M222.5,75.2C222.4,75.2,222.5,75.3,222.5,75.2c0.1,0.1,0.2,0.1,0.2,0
						c0.3-0.2,0.5-0.5,0.8-0.7c0.1,0,0-0.1,0-0.1c-0.1,0-0.2,0-0.2,0.1C223,74.7,222.8,75,222.5,75.2"/>
					<path id="Fill-307" class="st29" d="M227.9,78.4c0,0.1-0.1,0.1-0.1,0.1c-0.1,0-0.1,0-0.1-0.1s0-0.1,0.1-0.1
						S227.9,78.4,227.9,78.4"/>
					<path id="Fill-308" class="st29" d="M228.6,78.7H227c0,0-0.1,0-0.1-0.1v-0.4h1.7L228.6,78.7C228.7,78.6,228.6,78.7,228.6,78.7
						L228.6,78.7z M227,78.1h1.7v-2.3H227V78.1z M227,75.3h1.5c0,0,0.1,0,0.1,0.1v0.2H227V75.3C227,75.4,227,75.3,227,75.3L227,75.3
						z M228.6,75.1H227c-0.2,0-0.3,0.1-0.3,0.3v3.2c0,0.2,0.1,0.3,0.3,0.3h1.5c0.2,0,0.3-0.1,0.3-0.3v-3.2
						C228.9,75.3,228.8,75.1,228.6,75.1L228.6,75.1z"/>
					<path id="Fill-309" class="st29" d="M225.5,78.5h-1v-1h2v-0.2H222c-0.4,0-0.7-0.2-0.8-0.5h5.3v-0.2h-5.4v-0.1v-2.9
						c0-0.5,0.4-0.9,0.9-0.9h4.8c0.5,0,0.9,0.4,0.9,0.9v1.3h0.2v-1.3c0-0.6-0.5-1.1-1.1-1.1H222c-0.6,0-1.1,0.5-1.1,1.1v2.9
						c0,0.6,0.5,1.1,1.1,1.1h2.3v1h-1c-0.1,0-0.2,0.1-0.2,0.2s0.1,0.2,0.2,0.2h2.3c0.1,0,0.2-0.1,0.2-0.2
						C225.7,78.6,225.6,78.5,225.5,78.5"/>
					<path id="Fill-310" class="st4" d="M245.9,70c1.4,1,3.1,2.7,3.3,4.1c0.3,2-1.5,6.4-3.4,7.5c-1.7,1-6.2,0.6-8-0.7
						c-0.1-0.1-0.2-0.1-0.2-0.2c-1.5-1.4-2.8-6.2-1.7-8.1c0.5-0.9,1.7-2,3.2-2.9c0.8-0.5,2.6-1.5,4-1.2
						C243.8,68.8,244.8,69.3,245.9,70"/>
					<path id="Fill-311" class="st29" d="M241.4,72.3c-0.3,0-0.6,0-0.9,0.1c-1.2,0.3-2.8,1.5-2.8,3c0,1.2,0.5,2.7,1.9,3
						c0.6,0.1,1.1,0.2,1.3,0.2h0.1c2.5,0,2.6-1.4,2.7-2c0-0.1,0-0.1,0-0.1c0.1-0.8-0.7-1.4-1.2-1.7c-0.1-0.1-0.1-0.1-0.2-0.1
						c-0.4-0.3-0.4-0.9-0.2-1.7c0-0.1,0.1-0.4,0-0.5C241.9,72.3,241.7,72.3,241.4,72.3 M240.9,78.9L240.9,78.9L240.9,78.9
						c-0.3,0-0.9,0-1.4-0.2c-1.3-0.3-2.2-1.6-2.2-3.3c0-1.7,1.8-3,3-3.3c1-0.2,1.6-0.2,1.9,0.2c0.1,0.2,0.2,0.5,0.1,0.8
						c-0.2,0.6-0.2,1.2,0.1,1.3c0,0,0.1,0.1,0.2,0.1c0.5,0.3,1.4,1,1.3,2v0.1C243.9,77.2,243.8,78.9,240.9,78.9"/>
					<path id="Fill-312" class="st29" d="M240.7,73.1c-0.1,0-0.1,0-0.2,0c-0.1,0-0.2,0.1-0.3,0.2c0,0.1-0.1,0.2,0,0.3
						c0.1,0.1,0.2,0.2,0.4,0.2c0.1,0,0.1,0,0.2,0c0.1,0,0.2-0.1,0.3-0.2c0-0.1,0.1-0.2,0-0.3C241,73.2,240.8,73.1,240.7,73.1
						 M240.5,74.2c-0.3,0-0.6-0.2-0.7-0.4c-0.1-0.2-0.1-0.4,0-0.6s0.2-0.3,0.4-0.4c0.1,0,0.2-0.1,0.3-0.1c0.3,0,0.6,0.2,0.7,0.4
						c0.1,0.2,0.1,0.4,0,0.6s-0.2,0.3-0.4,0.4C240.8,74.2,240.6,74.2,240.5,74.2"/>
					<path id="Fill-313" class="st29" d="M239.1,74.8c-0.2,0-0.3,0.1-0.4,0.2c0,0.1,0,0.2,0,0.3c0.1,0.1,0.2,0.2,0.3,0.2
						c0.2,0.1,0.5,0,0.6-0.2c0-0.1,0-0.2,0-0.3c-0.1-0.1-0.2-0.2-0.3-0.2C239.2,74.8,239.1,74.8,239.1,74.8 M239.2,75.8
						c-0.1,0-0.2,0-0.3,0c-0.2-0.1-0.4-0.2-0.5-0.4c-0.1-0.2-0.1-0.4-0.1-0.6c0.1-0.3,0.4-0.5,0.7-0.5c0.1,0,0.2,0,0.3,0
						c0.2,0.1,0.4,0.2,0.5,0.4c0.1,0.2,0.1,0.4,0.1,0.6C239.8,75.7,239.5,75.8,239.2,75.8"/>
					<path id="Fill-314" class="st29" d="M239.3,76.6L239.3,76.6c-0.2,0-0.3,0.1-0.4,0.1c-0.1,0.1-0.1,0.2-0.1,0.3
						c0,0.2,0.2,0.4,0.5,0.3c0.1,0,0.2-0.1,0.3-0.1c0.1-0.1,0.1-0.2,0.1-0.3C239.7,76.7,239.5,76.6,239.3,76.6 M239.2,77.6
						c-0.4,0-0.8-0.3-0.8-0.7c0-0.2,0.1-0.4,0.2-0.5c0.1-0.1,0.3-0.2,0.5-0.2c0.4,0,0.8,0.3,0.8,0.6c0,0.2-0.1,0.4-0.2,0.5
						C239.7,77.5,239.5,77.6,239.2,77.6C239.3,77.6,239.3,77.6,239.2,77.6"/>
					<path id="Fill-315" class="st29" d="M245.1,74.4H245l-0.1,0.1c-0.1,0.1-0.1,0.3,0,0.4l2.2,2.2c0.3,0.3,0.5,0.5,0.6,0.5l0.1-0.1
						c0-0.1-0.2-0.4-0.4-0.7l-2.1-2.4C245.3,74.4,245.2,74.4,245.1,74.4L245.1,74.4z M247.8,77.6v0.2V77.6z M247.8,77.9
						c-0.3,0-0.7-0.5-0.9-0.6l-2.2-2.2c-0.2-0.3-0.3-0.6,0-0.8l0.1-0.1c0.1-0.1,0.2-0.1,0.4-0.1s0.4,0.1,0.5,0.2l2,2.4
						c0.1,0.1,0.3,0.3,0.4,0.5c0.1,0.1,0.3,0.4,0.1,0.6l-0.1,0.1C248,77.9,247.9,77.9,247.8,77.9L247.8,77.9z"/>
					<path id="Fill-316" class="st29" d="M243.8,73.2c-0.1,0-0.2,0-0.2,0c-0.1,0-0.3,0.1-0.3,0.1v0.1c0,0,0.1,0.1,0.2,0.1
						c0.1,0,0.2,0.1,0.2,0.2c0.1,0.2,0.2,0.3,0.4,0.3c0.1,0,0.3,0,0.3-0.1c0.1-0.1,0.1-0.4-0.1-0.5C244.1,73.2,244,73.2,243.8,73.2
						 M244.1,74.3H244c-0.3,0-0.5-0.2-0.6-0.5c0,0,0,0-0.1-0.1c0,0-0.2-0.1-0.3-0.2s-0.1-0.3,0.1-0.5c0.2-0.2,0.4-0.2,0.5-0.2
						s0.2,0,0.3,0s0.4,0,0.6,0.2c0.4,0.3,0.4,0.7,0.2,1C244.5,74.2,244.3,74.3,244.1,74.3"/>
					<line id="Stroke-317" class="st3" x1="194.8" y1="97.3" x2="219.8" y2="97.3"/>
					<line id="Stroke-318" class="st3" x1="188.5" y1="101.8" x2="226.2" y2="101.8"/>
					<path id="Fill-319" class="st8" d="M322.3,295.7c0,1.7-1.4,3.1-3.1,3.1s-5.9-1.8-5.9-3.1c0-1,4.2-3.1,5.9-3.1
						C320.9,292.6,322.3,294,322.3,295.7"/>
					<path id="Fill-320" class="st8" d="M104.1,295.8c0,1.7-1.4,3.1-3.1,3.1s-5.9-1.8-5.9-3.1c0-1,4.2-3.1,5.9-3.1
						C102.7,292.7,104.1,294.1,104.1,295.8"/>
					<path id="Fill-321" class="st8" d="M59.3,120.5c0-1.7,1.4-3.1,3.1-3.1c1.7,0,5.9,1.8,5.9,3.1c0,1-4.2,3.1-5.9,3.1
						S59.3,122.2,59.3,120.5"/>
					<path id="Fill-322" class="st8" d="M363.7,143.9c1.7,0,3.1,1.4,3.1,3.1c0,1.7-1.8,5.9-3.1,5.9c-1,0-3.1-4.2-3.1-5.9
						C360.7,145.2,362,143.9,363.7,143.9"/>
					<path id="Fill-323" class="st23" d="M269.2,104.4c-0.1-0.3-0.1-0.6-0.2-0.9c-0.2-1.4,0.2-2.6,1.4-3.5c0.5-0.4,1.1-0.8,1.6-1.2
						c-0.5-1.9-0.9-3.8-1.4-5.8c-0.4,0-1-0.1-1.5-0.2c-2.4-0.4-3.7-2.1-3.3-4.5c0.1-0.7,0.2-1.4,0.3-2.1c0.4-2.3,2.1-3.6,4.5-3.2
						c0.6,0.1,1.1,0.2,1.6,0.3c1-1.7,2-3.3,3.1-5.1c-0.3-0.4-0.7-1-1.1-1.5c-1.1-1.6-0.8-3.7,0.7-5c0.8-0.6,1.6-1.2,2.4-1.8
						c1.6-1.1,3.8-0.7,5,0.9c0.4,0.5,0.8,1.1,1.1,1.5c1.9-0.5,3.8-0.9,5.8-1.4c0-0.4,0.1-1,0.2-1.6c0.4-2.3,2.1-3.6,4.4-3.3
						c0.8,0.1,1.6,0.2,2.3,0.4c2.1,0.4,3.4,2.1,3.1,4.2c-0.1,0.6-0.2,1.3-0.3,1.8c1.7,1,3.3,2,5.1,3.1c0.5-0.3,1-0.8,1.6-1.2
						c1.6-1.1,3.8-0.7,4.9,0.8c0.5,0.7,1.1,1.4,1.6,2.1c1.2,1.7,0.9,3.9-0.7,5.2c-0.5,0.4-1,0.8-1.5,1.1c0.5,1.9,0.9,3.7,1.4,5.8
						c0.5,0.1,1.1,0.1,1.8,0.2c2.1,0.4,3.3,2,3.1,4.1c-0.1,1.1-0.3,2.1-0.5,3.2c-0.4,1.6-1.9,2.7-3.6,2.7c-0.8,0-1.6-0.2-2.3-0.3
						c-1,1.7-2,3.3-3,5c0.3,0.5,0.7,1,1.1,1.5c1.2,1.6,0.9,3.8-0.7,5.1c-0.7,0.6-1.5,1.1-2.2,1.6c-1.7,1.1-3.9,0.7-5.1-0.9
						c-0.4-0.5-0.8-1-1.1-1.5c-1.9,0.5-3.7,0.9-5.7,1.4c0,0.4-0.1,0.9-0.2,1.5c-0.4,2.5-2.1,3.8-4.7,3.4c-0.9-0.1-1.7-0.2-2.6-0.5
						c-1.7-0.5-2.8-2-2.7-3.8c0.1-0.7,0.3-1.4,0.4-2.1c-1.8-1.1-3.4-2.1-5.1-3.1c-1.8,1.6-3.8,2.6-6.2,0.9
						C270.8,106.7,270,105.6,269.2,104.4"/>
					<path id="Stroke-324" class="st14" d="M269.2,104.4c-0.1-0.3-0.1-0.6-0.2-0.9c-0.2-1.4,0.2-2.6,1.4-3.5
						c0.5-0.4,1.1-0.8,1.6-1.2c-0.5-1.9-0.9-3.8-1.4-5.8c-0.4,0-1-0.1-1.5-0.2c-2.4-0.4-3.7-2.1-3.3-4.5c0.1-0.7,0.2-1.4,0.3-2.1
						c0.4-2.3,2.1-3.6,4.5-3.2c0.6,0.1,1.1,0.2,1.6,0.3c1-1.7,2-3.3,3.1-5.1c-0.3-0.4-0.7-1-1.1-1.5c-1.1-1.6-0.8-3.7,0.7-5
						c0.8-0.6,1.6-1.2,2.4-1.8c1.6-1.1,3.8-0.7,5,0.9c0.4,0.5,0.8,1.1,1.1,1.5c1.9-0.5,3.8-0.9,5.8-1.4c0-0.4,0.1-1,0.2-1.6
						c0.4-2.3,2.1-3.6,4.4-3.3c0.8,0.1,1.6,0.2,2.3,0.4c2.1,0.4,3.4,2.1,3.1,4.2c-0.1,0.6-0.2,1.3-0.3,1.8c1.7,1,3.3,2,5.1,3.1
						c0.5-0.3,1-0.8,1.6-1.2c1.6-1.1,3.8-0.7,4.9,0.8c0.5,0.7,1.1,1.4,1.6,2.1c1.2,1.7,0.9,3.9-0.7,5.2c-0.5,0.4-1,0.8-1.5,1.1
						c0.5,1.9,0.9,3.7,1.4,5.8c0.5,0.1,1.1,0.1,1.8,0.2c2.1,0.4,3.3,2,3.1,4.1c-0.1,1.1-0.3,2.1-0.5,3.2c-0.4,1.6-1.9,2.7-3.6,2.7
						c-0.8,0-1.6-0.2-2.3-0.3c-1,1.7-2,3.3-3,5c0.3,0.5,0.7,1,1.1,1.5c1.2,1.6,0.9,3.8-0.7,5.1c-0.7,0.6-1.5,1.1-2.2,1.6
						c-1.7,1.1-3.9,0.7-5.1-0.9c-0.4-0.5-0.8-1-1.1-1.5c-1.9,0.5-3.7,0.9-5.7,1.4c0,0.4-0.1,0.9-0.2,1.5c-0.4,2.5-2.1,3.8-4.7,3.4
						c-0.9-0.1-1.7-0.2-2.6-0.5c-1.7-0.5-2.8-2-2.7-3.8c0.1-0.7,0.3-1.4,0.4-2.1c-1.8-1.1-3.4-2.1-5.1-3.1c-1.8,1.6-3.8,2.6-6.2,0.9
						C270.8,106.7,270,105.6,269.2,104.4z"/>
					<path id="Fill-325" class="st8" d="M342.9,81.5c0.1,0.7,0.3,1.5,0.2,2.2c-0.2,1.6-1.4,2.9-3,3.1c-0.7,0.1-1,0.4-1.2,1.1
						c-0.2,0.8-0.6,1.6-1.1,2.3c-0.3,0.5-0.3,0.7,0,1.2c0.9,1.3,1,2.7,0.2,4.1c-0.8,1.3-2,1.9-3.5,1.8c-1.2-0.1-2.1-0.7-2.7-1.6
						c-0.3-0.4-0.6-0.4-1-0.3c-0.9,0.2-1.8,0.3-2.7,0.3c-0.6,0-0.9,0.1-1.1,0.7c-1.2,2.5-4.3,3-6.2,0.9c-1-1.2-1.2-2.6-0.6-4
						c0.2-0.5,0.1-0.7-0.2-1.1c-0.6-0.7-1.2-1.5-1.7-2.3c-0.3-0.4-0.5-0.6-1-0.5c-2.4,0.2-4.2-1.5-4.1-3.8c0-1.8,1.4-3.3,3.4-3.6
						c0.5-0.1,0.6-0.2,0.8-0.7c0.3-0.9,0.8-1.8,1.2-2.7c0.2-0.4,0.2-0.6,0-1c-1.1-1.7-1-3.3,0.1-4.7c1.5-1.8,4.3-1.8,5.8,0.1
						c0.4,0.5,0.7,0.6,1.3,0.4c1.1-0.2,2.2-0.3,3.4-0.4c0.4-0.9,0.9-1.8,1.9-2.3c1.5-0.7,2.9-0.4,4.3,0.5c0.3,0.4,0.6,0.8,0.9,1.3
						c0.3,1.2,0.3,2.3-0.2,3.4c-0.1,0.1,0.1,0.4,0.2,0.6c0.6,0.9,1.3,1.8,1.9,2.6c0.1,0.2,0.4,0.4,0.6,0.4c1.2-0.2,2.3,0.2,3.3,0.9
						C342.3,80.7,342.6,81.1,342.9,81.5"/>
					<path id="Stroke-326" class="st14" d="M342.9,81.5c0.1,0.7,0.3,1.5,0.2,2.2c-0.2,1.6-1.4,2.9-3,3.1c-0.7,0.1-1,0.4-1.2,1.1
						c-0.2,0.8-0.6,1.6-1.1,2.3c-0.3,0.5-0.3,0.7,0,1.2c0.9,1.3,1,2.7,0.2,4.1c-0.8,1.3-2,1.9-3.5,1.8c-1.2-0.1-2.1-0.7-2.7-1.6
						c-0.3-0.4-0.6-0.4-1-0.3c-0.9,0.2-1.8,0.3-2.7,0.3c-0.6,0-0.9,0.1-1.1,0.7c-1.2,2.5-4.3,3-6.2,0.9c-1-1.2-1.2-2.6-0.6-4
						c0.2-0.5,0.1-0.7-0.2-1.1c-0.6-0.7-1.2-1.5-1.7-2.3c-0.3-0.4-0.5-0.6-1-0.5c-2.4,0.2-4.2-1.5-4.1-3.8c0-1.8,1.4-3.3,3.4-3.6
						c0.5-0.1,0.6-0.2,0.8-0.7c0.3-0.9,0.8-1.8,1.2-2.7c0.2-0.4,0.2-0.6,0-1c-1.1-1.7-1-3.3,0.1-4.7c1.5-1.8,4.3-1.8,5.8,0.1
						c0.4,0.5,0.7,0.6,1.3,0.4c1.1-0.2,2.2-0.3,3.4-0.4c0.4-0.9,0.9-1.8,1.9-2.3c1.5-0.7,2.9-0.4,4.3,0.5c0.3,0.4,0.6,0.8,0.9,1.3
						c0.3,1.2,0.3,2.3-0.2,3.4c-0.1,0.1,0.1,0.4,0.2,0.6c0.6,0.9,1.3,1.8,1.9,2.6c0.1,0.2,0.4,0.4,0.6,0.4c1.2-0.2,2.3,0.2,3.3,0.9
						C342.3,80.7,342.6,81.1,342.9,81.5z"/>
					<path id="Fill-327" class="st4" d="M295.3,97.4c3.4-2.5,4.2-7.3,1.7-10.7c-2.5-3.4-7.4-4.1-10.7-1.7c-3.4,2.5-4.1,7.3-1.7,10.7
						C287.1,99.1,291.9,99.9,295.3,97.4 M296.7,99.4c-4.5,3.3-10.8,2.3-14.1-2.2c-3.2-4.5-2.2-10.8,2.2-14.1
						c4.5-3.2,10.8-2.2,14.1,2.2C302.2,89.8,301.2,96.1,296.7,99.4"/>
					<path id="Stroke-328" class="st14" d="M295.3,97.4c3.4-2.5,4.2-7.3,1.7-10.7c-2.5-3.4-7.4-4.1-10.7-1.7
						c-3.4,2.5-4.1,7.3-1.7,10.7C287.1,99.1,291.9,99.9,295.3,97.4z M296.7,99.4c-4.5,3.3-10.8,2.3-14.1-2.2
						c-3.2-4.5-2.2-10.8,2.2-14.1c4.5-3.2,10.8-2.2,14.1,2.2C302.2,89.8,301.2,96.1,296.7,99.4z"/>
					<path id="Fill-329" class="st4" d="M297.7,104.7c-1.6,0.8-3.2,1.3-4.8,1.5c-4.6,0.6-8.6-0.6-12.1-3.6c-0.2-0.2-0.3-0.3-0.5-0.5
						c-0.4-0.5-0.4-1.1,0.1-1.6c0.4-0.4,1-0.5,1.5-0.1c0.4,0.3,0.8,0.6,1.2,0.9c4,2.9,8.3,3.4,12.9,1.5c0.4-0.1,0.8-0.3,1.1-0.2
						c0.4,0.1,0.7,0.6,0.8,0.9C298,104,297.8,104.4,297.7,104.7"/>
					<path id="Stroke-330" class="st14" d="M297.7,104.7c-1.6,0.8-3.2,1.3-4.8,1.5c-4.6,0.6-8.6-0.6-12.1-3.6
						c-0.2-0.2-0.3-0.3-0.5-0.5c-0.4-0.5-0.4-1.1,0.1-1.6c0.4-0.4,1-0.5,1.5-0.1c0.4,0.3,0.8,0.6,1.2,0.9c4,2.9,8.3,3.4,12.9,1.5
						c0.4-0.1,0.8-0.3,1.1-0.2c0.4,0.1,0.7,0.6,0.8,0.9C298,104,297.8,104.4,297.7,104.7z"/>
					<path id="Fill-331" class="st4" d="M303.1,82.3c0.6,1.2,1.3,2.5,1.8,3.8c0.3,0.6-0.1,1.2-0.6,1.5c-0.6,0.3-1.2,0.1-1.5-0.5
						c-0.1-0.2-0.2-0.4-0.3-0.6c-0.6-1-1.1-2.1-1.8-3c-1.7-2.3-4-3.7-6.8-4.4c-0.3-0.1-0.6-0.1-0.8-0.2c-0.8-0.2-1.2-0.8-1-1.5
						s0.8-1.1,1.6-0.8c1.3,0.4,2.7,0.8,3.9,1.3C299.8,78.8,301.6,80.4,303.1,82.3"/>
					<path id="Stroke-332" class="st14" d="M303.1,82.3c0.6,1.2,1.3,2.5,1.8,3.8c0.3,0.6-0.1,1.2-0.6,1.5c-0.6,0.3-1.2,0.1-1.5-0.5
						c-0.1-0.2-0.2-0.4-0.3-0.6c-0.6-1-1.1-2.1-1.8-3c-1.7-2.3-4-3.7-6.8-4.4c-0.3-0.1-0.6-0.1-0.8-0.2c-0.8-0.2-1.2-0.8-1-1.5
						s0.8-1.1,1.6-0.8c1.3,0.4,2.7,0.8,3.9,1.3C299.8,78.8,301.6,80.4,303.1,82.3z"/>
					<path id="Fill-333" class="st4" d="M329.6,86.5c1.2-0.9,1.5-2.5,0.6-3.6c-0.8-1.1-2.5-1.4-3.6-0.5c-1.1,0.8-1.4,2.4-0.6,3.6
						C326.9,87,328.4,87.3,329.6,86.5 M331.1,88.4c-2.2,1.6-5.3,1.2-6.9-1.1c-1.6-2.2-1.2-5.4,1.1-7c2.2-1.6,5.4-1.1,7,1.1
						C333.8,83.6,333.3,86.8,331.1,88.4"/>
					<path id="Stroke-334" class="st14" d="M329.6,86.5c1.2-0.9,1.5-2.5,0.6-3.6c-0.8-1.1-2.5-1.4-3.6-0.5c-1.1,0.8-1.4,2.4-0.6,3.6
						C326.9,87,328.4,87.3,329.6,86.5z M331.1,88.4c-2.2,1.6-5.3,1.2-6.9-1.1c-1.6-2.2-1.2-5.4,1.1-7c2.2-1.6,5.4-1.1,7,1.1
						C333.8,83.6,333.3,86.8,331.1,88.4z"/>
					<path id="Fill-335" class="st12" d="M5.2,268.3c0,0-4.7-34.1,0.8-38.6c5.5-4.6,7.8-6.4,7.8-6.4s8.6,5.2,10.3,9.1
						c1.7,3.9,3.3,9.5,3.9,11.4c0.9,3.1,1.4,7.8,0.9,9.7s-1,4.7-2.6,9.1s-1.3,7.6-1.7,9.2c-0.5,1.6-0.2,18-0.2,18l-17,0.4L5.2,268.3
						z"/>
					<path id="Stroke-336" class="st30" d="M5.2,268.3c0,0-4.7-34.1,0.8-38.6c5.5-4.6,7.8-6.4,7.8-6.4s8.6,5.2,10.3,9.1
						c1.7,3.9,3.3,9.5,3.9,11.4c0.9,3.1,1.4,7.8,0.9,9.7s-1,4.7-2.6,9.1s-1.3,7.6-1.7,9.2c-0.5,1.6-0.2,18-0.2,18l-17,0.4L5.2,268.3
						z"/>
					<g id="Group-339">
						<g transform="translate(13.000000, 212.000000)">
							<path id="Fill-337" class="st12" d="M0.8,31.1c0,0,1.8-8.8,1.5-10.9C2.1,18.1-2.2,1.7,2.7,0.5s8.3,10,8.6,14.1
								c0.4,5.8,1.3,9.8,1.8,11.4"/>
							<path id="Stroke-338" class="st30" d="M0.8,31.1c0,0,1.8-8.8,1.5-10.9C2.1,18.1-2.2,1.7,2.7,0.5s8.3,10,8.6,14.1
								c0.4,5.8,1.3,9.8,1.8,11.4"/>
						</g>
					</g>
					<polygon id="Fill-340" class="st8" points="2.3,283.7 27.3,281.9 28.7,296.5 2.9,296.3 					"/>
					<polygon id="Stroke-341" class="st31" points="2.3,283.7 27.3,281.9 28.7,296.5 2.9,296.3 					"/>
				</g>
			</g>
		</g>
	</g>
</g>
<g>
	<path class="st32" d="M232.6,40.8c3.6,0,6.5-2.9,6.5-6.5s-2.9-6.5-6.5-6.5v26.1c3.6,0,6.5-2.9,6.5-6.5S236.2,40.8,232.6,40.8"/>
	<line class="st32" x1="242.4" y1="27.7" x2="232.6" y2="40.8"/>
	<polyline class="st32" points="242.4,53.8 222.8,53.8 222.8,27.7 242.4,53.8 	"/>
	<line class="st32" x1="232.6" y1="40.8" x2="222.8" y2="40.8"/>
	<g>
		<path class="st32" d="M242.4,50c-5.1,5.1-13.4,5.1-18.5,0s-5.1-13.4,0-18.5"/>
		<path class="st32" d="M223.9,31.5c5.1-5.1,13.4-5.1,18.5,0"/>
	</g>
</g>
</svg>
