<svg xmlns="http://www.w3.org/2000/svg" xmlns:xlink="http://www.w3.org/1999/xlink" width="95" height="96" viewBox="0 0 95 96">
    <defs>
        <path id="a" d="M88.01 15.596c13.562 22.067 6.52 50.879-15.729 64.355-22.249 13.475-51.28 6.51-64.841-15.555C-6.123 42.33.92 13.517 23.169.042L88.01 15.596z"/>
        <path id="c" d="M6.727 66.813c-1.99-2.435-2.864-5.928-4.156-8.666A31.294 31.294 0 0 1 .588 52.72c-.485-1.85.241-5 0-6.916-.328-2.6-.697-5.442-.558-8.105.143-2.754 2.195-5.735 2.861-8.486 1.242-5.133 3.888-9.17 6.59-12.928 2.348-3.27 6.78-6.882 10-9.094 10.8-7.423 23.695-8.388 38.918-3.473 12.21 3.94 20.217 9.252 25.35 17.17 1.763 2.717 2.982 6.06 4.194 9.328a62.33 62.33 0 0 1 1.372 4.15c.845 2.878 2.303 10.779 2.192 14.115-.111 3.335-1.65 6.778-2.446 10.318-.396 1.393-.122 4.019-.655 5.318-.725 1.77-1.584.473-2.553 2.046-1.278 2.077-1.941 5.29-3.592 7.021-.958 1.004-1.917 2.54-2.995 3.41-11.93 9.625-30.88 10.496-47.771 5.248-9.253-2.874-18.798-7.723-24.768-15.03z"/>
        <filter id="d" width="134.3%" height="142.1%" x="-17.2%" y="-21.1%" filterUnits="objectBoundingBox">
            <feGaussianBlur in="SourceGraphic" stdDeviation="4.5"/>
        </filter>
    </defs>
    <g fill="none" fill-rule="evenodd">
        <path fill="#A3B87F" d="M12.164 81.316c-2.31-2.135-3.662-5.472-5.321-8.004a31.294 31.294 0 0 1-2.72-5.097c-.737-1.765-.456-4.985-.962-6.848-.687-2.53-1.447-5.292-1.68-7.95-.242-2.746 1.375-5.984 1.652-8.8.515-5.256 2.573-9.621 4.725-13.72 1.872-3.564 5.758-7.758 8.638-10.397 9.662-8.854 22.297-11.604 38.057-8.856 12.64 2.204 21.307 6.349 27.492 13.475 2.124 2.446 3.797 5.586 5.452 8.654a62.33 62.33 0 0 1 1.935 3.919c1.238 2.732 3.782 10.353 4.136 13.672.354 3.319-.69 6.942-.986 10.558-.199 1.434.438 3.997.09 5.358-.47 1.853-1.502.688-2.242 2.381-.977 2.234-1.186 5.51-2.58 7.453-.81 1.127-1.545 2.782-2.492 3.793C74.883 92.1 56.24 95.6 38.783 92.753c-9.564-1.559-19.69-5.032-26.619-11.437z"/>
        <g transform="rotate(-8 52.17 87.473)">
            <mask id="b" fill="#fff">
                <use xlink:href="#a"/>
            </mask>
            <path d="M88.01 15.596c13.562 22.067 6.52 50.879-15.729 64.355-22.249 13.475-51.28 6.51-64.841-15.555C-6.123 42.33.92 13.517 23.169.042 45.418-13.434 74.449-6.47 88.01 15.596" mask="url(#b)"/>
        </g>
        <path d="M31.858-3.68C22.44-2.355 13.538 1.51 5.994 7.664c-22.326 18.21-25.62 51.014-7.343 73.127C7.504 91.5 20.04 98.137 33.947 99.474c13.91 1.338 27.524-2.786 38.34-11.607 10.815-8.822 17.535-21.287 18.922-35.099 1.387-13.811-2.724-27.317-11.578-38.028C70.777 4.028 58.24-2.607 44.334-3.944a53.097 53.097 0 0 0-12.476.265M46.534 99.978c-4.148.583-8.39.68-12.663.27C19.755 98.89 7.03 92.156-1.954 81.284c-18.55-22.444-15.207-55.74 7.453-74.222C16.475-1.89 30.295-6.072 44.411-4.718 58.527-3.361 71.25 3.373 80.236 14.246c8.986 10.87 13.16 24.58 11.752 38.598-1.408 14.019-8.228 26.67-19.205 35.623-7.655 6.243-16.694 10.168-26.249 11.51"/>
        <g transform="rotate(-8 113.147 35.188)">
            <mask id="e" fill="#fff">
                <use xlink:href="#c"/>
            </mask>
            <use fill="#A3B87F" xlink:href="#c"/>
            <path fill="#81965A" d="M83.541 22.5s-2.043 0 1.144 13.363c2.389 10.014-2.602 20.624-6.75 26.624-6.822 9.868-20.932 15.469-33.77 13.969-12.838-1.5-22.751 2.82-29.89-2.622-7.138-5.442 11.691 13.24 37.538 12.767 14.871-.272 25.411-5.638 30.252-11.842 6.21-7.958 13.012-26.667 6.998-38.79C83.048 23.848 83.54 22.5 83.54 22.5" filter="url(#d)" mask="url(#e)"/>
        </g>
        <path fill="#F7CC59" d="M70.577 51.188c1.013-.94 2.652-3.216 4.006-2.127 1.354 1.088 1.274.463 1.606.133.33-.33 2.623-.95 2.166.5-.457 1.451 0 1.499 0 1.499s1.32-1.198 1.993-.542c.67.655.207 1.223.292 2.078.085.855.646-.11.754 1.225.109 1.334-.751 2.204-1.428 2.225-.677.02-1.413 1.774-2.66 1.5-1.248-.275-1.915-.181-2.592-.16-.678.02-1.747.468-1.861-.34-.114-.808.359-1.86.359-1.86s-1.04.756-2.003.366c-.963-.39-1.156-1.487-1.029-2.33.128-.843-.615-1.227.397-2.167M7.195 47.63c1.013-.94 2.652-3.217 4.006-2.128 1.354 1.088 1.274.463 1.606.133.33-.33 2.623-.95 2.166.5-.457 1.451 0 1.5 0 1.5s1.321-1.199 1.993-.543c.67.655.207 1.223.292 2.078.085.855.646-.11.754 1.225.109 1.335-.751 2.204-1.428 2.225-.677.02-1.413 1.774-2.66 1.5-1.248-.275-1.915-.181-2.592-.16-.677.02-1.747.468-1.861-.34-.114-.808.359-1.86.359-1.86s-1.04.756-2.003.366c-.963-.39-1.156-1.487-1.029-2.33.128-.843-.615-1.227.397-2.167"/>
        <path fill="#FEFFF6" d="M40.515 39.16c-.306 7.956-7.05 14.172-15.061 13.884-8.012-.288-14.26-6.971-13.953-14.928.307-7.956 7.05-14.173 15.062-13.885 8.012.289 14.259 6.972 13.952 14.928"/>
        <path fill="#677743" d="M24.28 52.052c-7.09-.74-12.33-7.121-12.055-13.98.316-7.826 7.684-14.142 15.74-12.58 6.804 1.32 11.144 7.15 11.145 13.803-.602 7.487-6.846 13.592-14.83 12.757M40.72 39.32c.003-.015.013-.027.014-.042.027-8.512-6.798-15.488-15.506-15.141-7.747.308-14.363 6.478-14.676 14.271-.34 8.47 6.895 15.464 15.358 15.185 7.983-.262 14.214-6.389 14.82-14.232.002-.016-.008-.026-.01-.04"/>
        <path fill="#677743" d="M27.598 38.243c-.047 1.152-1.159 2.254-2.192 2.215-1.16-.044-2.036-1.246-1.99-2.398.047-1.152 1.301-1.806 2.157-1.774.983.038 2.063.987 2.025 1.957"/>
        <g>
            <path fill="#FEFFF6" d="M76.59 39.38c-.307 7.957-7.05 14.174-15.062 13.886-8.012-.289-14.26-6.972-13.953-14.928.307-7.957 7.05-14.173 15.062-13.885 8.012.288 14.259 6.971 13.952 14.928"/>
            <path fill="#677743" d="M60.517 52.556c-7.09-.74-12.332-7.121-12.056-13.98.316-7.826 7.685-14.142 15.74-12.58 6.804 1.32 11.144 7.15 11.145 13.803-.601 7.487-6.846 13.592-14.829 12.757m16.44-12.733c.002-.015.013-.027.013-.042.028-8.512-6.797-15.488-15.506-15.141-7.746.308-14.363 6.479-14.676 14.271-.34 8.47 6.895 15.464 15.358 15.186 7.983-.263 14.215-6.39 14.821-14.233.002-.016-.009-.026-.01-.04"/>
            <path fill="#677743" d="M64.415 38.36c-.047 1.152-1.159 2.254-2.193 2.215-1.16-.044-2.035-1.246-1.989-2.398.047-1.152 1.3-1.806 2.157-1.773.983.037 2.063.987 2.025 1.956M78.684 43.376c-.294-.024-.501.238-.633.443-.317.497-3.475 3.733-4.884 4.893-1.411 1.162-3.706 2.871-3.745 2.9l-2.53 1.613 2.162-.54c.082-.041 2.014-1.005 2.769-1.538.778-.533 7.505-5.205 7.221-7.484a.442.442 0 0 0-.36-.287"/>
        </g>
        <g fill="#677743">
            <path d="M39.5 93.057c-8.754-1.497-17.651-4.233-24.667-9.834-3.53-2.818-5.574-6.837-7.8-10.675-1.041-1.796-2.039-3.604-2.372-5.666-.355-2.192-.346-4.158-.885-6.327-.622-2.504-1.468-5.126-1.32-7.735.124-2.177 1.044-4.243 1.46-6.366.935-4.773 1.835-8.822 4.056-13.244 2.145-4.27 4.336-8.546 8.017-11.728 4.072-3.52 8.961-5.934 14.127-7.417C46.602 9.33 70.573 13.294 81.62 27.45c4.574 5.86 7.588 13.138 9.609 20.233 1.122 3.942 1.258 7.346.675 11.43-.277 1.935-.607 3.824-.524 5.78.095 2.2.139 2.974-1.186 4.708-2.35 3.077-2.452 7.244-4.69 10.546-2.977 4.393-7.773 7.48-12.588 9.603-10.407 4.589-22.32 5.015-33.417 3.307-.632-.098-2.521 1.115-1.672 1.245 9.634 1.483 19.574 1.34 29-1.338 7.62-2.164 16.34-6.275 20.739-13.149 1.06-1.654 1.985-3.26 2.55-5.14.394-1.31.487-2.929 1.26-4.08.476-.708.958-.712 1.444-1.312.8-.99.928-1.807.913-3.071-.028-2.451-.109-4.602.254-7.065 1.306-8.852-1.39-17.072-5.529-24.903-4.498-8.509-10.33-14.716-19.37-18.462-9.145-3.79-19.667-5.45-29.545-4.53-9.14.85-18.296 4.074-25.276 10.14-3.81 3.31-6.127 7.709-8.358 12.15-2.344 4.666-3.216 9.14-4.33 14.184C.997 50.355.09 52.744.36 55.47c.305 3.104 1.514 6.025 1.862 9.11.32 2.846.543 5.004 1.938 7.62 1.38 2.587 2.93 5.245 4.543 7.697 5.95 9.042 19.041 12.682 29.125 14.406.632.109 2.528-1.098 1.672-1.245"/>
        </g>
        <g>
            <path fill="#B8C999" d="M32.337 6.54l.04.345s-.172.589-1.58 2.061c-1.406 1.473-2.67 2.312-3.596 2.994-.925.682-.049.82-1.041 1.025-.992.205-1.701.312-2.037 1.205-.336.893-.704 2.253-1.3 2.238-.594-.014-.713-.814-.447-1.408.266-.593 1.401-2.348 2.928-3.203 1.526-.855 6.198-5.107 7.033-5.257"/>
            <path fill="#B8C999" d="M52.79 14.224c-.074-.011-.611.03-.418.127 1.068.53 2.313.522 3.5.671 2.577.325 4.745 1.003 7.011 2.064 2.858 1.338 4.644 1.425 7.543 1.367 1.115 1.4 3.314 1.391 5.091 2.185.231.103 1.526.505 1.457-.025-.36-2.76-.206-3.428-.21-6.086-.006-2.966-3.678-4.102-6.313-5.898.095-.507.196-1.013.344-1.52.058-.196-.69-.37-.83-.395-.9-.16-1.792-.285-2.679-.393-.677-1.532-.283-2.662.805-4.058.221-.285-.927-.422-1.122-.428-2.607-.093-4.834.332-7.27.73-1.943.317-4.58.913-6.297-.444-.276-.22.284-.91-.192-1.073-2.652-.914-7.886 1.718-8.638 1.734-3.692.08-7.096.245-9.295 1.41-.821.437-1.971.992-2.032 1.808-1.151.35-7.517 4.794-9.9 7.403-4.485 4.91 1.909 3.58 4.608 2.98.369.183.752.355 1.148.514 1.347.18 2.232.58 3.628.645 1.976.09 3.966-.222 5.825-.543 4.414-.761 8.54-1.964 12.894-2.843 1.777-.358 1.342.068 1.342.068"/>
            <path fill="#677743" d="M66.674 3.096c.167-.08.272-.162.288-.242.027-.136.105-.373.21-.658-.03-.002-.061-.006-.078-.006-2.592-.1-4.814.319-7.242.71-1.935.311-5.074.635-6.78-.73-.273-.219.344-.846-.128-1.011-2.638-.924-7.63 1.514-8.371 1.623-3.76.55-4.366-.399-8.092.718-.225.067-3.65 2.026-3.71 2.842.828.363.622 1.294-2.112 5.123-.32.372-.598.197-.908.57 0 0-.678.712-1.124.91-.445.199-1.098.357-1.098.357s-.056.59.808.497c.864-.093 1.802-1.393 2.588-2.036 1.857-1.52 3.49-4.714 3.535-5.983.033-.908 2.525-1.833 2.525-1.833s4.89-.377 6.875-.469c2.01-.092 7.74-3.275 7.61-.412-.047 1.047 5.783 1.2 7.626 1.304 1.842.104 7.233-1.017 7.233-1.017.017-.478.333.222.345-.257M53.603 8.858c-.091-.024-.243-.064-.264-.073l-.041-.097-.087-.033c-.236-.087-1.396.297-1.805.533-.655.379-1.378.81-2.108 1.246-1.79 1.067-4.194 2.502-4.847 2.64.089-.165.29-.437.487-.7.602-.813.934-1.287.749-1.577-.086-.134-.248-.177-.484-.13-.282.057-2.777 3.317-2.872 3.751-.02.094.01.186.08.247.075.063.186.088.384.06.299-.042.793-.2 1.652-.515l.162-.059c.76-.276 3.767-1.975 5.563-2.99.611-.345 1.14-.643 1.214-.677.468-.086 2.25-.657 2.614-.963.093-.079.14-.164.14-.255-.002-.267-.299-.345-.537-.408M64.297 8.575c-.651 1.95-6.131 4.556-12.469 5.448-.411.058 5.414.649 5.712.496 1.87-.956 7.753-3.835 7.408-5.921-.022-.134-.612-.141-.651-.023M69.393 12.86c-1.226.29-4.4 2.709-5.59 3.102-.562.185.857.923 1.062.88.924-.192 5.066-2.777 5.859-3.814.27-.354-1.004-.246-1.33-.169"/>
            <path fill="#677743" d="M38.445 10.607c.756-1.092.692-2.194.88-3.27.252-1.441.929-2.574 2.627-3.907.255-.2-.335 0-.427.047-3.73 1.865-3.31 5.142-3.385 7.252-.003.066.281-.087.305-.122M45.41 2.89c-.11.727-1.044.992-1.518 1.672-.766 1.103-1.106 2.284-.937 3.46.022.153.654.016.861-.417.625-1.305.5-2.198 1.28-3.344.395-.581.829-.65.928-1.275.005-.027-.112-.038-.13-.037l-.266-.102c-.04-.024-.212.007-.218.042"/>
            <path fill="#677743" d="M74.805 12.356l-3.864-2.89-1.305-.885a1.513 1.513 0 0 0-.697-.893c-1.489-.918-5.39-.956-7.075-1.303-1.685-.346-4.974-.289-7.727-1.127-2.753-.84-5.963.342-5.963.342-2.793 1.993-8.687 5.389-10.153 5.874-1.2.398-2.814.428-2.814.428s-2.212 1.024.246.78c2.457-.245 11.364-4.036 13.92-5.24 2.554-1.205 8.686.594 11.814.528 3.13-.065 6.53 1.126 7.315 3.693.362 1.19 1.595-.145 1.61-.28.494.248 1.846.952 2.22 1.418.457.573.715 2.155.676 3.29-.038 1.132.947 2.514.947 2.514l.163.81s1.908.223 2.164.284c.256.063.1-1.043.1-1.043l-.385-2.741-1.192-3.56z"/>
            <path fill="#677743" d="M77.355 21.257c-.36-2.76-.587-4.072-.592-6.73-.005-2.966-3.676-4.102-6.312-5.898.095-.507.197-1.014.345-1.52.057-.195-.692-.37-.831-.394a48.22 48.22 0 0 0-2.678-.394c-.678-1.531-.284-2.663.804-4.059.22-.284-.927-.42-1.122-.427-2.606-.092-4.834.331-7.27.73-1.944.318-4.58.913-6.296-.445-.277-.218.283-.908-.193-1.072-2.653-.914-7.849.978-8.593 1.09-3.768.57-6.898.37-9.133 1.344-.938.409-2.927 1.807-2.988 2.623-1.151.35-6.512 4.53-9.114 7.052-2.896 2.809-3.266 4.493-1.443 5.142 1.057.377 3.315-1.315 6.014-1.916.368.183.751.355 1.148.515 1.347.178 2.232.58 3.628.644 1.976.09 3.965-.222 5.825-.543 6.215-1.072 12.007-3.08 18.297-3.672 1.417-.133-1.396-.621-2.223-.508-8.018 1.097-17.576 3.843-25.659 2.034-.295-.066-.938.106-1.198.225-2.263 1.035-5.602 1.435-5.113.335 2.04-4.571 2.507-2.033 4.641-4.28.946-.994 3.259-2.707 4.28-3.973.31-.08.622-.202.799-.276-.167.695-.475 1.399-.907 2.108-.009.016-2.95 4.054-3.274 4.004-.16-.024-.71.17-.668.307l.044.146c.013.039.16.018.192.011 1.704-.337 2.766-1.857 3.606-2.744 1.616-1.706 2.948-3.54 3.156-5.343.156-1.35 3.788-1.958 5.223-2.15 1.823-.246 1.226-.05 3.038-.284.67.061 1.47-.118 2.319-.24 1.908-.278 4.712-1.892 6.33-.924.579.347-.167 1.14.771 1.582 2.84 1.334 9.588-.572 13.341-.914-.797 1.191-1.124 2.347-.522 3.637-2.734-.26-5.414-.446-8.235-.89-2.454-.388-4.277-.875-6.785-.446-4.98.852-8.894 6.419-13.647 6.701-.549.033-2.52.95-1.336.869 4.524-.309 7.233-2.742 10.438-4.69 4.736-2.883 8.369-1.897 13.849-1.16 1.507.203 3.049.052 4.496.338 5.406 1.067 4.068 1.424 5.21 4.552.148.406.79.361.9-.067.162-.618.274-1.235.384-1.851.764.595 1.705 1.066 2.53 1.702 1.592 1.228 1.728 2.465 1.447 3.937-.295 1.547 1.052 2.395.875 3.911-.864-.073-2.555-.377-3.047-.683-.08-.05-.399-.133-.75-.194-.405-.217-1.143-.45-1.42-.437-2.238.1-4.103-.035-6.187-1.021-1.117-.528-2.242-1.307-3.47-1.63-2.425-.638-4.593-.601-7.11-1.001-.072-.012-.99.235-.798.33 1.07.53 2.314.523 3.5.673 2.577.325 4.746 1.002 7.012 2.063 2.858 1.338 4.645 1.425 7.543 1.367 1.115 1.4 3.687 2.038 5.468 2.83.233.103 1.53.505 1.461-.026"/>
        </g>
        <path stroke="#677743" stroke-width=".75" d="M40.782 52.238c.267-.133.684-.185 1.09-.18 1.187.019 2.161.173 3.421.403.565.103 1.486.26 1.816.525.242.193.047.264-.329.22-1.078-.125-2.496-.381-3.55-.483-.81-.078-1.789-.149-2.305-.239-.303-.053-.284-.175-.143-.246z"/>
    </g>
</svg>
