<?xml version="1.0" encoding="UTF-8"?>
<svg width="120px" height="120px" viewBox="0 0 120 120" version="1.1" xmlns="http://www.w3.org/2000/svg" xmlns:xlink="http://www.w3.org/1999/xlink">
    <!-- Generator: Sketch 61 (89581) - https://sketch.com -->
    <title>IMG-流程/規劃</title>
    <desc>Created with Sketch.</desc>
    <defs>
        <polygon id="path-1" points="0.000177692704 0.127246743 119.640851 0.127246743 119.640851 97.8002426 0.000177692704 97.8002426"></polygon>
    </defs>
    <g id="IMG-流程/規劃" stroke="none" stroke-width="1" fill="none" fill-rule="evenodd">
        <g id="IMG-流程/諮詢" transform="translate(0.000000, 1.000000)">
            <g id="Group-3" transform="translate(0.000000, 1.708085)">
                <mask id="mask-2" fill="white">
                    <use xlink:href="#path-1"></use>
                </mask>
                <g id="Clip-2"></g>
                <path d="M115.609872,89.9786383 C118.009021,89.801617 119.807319,87.7131064 119.629447,85.3156596 L113.586894,4.1573617 C113.409021,1.75991489 111.320511,-0.0392340426 108.923915,0.139489362 L4.02944681,7.94714894 C1.632,8.1267234 -0.166297872,10.214383 0.0124255319,12.6126809 L6.0532766,93.7701277 C6.232,96.1675745 8.32051064,97.9667234 10.7162553,97.788 L115.609872,89.9786383 Z" id="Fill-1" fill="#73BEA5" mask="url(#mask-2)"></path>
            </g>
            <polygon id="Fill-4" fill="#FFFFFF" points="109.849362 82.7297021 104.550638 11.5594894 7.28510638 18.7994894 12.5846809 89.9697021"></polygon>
            <path d="M29.3886809,20.3388936 C29.271234,21.0674043 29.6074043,23.2844255 29.6074043,23.2844255 L56.8848511,21.2657021 L84.1631801,19.2469787 C84.1631801,19.2469787 84.1708085,17.0044255 83.9461277,16.3005957 C83.2235745,14.0418723 79.9844255,9.76697872 78.8465532,8.30570213 C77.7078298,6.84442553 75.7674043,6.72953191 74.3588936,6.83421277 C72.9495319,6.93974468 67.056766,7.3746383 67.056766,7.3746383 C67.056766,7.3746383 66.8635745,6.48612766 65.7554894,3.73548936 C64.6516596,0.982297872 62.0116596,0.148255319 59.964,0.299744681 C57.9171915,0.452085106 55.3657021,0.640170213 55.3588936,0.641021277 C55.3537872,0.641021277 52.8031489,0.829957447 50.7563404,0.982297872 C48.7052766,1.13378723 46.2193191,2.34825532 45.5308085,5.23165957 C44.8431489,8.11591489 44.7818723,9.02314894 44.7818723,9.02314894 C44.7818723,9.02314894 38.8874043,9.45889362 37.4814468,9.56357447 C36.070383,9.66740426 34.1682553,10.0657021 33.257617,11.6784681 C32.3461277,13.2920851 29.7716596,17.997617 29.3886809,20.3388936" id="Fill-6" stroke="#73BEA5" stroke-width="2" fill="#F4D964"></path>
            <path d="M53.9742128,7.65208511 C53.9061277,6.72612766 54.5988936,5.92187234 55.524,5.85378723 C56.4465532,5.78485106 57.2525106,6.47931915 57.3214468,7.40357447 C57.390383,8.32697872 56.6950638,9.13208511 55.7716596,9.20017021 C54.8465532,9.26740426 54.0431489,8.5746383 53.9742128,7.65208511" id="Path" stroke="#93AD65" stroke-width="2" fill="#F4D964"></path>
            <path d="M32.6560851,35.6726809 C34.6722553,35.5109787 36.6867234,35.3390638 38.7028936,35.1850213 C39.7326809,35.1067234 40.7573617,35.2105532 41.7871489,35.1662979 C43.320766,35.100766 44.7590638,34.5628936 46.2731064,34.3892766 C46.6901277,34.3424681 47.1786383,34.2871489 47.5871489,34.4233191 C47.6118298,34.4318298 47.775234,34.5186383 47.7020426,34.4667234 C47.7956596,34.5339574 47.6918298,34.4394894 47.7003404,34.4556596 C47.934383,34.9501277 48.668,34.5194894 48.4348085,34.0267234 C48.2518298,33.6420426 47.6697021,33.5475745 47.3037447,33.5126809 C45.8441702,33.3739574 44.400766,33.9594894 42.9811915,34.1918298 C41.8424681,34.3782128 40.7233191,34.275234 39.5794894,34.2914043 C38.2756596,34.3084255 36.9641702,34.474383 35.6662979,34.5790638 C34.6628936,34.660766 33.6603404,34.740766 32.6560851,34.821617 C32.1139574,34.8658723 32.1088511,35.7169362 32.6560851,35.6726809" id="Fill-11" fill="#595757"></path>
            <path d="M33.2935319,65.7010213 C33.5811915,66.3078298 34.6833191,66.2533617 35.2024681,66.2142128 C37.0450213,66.0729362 38.7684255,65.3750638 40.6373617,65.4048511 C43.4535319,65.4499574 46.2314043,65.0771915 49.0390638,64.9086809 C52.8467234,64.6805957 56.6756596,64.6491064 60.4867234,64.5188936 C62.121617,64.4635745 63.7565106,64.4082553 65.3922553,64.3529362 C65.9377872,64.3350638 65.9403404,63.484 65.3922553,63.5018723 C61.5862979,63.630383 57.7811915,63.7597447 53.9760851,63.8891064 C52.3777872,63.9435745 50.7769362,63.977617 49.1794894,64.0516596 C46.8722553,64.1588936 44.574383,64.5316596 42.2654468,64.5844255 C41.5462979,64.5997447 40.8288511,64.536766 40.1097021,64.5554894 C39.0977872,64.5827234 38.0986383,64.7699574 37.1182128,65.0091064 C36.2577872,65.217617 35.2909787,65.4908085 34.3948085,65.3622979 C34.2177872,65.3359149 34.1139574,65.271234 34.0101277,65.2465532 C34.0058723,65.2457021 34.0041702,65.2210213 34.028,65.2720851 C33.7931064,64.777617 33.0594894,65.2091064 33.2935319,65.7010213" id="Fill-13" fill="#595757"></path>
            <path d="M41.3811064,47.8128511 C47.256,47.3379574 53.1308936,46.852 59.0066383,46.3907234 C62.0117447,46.1549787 65.0270638,46.1251915 68.0321702,45.8988085 C72.4236596,45.5677447 76.7581277,44.7515745 81.1470638,44.4162553 C82.2738723,44.3302979 83.4279149,44.2443404 84.5564255,44.3464681 C84.7708936,44.3651915 84.7972766,44.3728511 85.0585532,44.4290213 C85.1819574,44.4571064 85.0891915,44.4409362 85.0168511,44.3805106 C85.4355745,44.7285957 86.0406809,44.1294468 85.6185532,43.7788085 C85.4406809,43.6298723 85.2125957,43.5839149 84.9870638,43.5473191 C84.2194043,43.4230638 83.4245106,43.4468936 82.6500426,43.4758298 C78.3351489,43.6417872 74.0764255,44.4851915 69.7836596,44.8971064 C66.736,45.1898723 63.6789787,45.2366809 60.6253617,45.425617 C56.9274894,45.6554043 53.2338723,46.0051915 49.5402553,46.3039149 C46.8211064,46.5226383 44.1002553,46.7422128 41.3811064,46.9617872 C40.8389787,47.0051915 40.8338723,47.8571064 41.3811064,47.8128511" id="Fill-15" fill="#595757"></path>
            <path d="M34.128,53.9132766 C36.4190638,53.6077447 38.7160851,53.3277447 41.0122553,53.0579574 C45.1875745,52.5685957 49.3714043,52.1039149 53.5671489,51.8222128 C55.101617,51.719234 56.6522553,51.6137021 58.1901277,51.6843404 C58.6335319,51.704766 58.9092766,51.7098723 59.3092766,51.8358298 C60.368,52.1685957 61.4062979,52.1422128 62.500766,51.9941277 C63.8726809,51.8085957 65.2173617,51.4741277 66.5765106,51.2154043 C67.634383,51.0137021 68.7177872,50.8273191 69.7858723,51.0366809 C71.3433191,51.3422128 73.0360851,51.1745532 74.6062979,51.0937021 C78.261617,50.9073191 81.9126809,50.5600851 85.5526809,50.1660426 C85.6258723,50.158383 85.6999149,50.1498723 85.7731064,50.1422128 C86.3109787,50.0826383 86.3169362,49.2307234 85.7731064,49.2911489 C82.5994894,49.6417872 79.4165106,49.9371064 76.2309787,50.1473191 C74.3833191,50.2690213 72.4999149,50.4196596 70.648,50.292 C69.9177872,50.2426383 69.2003404,50.0528511 68.4318298,50.1013617 C67.1194894,50.1839149 65.8267234,50.4979574 64.5433191,50.7651915 C63.2692766,51.0290213 61.9501277,51.3277447 60.6403404,51.252 C60.0309787,51.2171064 59.4828936,50.9600851 58.8794894,50.8877447 C57.5731064,50.7294468 56.2233191,50.8205106 54.914383,50.8894468 C50.7654468,51.1073191 46.6267234,51.5634894 42.500766,52.0349787 C39.7509787,52.3481702 37.0028936,52.6817872 34.2599149,53.0443404 L34.128,53.0622128 C33.5926809,53.1337021 33.5850213,53.985617 34.128,53.9132766" id="Fill-17" fill="#595757"></path>
            <path d="M34.5651064,59.3329362 C37.733617,59.076766 40.9021277,58.8214468 44.0706383,58.5661277 C47.0851064,58.3227234 50.0714894,57.9320851 53.0757447,57.5848511 C55.4723404,57.3091064 57.8757447,57.0571915 60.2851064,56.9278298 C61.2791489,56.8733617 62.2782979,56.837617 63.2731915,56.8742128 C63.9123404,56.8980426 64.546383,56.9831489 65.1855319,56.9993191 C69.0689362,57.0946383 73.0008511,56.6095319 76.8578723,56.2197447 C79.9157447,55.9108085 82.9719149,55.5720851 86.0212766,55.1891064 L86.1787234,55.1686809 C86.7140426,55.1014468 86.7208511,54.2495319 86.1787234,54.317617 C83.6144681,54.6401702 81.0451064,54.9295319 78.4757447,55.2018723 C74.4161702,55.6291064 70.3259574,56.0869787 66.24,56.1508085 C64.7829787,56.1729362 63.3404255,55.9874043 61.8825532,56.0163404 C59.5421277,56.0597447 57.2042553,56.2869787 54.8774468,56.5337872 C51.6919149,56.8725106 48.5217021,57.3559149 45.3276596,57.6129362 C41.826383,57.8963404 38.3242553,58.1788936 34.8229787,58.4614468 C34.7370213,58.4674043 34.6510638,58.4742128 34.5651064,58.4818723 C34.0221277,58.5252766 34.0178723,59.3771915 34.5651064,59.3329362" id="Fill-19" fill="#595757"></path>
            <path d="M65.8948936,68.667234 C65.8948936,68.667234 63.3680851,64.1225532 63.8668085,63.7455319 C64.366383,63.3668085 68.4957447,65.4178723 68.8225532,65.7395745 C69.1493617,66.0604255 66.9068085,68.6842553 65.8948936,68.667234" id="Fill-21" fill="#FDDEA5"></path>
            <path d="M68.9708936,66.0442553 L111.96834,108.230638 C111.96834,108.230638 112.659404,109.314894 111.507915,110.488511 C110.358128,111.661277 109.576851,111.301277 109.155574,110.886809 C108.736,110.475745 66.2628085,68.8034043 66.2628085,68.8034043 L67.1342979,68.44 L67.1436596,66.96 L68.1436596,66.9923404 L68.9708936,66.0442553 Z" id="Fill-23" fill="#F4D964"></path>
            <path d="M68.9708936,66.0442553 L111.96834,108.230638 C111.96834,108.230638 112.659404,109.314894 111.507915,110.488511 C110.358128,111.661277 109.576851,111.301277 109.155574,110.886809 C108.736,110.475745 66.2628085,68.8034043 66.2628085,68.8034043 L67.1342979,68.44 L67.1436596,66.96 L68.1436596,66.9923404 L68.9708936,66.0442553 Z" id="Stroke-25" stroke="#73BEA5" stroke-width="0.5"></path>
            <path d="M101.035404,97.5036596 L111.969021,108.230468 C111.969021,108.230468 112.659234,109.314723 111.508596,110.48834 C110.357957,111.661106 109.576681,111.301106 109.155404,110.887489 C108.73583,110.475574 98.3273191,100.26366 98.3273191,100.26366 L101.035404,97.5036596 Z" id="Fill-27" fill="#595757"></path>
            <path d="M101.035404,97.5036596 L111.969021,108.230468 C111.969021,108.230468 112.659234,109.314723 111.508596,110.48834 C110.357957,111.661106 109.576681,111.301106 109.155404,110.887489 C108.73583,110.475574 98.3273191,100.26366 98.3273191,100.26366 L101.035404,97.5036596 Z" id="Stroke-29" stroke="#73BEA5" stroke-width="0.5"></path>
            <path d="M63.8669787,63.7453617 C64.0993191,63.5351489 65.6669787,64.1649362 65.6669787,64.1649362 C65.6669787,64.1649362 65.0737872,65.3879149 64.6797447,65.4245106 L64.2848511,65.4585532 C64.2848511,65.4585532 63.564,64.0202553 63.8669787,63.7453617" id="Fill-31" fill="#231815"></path>
        </g>
    </g>
</svg>