<?xml version="1.0" encoding="UTF-8"?>
<svg width="120px" height="120px" viewBox="0 0 120 120" version="1.1" xmlns="http://www.w3.org/2000/svg" xmlns:xlink="http://www.w3.org/1999/xlink">
    <!-- Generator: Sketch 61 (89581) - https://sketch.com -->
    <title>IMG-流程/維護</title>
    <desc>Created with Sketch.</desc>
    <defs>
        <polygon id="path-1" points="7 67.8888889 113 67.8888889 113 6.88888889 7 6.88888889"></polygon>
    </defs>
    <g id="IMG-流程/維護" stroke="none" stroke-width="1" fill="none" fill-rule="evenodd">
        <g id="Group-30" transform="translate(1.000000, 11.000000)">
            <g id="Group-7" transform="translate(0.000000, 0.026667)" fill="#73BEA5">
                <path d="M118.6936,68.0664889 L118.6936,70.5731556 C118.6936,74.5020444 115.511378,77.6931556 111.582489,77.6931556 L60.3558222,77.6931556 L59.1993778,77.6931556 L59.1993778,75.3909333 C60.6224889,75.3909333 61.7780444,74.2353778 61.7780444,72.8042667 C61.7780444,71.3820444 60.6224889,70.2264889 59.1993778,70.2264889 L59.1993778,68.0664889 L118.6936,68.0664889 Z" id="Fill-1"></path>
                <path d="M7.58311111,64.2711111 L112.533333,64.2711111 L112.533333,6.68888889 L7.58311111,6.68888889 L7.58311111,64.2711111 Z M118.693333,7.41777778 L118.693333,68.0666667 L59.2,68.0666667 L0.444444444,68.0666667 L0.444444444,7.41777778 C0.444444444,3.48888889 3.63555556,0.306666667 7.56444444,0.306666667 L111.582222,0.306666667 C115.511111,0.306666667 118.693333,3.48888889 118.693333,7.41777778 L118.693333,7.41777778 Z" id="Fill-3"></path>
                <path d="M58.5601778,98.1112 C49.7779556,98.1112 44.6757333,97.3200889 41.7779556,96.5289778 C38.8704,95.7378667 38.1592889,94.9467556 38.1592889,94.9467556 C38.1592889,89.7556444 45.8259556,85.5156444 56.7592889,85.1956444 L56.7592889,77.6934222 L58.1992889,77.6934222 L61.3557333,77.6934222 L61.3557333,85.1956444 C66.8224,85.3556444 70.7192889,86.4934222 74.2579556,88.2445333 C77.7868444,89.9956444 79.9557333,92.3512 79.9557333,94.9467556 C79.9557333,94.9467556 76.4801778,98.1112 58.5601778,98.1112 Z" id="Fill-5"></path>
                <path d="M59.1997333,75.3912 L59.1997333,77.6934222 L57.7597333,77.6934222 L7.56417778,77.6934222 C3.63528889,77.6934222 0.444177778,74.5023111 0.444177778,70.5734222 L0.444177778,68.0667556 L59.1997333,68.0667556 L59.1997333,70.2267556 C57.7775111,70.2267556 56.6228444,71.3823111 56.6228444,72.8045333 C56.6228444,74.2356444 57.7775111,75.3912 59.1997333,75.3912" id="Fill-6"></path>
            </g>
            <path d="M0,68.0931556 L0,7.44426667 C0,3.51537778 3.21138089,0.333155556 7.16522589,0.333155556 L111.843719,0.333155556 C115.797564,0.333155556 119,3.51537778 119,7.44426667 L119,68.0931556" id="Stroke-8" stroke="#F4D964" stroke-width="0.888888889"></path>
            <mask id="mask-2" fill="white">
                <use xlink:href="#path-1"></use>
            </mask>
            <use id="Clip-11" fill="#FFFFFF" xlink:href="#path-1"></use>
            <path d="M0.444444444,68.0931556 L0.444444444,70.5998222 C0.444444444,74.5287111 3.63555556,77.7198222 7.56444444,77.7198222 L57.7591111,77.7198222 L57.7591111,85.2220444 C46.8266667,85.5420444 38.16,89.7820444 38.16,94.9731556 C38.16,94.9731556 38.8702222,95.7642667 41.7777778,96.5553778 C44.6755556,97.3464889 49.7777778,98.1376 58.56,98.1376 C76.48,98.1376 79.9555556,94.9731556 79.9555556,94.9731556 C79.9555556,92.3776 77.7866667,90.0220444 74.2577778,88.2709333 C70.72,86.5198222 65.8222222,85.3820444 60.3555556,85.2220444 L60.3555556,77.7198222 L111.582222,77.7198222 C115.511111,77.7198222 118.693333,74.5287111 118.693333,70.5998222 L118.693333,68.0931556 L59.2,68.0931556 L0.444444444,68.0931556 Z" id="Stroke-12" stroke="#89B829" stroke-width="0.888888889" mask="url(#mask-2)"></path>
            <path d="M59.1997333,70.2533333 C60.6228444,70.2533333 61.7775111,71.4088889 61.7775111,72.8311111 C61.7775111,74.2622222 60.6228444,75.4177778 59.1997333,75.4177778 C57.7775111,75.4177778 56.6228444,74.2622222 56.6228444,72.8311111 C56.6228444,71.4088889 57.7775111,70.2533333 59.1997333,70.2533333 Z" id="Stroke-13" stroke="#89B829" stroke-width="0.888888889" mask="url(#mask-2)"></path>
        </g>
        <g id="Group" transform="translate(30.000000, 21.000000)">
            <path d="M3.15440822,34.1548513 C3.108186,33.8944068 3.05307489,33.6339624 3.01485267,33.3708513 C2.836186,32.0997401 3.20329711,31.0321846 4.22374156,30.2268513 C4.68863045,29.860629 5.17574156,29.5255179 5.61929711,29.2019624 C5.21040822,27.5050735 4.81129711,25.8570735 4.37929711,24.0561846 C4.01485267,24.0152957 3.51174156,23.980629 3.01485267,23.8988513 C0.876186003,23.548629 -0.257147331,22.0064068 0.0495193361,19.8704068 C0.138408225,19.2428513 0.237074892,18.6144068 0.343741558,17.9895179 C0.700186003,15.9335179 2.23529711,14.8135179 4.31085267,15.0997401 C4.81307489,15.1690735 5.30907489,15.2837401 5.73129711,15.364629 C6.660186,13.8321846 7.53929711,12.3824068 8.46374156,10.8561846 C8.17751934,10.4641846 7.820186,9.99485126 7.48240822,9.51040681 C6.48240822,8.07040681 6.72863045,6.17262903 8.08507489,5.07396237 C8.77574156,4.51574014 9.49485267,3.98862903 10.2370749,3.50240681 C11.6948527,2.54151792 13.5855193,2.88285126 14.6459638,4.27040681 C15.004186,4.73885126 15.3446304,5.22062903 15.6335193,5.61796237 C17.3490749,5.20196237 18.9828527,4.8072957 20.7828527,4.37085126 C20.8246304,3.99396237 20.852186,3.46862903 20.9384082,2.9512957 C21.2904082,0.884629033 22.8237416,-0.238926522 24.8912971,0.0428512556 C25.5837416,0.137073478 26.2752971,0.234851256 26.9588527,0.365517922 C28.8477416,0.729073478 29.9552971,2.21885126 29.7499638,4.12818459 C29.6877416,4.69440681 29.5499638,5.25174014 29.4628527,5.7352957 C30.9917416,6.66151792 32.4450749,7.53974014 33.9864082,8.47218459 C34.4059638,8.16640681 34.9037416,7.77351792 35.4308527,7.4232957 C36.8459638,6.47840681 38.7695193,6.79218459 39.8015193,8.13262903 C40.2806304,8.75218459 40.7375193,9.38774014 41.1908527,10.0250735 C42.2832971,11.5548513 42.0184082,13.4810735 40.5499638,14.6632957 C40.1055193,15.020629 39.6308527,15.3388513 39.2050749,15.6499624 C39.6130749,17.3361846 40.0112971,18.9824068 40.4432971,20.7761846 C40.8824082,20.8268513 41.4530749,20.8588513 42.0104082,20.9655179 C43.8690749,21.3184068 44.9668527,22.7228513 44.7988527,24.596629 C44.7152971,25.5397401 44.564186,26.4899624 44.3304082,27.4072957 C43.9552971,28.8659624 42.6228527,29.8259624 41.1144082,29.7681846 C40.4006304,29.740629 39.6912971,29.6055179 39.0477416,29.5281846 C38.1472971,31.0099624 37.2637416,32.4615179 36.3517416,33.9619624 C36.6459638,34.3655179 36.9899638,34.820629 37.3179638,35.2855179 C38.3499638,36.7539624 38.0806304,38.7068513 36.6708527,39.8295179 C36.0264082,40.3441846 35.3588527,40.8330735 34.6726304,41.2908513 C33.1730749,42.2917401 31.2415193,41.9530735 30.1464082,40.5201846 C29.8024082,40.0668513 29.4735193,39.6010735 29.1810749,39.2010735 C27.4895193,39.6108513 25.8557416,40.0064068 24.0699638,40.4392957 C24.0290749,40.7779624 23.9872971,41.2579624 23.9108527,41.7317401 C23.548186,43.9761846 22.0077416,45.0979624 19.7508527,44.756629 C18.9784082,44.6392957 18.1970749,44.540629 17.4424082,44.3415179 C15.9135193,43.9379624 14.9232971,42.532629 15.0628527,40.9592957 C15.1215193,40.3095179 15.3188527,39.6730735 15.4326304,39.124629 C13.8397416,38.1619624 12.3890749,37.2837401 10.8512971,36.3530735 C9.260186,37.8072957 7.46196378,38.6695179 5.32774156,37.1281846 C4.60329711,36.1361846 3.87885267,35.1459624 3.15440822,34.1548513" id="Fill-14" fill="#93AD65"></path>
            <path d="M68.7516527,13.7316513 C68.8343193,14.3725401 69.0360971,15.0249846 68.9747638,15.653429 C68.8334304,17.0960957 67.7294304,18.2312068 66.2663193,18.4303179 C65.6014304,18.5209846 65.372986,18.797429 65.1907638,19.3956513 C64.9720971,20.1147624 64.620986,20.8045401 64.2432082,21.4569846 C64.0067638,21.8649846 64.0112082,22.1200957 64.2858749,22.5103179 C65.1000971,23.6676513 65.1827638,24.9236513 64.460986,26.1485401 C63.7703193,27.3200957 62.6876527,27.8623179 61.3223193,27.7680957 C60.2858749,27.6952068 59.4752082,27.1752068 58.8867638,26.3467624 C58.6245416,25.9769846 58.3676527,25.989429 57.9792082,26.0569846 C57.1720971,26.197429 56.3516527,26.3129846 55.5347638,26.333429 C55.0352082,26.3467624 54.7703193,26.4427624 54.5294304,26.9325401 C53.436986,29.1512068 50.6885416,29.5618735 49.0520971,27.7467624 C48.1196527,26.7129846 47.9632082,25.4738735 48.5152082,24.2009846 C48.6992082,23.7743179 48.6094304,23.5396513 48.3392082,23.2098735 C47.7916527,22.5449846 47.2752082,21.8472068 46.812986,21.1192068 C46.5792082,20.7503179 46.3640971,20.6240957 45.9187638,20.6543179 C43.772986,20.7965401 42.188986,19.3129846 42.2343193,17.2507624 C42.268986,15.613429 43.4965416,14.3005401 45.2654304,14.0712068 C45.6894304,14.0169846 45.8360971,13.8578735 45.9774304,13.4632068 C46.2743193,12.6329846 46.652986,11.8285401 47.0512082,11.0409846 C47.2192082,10.7049846 47.2645416,10.4836513 47.0405416,10.1387624 C46.0725416,8.65787348 46.1107638,7.16454014 47.0903193,5.98142903 C48.4467638,4.34231792 50.9463193,4.36542903 52.2680971,6.07476237 C52.6076527,6.51298459 52.8823193,6.58231792 53.4183193,6.47387348 C54.4014304,6.27476237 55.4174304,6.23031792 56.4760971,6.11476237 C56.8298749,5.31654014 57.2885416,4.49876237 58.2112082,4.05165126 C59.580986,3.38765126 60.8227638,3.68542903 62.0085416,4.50587348 C62.2832082,4.88187348 62.5560971,5.25787348 62.8325416,5.63387348 C63.1178749,6.67742903 63.132986,7.6960957 62.6352082,8.69787348 C62.5747638,8.81698459 62.7098749,9.07654014 62.8156527,9.22765126 C63.372986,10.0143179 63.9400971,10.7956513 64.5267638,11.5609846 C64.6485416,11.7183179 64.8805416,11.9192068 65.036986,11.8996513 C66.1445416,11.7592068 67.1143193,12.0703179 68.0005416,12.7067624 C68.2520971,13.0480957 68.500986,13.3903179 68.7516527,13.7316513" id="Fill-16" fill="#F4D964"></path>
            <path d="M26.4208971,27.902229 C29.445786,25.6933401 30.1248971,21.3928957 27.9231193,18.3804513 C25.7373416,15.3875624 21.3773416,14.7066735 18.3808971,16.8906735 C15.3888971,19.0720068 14.709786,23.4257846 16.893786,26.4320068 C19.0848971,29.4471179 23.3942304,30.1120068 26.4208971,27.902229 Z M27.6786749,29.6400068 C23.6768971,32.5466735 18.0306749,31.6675624 15.1560082,27.6933401 C12.2751193,23.7048957 13.165786,18.0417846 17.1248971,15.1600068 C21.093786,12.2728957 26.7773416,13.1635624 29.6573416,17.1253401 C32.5551193,21.1120068 31.6635638,26.7484513 27.6786749,29.6400068 Z" id="Stroke-19" stroke="#F4D964" stroke-width="0.888888889"></path>
            <path d="M28.5554749,34.3775179 C27.0879193,35.1339624 25.7208082,35.5579624 24.2870304,35.7348513 C20.2319193,36.2370735 16.6336971,35.1748513 13.5181416,32.5197401 C13.3572527,32.3828513 13.2070304,32.2290735 13.082586,32.0619624 C12.7412527,31.6059624 12.754586,31.0477401 13.1430304,30.6779624 C13.5421416,30.2957401 14.0203638,30.2584068 14.4790304,30.5615179 C14.8443638,30.8041846 15.154586,31.1330735 15.514586,31.3899624 C19.1012527,33.9428513 22.9368082,34.4112957 27.0292527,32.7615179 C27.3483638,32.6335179 27.770586,32.4957401 28.0488082,32.6059624 C28.3652527,32.7339624 28.7119193,33.1001846 28.7910304,33.424629 C28.8674749,33.7419624 28.6212527,34.136629 28.5554749,34.3775179 Z" id="Stroke-21" stroke="#F4D964" stroke-width="0.888888889"></path>
            <path d="M33.4000971,14.4112957 C33.944986,15.5232957 34.5218749,16.6219624 35.0240971,17.7544068 C35.2516527,18.2672957 34.9734304,18.8397401 34.528986,19.0495179 C34.0196527,19.2895179 33.4925416,19.1330735 33.1583193,18.6264068 C33.040986,18.4512957 32.9618749,18.2530735 32.8578749,18.0717401 C32.3360971,17.1801846 31.8916527,16.2317401 31.2756527,15.4121846 C29.7538749,13.3872957 27.7067638,12.104629 25.2605416,11.4548513 C25.0143193,11.3908513 24.7645416,11.344629 24.5218749,11.272629 C23.8392082,11.0717401 23.4916527,10.5455179 23.6436527,9.95440681 C23.7983193,9.35796237 24.3520971,9.01396237 25.0392082,9.22018459 C26.2098749,9.56951792 27.4036527,9.89751792 28.4996527,10.4184068 C30.4338749,11.3384068 32.0196527,12.7241846 33.4000971,14.4112957 Z" id="Stroke-23" stroke="#F4D964" stroke-width="0.888888889"></path>
            <path d="M56.9538749,18.1440068 C58.0098749,17.3857846 58.2525416,15.9191179 57.4907638,14.8986735 C56.7503193,13.9066735 55.2667638,13.6817846 54.2667638,14.4106735 C53.2516527,15.150229 53.0303193,16.5831179 53.7725416,17.6133401 C54.5272082,18.6613401 55.9120971,18.8915624 56.9538749,18.1440068 Z M58.248986,19.8524513 C56.2712082,21.3057846 53.5325416,20.8888957 52.0685416,18.9111179 C50.6036527,16.934229 51.0392082,14.0826735 53.0214304,12.6666735 C54.9814304,11.2648957 57.832986,11.7191179 59.2356527,13.6560068 C60.6587638,15.6213401 60.2134304,18.4097846 58.248986,19.8524513 Z" id="Stroke-25" stroke="#93AD65" stroke-width="1.888889"></path>
            <path d="M72.667386,36.8088957 C72.6860527,37.3271179 72.8024971,37.8631179 72.7082749,38.3608957 C72.491386,39.5040068 71.5278304,40.3315624 70.3447193,40.3857846 C69.8060527,40.4115624 69.6042749,40.6151179 69.4149416,41.0808957 C69.1882749,41.6400068 68.8584971,42.1653401 68.5100527,42.6604513 C68.2922749,42.9697846 68.2771638,43.174229 68.467386,43.5057846 C69.035386,44.4888957 69.0122749,45.4986735 68.3482749,46.4266735 C67.7118304,47.3128957 66.8069416,47.6684513 65.7224971,47.494229 C64.8984971,47.3635624 64.2887193,46.8888957 63.8789416,46.1848957 C63.6958304,45.870229 63.4896082,45.862229 63.1731638,45.8880068 C62.5162749,45.942229 61.8531638,45.9760068 61.1998304,45.934229 C60.7980527,45.9075624 60.579386,45.966229 60.3527193,46.3404513 C59.3189416,48.0346735 57.0940527,48.166229 55.915386,46.598229 C55.2460527,45.7040068 55.2087193,44.7031179 55.7411638,43.7253401 C55.9189416,43.398229 55.8656082,43.2026735 55.6727193,42.9200068 C55.2816082,42.3493401 54.9180527,41.7546735 54.6007193,41.1395624 C54.4398304,40.8284513 54.2789416,40.7120068 53.9198304,40.7040068 C52.1962749,40.6640068 51.035386,39.3644513 51.219386,37.7200068 C51.3651638,36.4133401 52.4398304,35.4515624 53.8709416,35.3955624 C54.2122749,35.382229 54.3420527,35.2648957 54.4824971,34.9600068 C54.7802749,34.318229 55.1384971,33.702229 55.5136082,33.1004513 C55.6736082,32.8453401 55.7251638,32.6711179 55.571386,32.3795624 C54.9056082,31.126229 55.0416082,29.934229 55.9082749,29.0595624 C57.1118304,27.846229 59.107386,28.0453401 60.0407193,29.5057846 C60.2816082,29.8808957 60.4967193,29.9555624 60.9322749,29.9066735 C61.7322749,29.8186735 62.5464971,29.8560068 63.4016082,29.8400068 C63.7420527,29.2266735 64.1669416,28.606229 64.9358304,28.3146735 C66.0789416,27.8826735 67.051386,28.2097846 67.9402749,28.950229 C68.1322749,29.2711179 68.323386,29.590229 68.5180527,29.9111179 C68.6718304,30.766229 68.6104971,31.5813401 68.1402749,32.3466735 C68.0842749,32.438229 68.1731638,32.654229 68.2469416,32.782229 C68.6362749,33.4515624 69.0327193,34.1164513 69.4478304,34.7706735 C69.5331638,34.9048957 69.7038304,35.0817846 69.8318304,35.078229 C70.7260527,35.0453401 71.4771638,35.3635624 72.1420527,35.9360068 C72.3180527,36.2275624 72.4922749,36.518229 72.667386,36.8088957 Z" id="Stroke-27" stroke="#89B829" stroke-width="2"></path>
            <path d="M3.15440822,34.1548513 C3.108186,33.8944068 3.05307489,33.6339624 3.01485267,33.3708513 C2.836186,32.0997401 3.20329711,31.0321846 4.22374156,30.2268513 C4.68863045,29.860629 5.17574156,29.5255179 5.61929711,29.2019624 C5.21040822,27.5050735 4.81129711,25.8570735 4.37929711,24.0561846 C4.01485267,24.0152957 3.51174156,23.980629 3.01485267,23.8988513 C0.876186003,23.548629 -0.257147331,22.0064068 0.0495193361,19.8704068 C0.138408225,19.2428513 0.237074892,18.6144068 0.343741558,17.9895179 C0.700186003,15.9335179 2.23529711,14.8135179 4.31085267,15.0997401 C4.81307489,15.1690735 5.30907489,15.2837401 5.73129711,15.364629 C6.660186,13.8321846 7.53929711,12.3824068 8.46374156,10.8561846 C8.17751934,10.4641846 7.820186,9.99485126 7.48240822,9.51040681 C6.48240822,8.07040681 6.72863045,6.17262903 8.08507489,5.07396237 C8.77574156,4.51574014 9.49485267,3.98862903 10.2370749,3.50240681 C11.6948527,2.54151792 13.5855193,2.88285126 14.6459638,4.27040681 C15.004186,4.73885126 15.3446304,5.22062903 15.6335193,5.61796237 C17.3490749,5.20196237 18.9828527,4.8072957 20.7828527,4.37085126 C20.8246304,3.99396237 20.852186,3.46862903 20.9384082,2.9512957 C21.2904082,0.884629033 22.8237416,-0.238926522 24.8912971,0.0428512556 C25.5837416,0.137073478 26.2752971,0.234851256 26.9588527,0.365517922 C28.8477416,0.729073478 29.9552971,2.21885126 29.7499638,4.12818459 C29.6877416,4.69440681 29.5499638,5.25174014 29.4628527,5.7352957 C30.9917416,6.66151792 32.4450749,7.53974014 33.9864082,8.47218459 C34.4059638,8.16640681 34.9037416,7.77351792 35.4308527,7.4232957 C36.8459638,6.47840681 38.7695193,6.79218459 39.8015193,8.13262903 C40.2806304,8.75218459 40.7375193,9.38774014 41.1908527,10.0250735 C42.2832971,11.5548513 42.0184082,13.4810735 40.5499638,14.6632957 C40.1055193,15.020629 39.6308527,15.3388513 39.2050749,15.6499624 C39.6130749,17.3361846 40.0112971,18.9824068 40.4432971,20.7761846 C40.8824082,20.8268513 41.4530749,20.8588513 42.0104082,20.9655179 C43.8690749,21.3184068 44.9668527,22.7228513 44.7988527,24.596629 C44.7152971,25.5397401 44.564186,26.4899624 44.3304082,27.4072957 C43.9552971,28.8659624 42.6228527,29.8259624 41.1144082,29.7681846 C40.4006304,29.740629 39.6912971,29.6055179 39.0477416,29.5281846 C38.1472971,31.0099624 37.2637416,32.4615179 36.3517416,33.9619624 C36.6459638,34.3655179 36.9899638,34.820629 37.3179638,35.2855179 C38.3499638,36.7539624 38.0806304,38.7068513 36.6708527,39.8295179 C36.0264082,40.3441846 35.3588527,40.8330735 34.6726304,41.2908513 C33.1730749,42.2917401 31.2415193,41.9530735 30.1464082,40.5201846 C29.8024082,40.0668513 29.4735193,39.6010735 29.1810749,39.2010735 C27.4895193,39.6108513 25.8557416,40.0064068 24.0699638,40.4392957 C24.0290749,40.7779624 23.9872971,41.2579624 23.9108527,41.7317401 C23.548186,43.9761846 22.0077416,45.0979624 19.7508527,44.756629 C18.9784082,44.6392957 18.1970749,44.540629 17.4424082,44.3415179 C15.9135193,43.9379624 14.9232971,42.532629 15.0628527,40.9592957 C15.1215193,40.3095179 15.3188527,39.6730735 15.4326304,39.124629 C13.8397416,38.1619624 12.3890749,37.2837401 10.8512971,36.3530735 C9.260186,37.8072957 7.46196378,38.6695179 5.32774156,37.1281846 C4.60329711,36.1361846 3.87885267,35.1459624 3.15440822,34.1548513 Z" id="Stroke-15" stroke="#F4D964" stroke-width="2"></path>
            <path d="M68.7516527,13.7316513 C68.8343193,14.3725401 69.0360971,15.0249846 68.9747638,15.653429 C68.8334304,17.0960957 67.7294304,18.2312068 66.2663193,18.4303179 C65.6014304,18.5209846 65.372986,18.797429 65.1907638,19.3956513 C64.9720971,20.1147624 64.620986,20.8045401 64.2432082,21.4569846 C64.0067638,21.8649846 64.0112082,22.1200957 64.2858749,22.5103179 C65.1000971,23.6676513 65.1827638,24.9236513 64.460986,26.1485401 C63.7703193,27.3200957 62.6876527,27.8623179 61.3223193,27.7680957 C60.2858749,27.6952068 59.4752082,27.1752068 58.8867638,26.3467624 C58.6245416,25.9769846 58.3676527,25.989429 57.9792082,26.0569846 C57.1720971,26.197429 56.3516527,26.3129846 55.5347638,26.333429 C55.0352082,26.3467624 54.7703193,26.4427624 54.5294304,26.9325401 C53.436986,29.1512068 50.6885416,29.5618735 49.0520971,27.7467624 C48.1196527,26.7129846 47.9632082,25.4738735 48.5152082,24.2009846 C48.6992082,23.7743179 48.6094304,23.5396513 48.3392082,23.2098735 C47.7916527,22.5449846 47.2752082,21.8472068 46.812986,21.1192068 C46.5792082,20.7503179 46.3640971,20.6240957 45.9187638,20.6543179 C43.772986,20.7965401 42.188986,19.3129846 42.2343193,17.2507624 C42.268986,15.613429 43.4965416,14.3005401 45.2654304,14.0712068 C45.6894304,14.0169846 45.8360971,13.8578735 45.9774304,13.4632068 C46.2743193,12.6329846 46.652986,11.8285401 47.0512082,11.0409846 C47.2192082,10.7049846 47.2645416,10.4836513 47.0405416,10.1387624 C46.0725416,8.65787348 46.1107638,7.16454014 47.0903193,5.98142903 C48.4467638,4.34231792 50.9463193,4.36542903 52.2680971,6.07476237 C52.6076527,6.51298459 52.8823193,6.58231792 53.4183193,6.47387348 C54.4014304,6.27476237 55.4174304,6.23031792 56.4760971,6.11476237 C56.8298749,5.31654014 57.2885416,4.49876237 58.2112082,4.05165126 C59.580986,3.38765126 60.8227638,3.68542903 62.0085416,4.50587348 C62.2832082,4.88187348 62.5560971,5.25787348 62.8325416,5.63387348 C63.1178749,6.67742903 63.132986,7.6960957 62.6352082,8.69787348 C62.5747638,8.81698459 62.7098749,9.07654014 62.8156527,9.22765126 C63.372986,10.0143179 63.9400971,10.7956513 64.5267638,11.5609846 C64.6485416,11.7183179 64.8805416,11.9192068 65.036986,11.8996513 C66.1445416,11.7592068 67.1143193,12.0703179 68.0005416,12.7067624 C68.2520971,13.0480957 68.500986,13.3903179 68.7516527,13.7316513 Z" id="Stroke-17" stroke="#93AD65"></path>
            <path d="M26.4208971,27.902229 C29.445786,25.6933401 30.1248971,21.3928957 27.9231193,18.3804513 C25.7373416,15.3875624 21.3773416,14.7066735 18.3808971,16.8906735 C15.3888971,19.0720068 14.709786,23.4257846 16.893786,26.4320068 C19.0848971,29.4471179 23.3942304,30.1120068 26.4208971,27.902229 M27.6786749,29.6400068 C23.6768971,32.5466735 18.0306749,31.6675624 15.1560082,27.6933401 C12.2751193,23.7048957 13.165786,18.0417846 17.1248971,15.1600068 C21.093786,12.2728957 26.7773416,13.1635624 29.6573416,17.1253401 C32.5551193,21.1120068 31.6635638,26.7484513 27.6786749,29.6400068" id="Fill-18" fill="#FFFFFF"></path>
            <path d="M28.5554749,34.3775179 C27.0879193,35.1339624 25.7208082,35.5579624 24.2870304,35.7348513 C20.2319193,36.2370735 16.6336971,35.1748513 13.5181416,32.5197401 C13.3572527,32.3828513 13.2070304,32.2290735 13.082586,32.0619624 C12.7412527,31.6059624 12.754586,31.0477401 13.1430304,30.6779624 C13.5421416,30.2957401 14.0203638,30.2584068 14.4790304,30.5615179 C14.8443638,30.8041846 15.154586,31.1330735 15.514586,31.3899624 C19.1012527,33.9428513 22.9368082,34.4112957 27.0292527,32.7615179 C27.3483638,32.6335179 27.770586,32.4957401 28.0488082,32.6059624 C28.3652527,32.7339624 28.7119193,33.1001846 28.7910304,33.424629 C28.8674749,33.7419624 28.6212527,34.136629 28.5554749,34.3775179" id="Fill-20" fill="#FFFFFF"></path>
            <path d="M33.4000971,14.4112957 C33.944986,15.5232957 34.5218749,16.6219624 35.0240971,17.7544068 C35.2516527,18.2672957 34.9734304,18.8397401 34.528986,19.0495179 C34.0196527,19.2895179 33.4925416,19.1330735 33.1583193,18.6264068 C33.040986,18.4512957 32.9618749,18.2530735 32.8578749,18.0717401 C32.3360971,17.1801846 31.8916527,16.2317401 31.2756527,15.4121846 C29.7538749,13.3872957 27.7067638,12.104629 25.2605416,11.4548513 C25.0143193,11.3908513 24.7645416,11.344629 24.5218749,11.272629 C23.8392082,11.0717401 23.4916527,10.5455179 23.6436527,9.95440681 C23.7983193,9.35796237 24.3520971,9.01396237 25.0392082,9.22018459 C26.2098749,9.56951792 27.4036527,9.89751792 28.4996527,10.4184068 C30.4338749,11.3384068 32.0196527,12.7241846 33.4000971,14.4112957" id="Fill-22" fill="#FFFFFF"></path>
            <path d="M56.9538749,18.1440068 C58.0098749,17.3857846 58.2525416,15.9191179 57.4907638,14.8986735 C56.7503193,13.9066735 55.2667638,13.6817846 54.2667638,14.4106735 C53.2516527,15.150229 53.0303193,16.5831179 53.7725416,17.6133401 C54.5272082,18.6613401 55.9120971,18.8915624 56.9538749,18.1440068 M58.248986,19.8524513 C56.2712082,21.3057846 53.5325416,20.8888957 52.0685416,18.9111179 C50.6036527,16.934229 51.0392082,14.0826735 53.0214304,12.6666735 C54.9814304,11.2648957 57.832986,11.7191179 59.2356527,13.6560068 C60.6587638,15.6213401 60.2134304,18.4097846 58.248986,19.8524513" id="Fill-24" fill="#FEFFF6"></path>
            <path d="M72.667386,36.8088957 C72.6860527,37.3271179 72.8024971,37.8631179 72.7082749,38.3608957 C72.491386,39.5040068 71.5278304,40.3315624 70.3447193,40.3857846 C69.8060527,40.4115624 69.6042749,40.6151179 69.4149416,41.0808957 C69.1882749,41.6400068 68.8584971,42.1653401 68.5100527,42.6604513 C68.2922749,42.9697846 68.2771638,43.174229 68.467386,43.5057846 C69.035386,44.4888957 69.0122749,45.4986735 68.3482749,46.4266735 C67.7118304,47.3128957 66.8069416,47.6684513 65.7224971,47.494229 C64.8984971,47.3635624 64.2887193,46.8888957 63.8789416,46.1848957 C63.6958304,45.870229 63.4896082,45.862229 63.1731638,45.8880068 C62.5162749,45.942229 61.8531638,45.9760068 61.1998304,45.934229 C60.7980527,45.9075624 60.579386,45.966229 60.3527193,46.3404513 C59.3189416,48.0346735 57.0940527,48.166229 55.915386,46.598229 C55.2460527,45.7040068 55.2087193,44.7031179 55.7411638,43.7253401 C55.9189416,43.398229 55.8656082,43.2026735 55.6727193,42.9200068 C55.2816082,42.3493401 54.9180527,41.7546735 54.6007193,41.1395624 C54.4398304,40.8284513 54.2789416,40.7120068 53.9198304,40.7040068 C52.1962749,40.6640068 51.035386,39.3644513 51.219386,37.7200068 C51.3651638,36.4133401 52.4398304,35.4515624 53.8709416,35.3955624 C54.2122749,35.382229 54.3420527,35.2648957 54.4824971,34.9600068 C54.7802749,34.318229 55.1384971,33.702229 55.5136082,33.1004513 C55.6736082,32.8453401 55.7251638,32.6711179 55.571386,32.3795624 C54.9056082,31.126229 55.0416082,29.934229 55.9082749,29.0595624 C57.1118304,27.846229 59.107386,28.0453401 60.0407193,29.5057846 C60.2816082,29.8808957 60.4967193,29.9555624 60.9322749,29.9066735 C61.7322749,29.8186735 62.5464971,29.8560068 63.4016082,29.8400068 C63.7420527,29.2266735 64.1669416,28.606229 64.9358304,28.3146735 C66.0789416,27.8826735 67.051386,28.2097846 67.9402749,28.950229 C68.1322749,29.2711179 68.323386,29.590229 68.5180527,29.9111179 C68.6718304,30.766229 68.6104971,31.5813401 68.1402749,32.3466735 C68.0842749,32.438229 68.1731638,32.654229 68.2469416,32.782229 C68.6362749,33.4515624 69.0327193,34.1164513 69.4478304,34.7706735 C69.5331638,34.9048957 69.7038304,35.0817846 69.8318304,35.078229 C70.7260527,35.0453401 71.4771638,35.3635624 72.1420527,35.9360068 C72.3180527,36.2275624 72.4922749,36.518229 72.667386,36.8088957" id="Fill-26" fill="#F4D964"></path>
            <path d="M62.921786,39.489429 C63.8195638,38.9587624 64.1200082,37.8040957 63.5831193,36.9338735 C63.0631193,36.0876513 61.8915638,35.801429 61.041786,36.3125401 C60.1760082,36.8307624 59.8960082,37.9605401 60.4168971,38.8378735 C60.9448971,39.7285401 62.0346749,40.0120957 62.921786,39.489429 M63.8328971,40.9480957 C62.1484527,41.9676513 59.9893416,41.4369846 58.961786,39.7516513 C57.9324527,38.0663179 58.4844527,35.8192068 60.1706749,34.8280957 C61.8382304,33.849429 64.0844527,34.4165401 65.0675638,36.065429 C66.0640082,37.737429 65.5075638,39.9356513 63.8328971,40.9480957" id="Fill-28" fill="#F7F7F7"></path>
            <path d="M62.921786,39.489429 C63.8195638,38.9587624 64.1200082,37.8040957 63.5831193,36.9338735 C63.0631193,36.0876513 61.8915638,35.801429 61.041786,36.3125401 C60.1760082,36.8307624 59.8960082,37.9605401 60.4168971,38.8378735 C60.9448971,39.7285401 62.0346749,40.0120957 62.921786,39.489429 Z M63.8328971,40.9480957 C62.1484527,41.9676513 59.9893416,41.4369846 58.961786,39.7516513 C57.9324527,38.0663179 58.4844527,35.8192068 60.1706749,34.8280957 C61.8382304,33.849429 64.0844527,34.4165401 65.0675638,36.065429 C66.0640082,37.737429 65.5075638,39.9356513 63.8328971,40.9480957 Z" id="Stroke-29" stroke="#93AD65" stroke-width="0.888889"></path>
        </g>
    </g>
</svg>