<?xml version="1.0" encoding="utf-8"?>
<!-- Generator: Adobe Illustrator 22.0.1, SVG Export Plug-In . SVG Version: 6.00 Build 0)  -->
<svg version="1.1" id="圖層_1" xmlns="http://www.w3.org/2000/svg" xmlns:xlink="http://www.w3.org/1999/xlink" x="0px" y="0px"
	 viewBox="0 0 126 127" style="enable-background:new 0 0 126 127;" xml:space="preserve">
<style type="text/css">
	.st0{fill:#A3B87F;}
	.st1{filter:url(#Adobe_OpacityMaskFilter);}
	.st2{fill:#FFFFFF;}
	.st3{mask:url(#mask-2_1_);fill:none;}
	.st4{fill:none;}
	.st5{fill:#81965A;}
	.st6{fill:#F7CC59;}
	.st7{fill:#FEFFF6;}
	.st8{fill:#677743;}
	.st9{fill:#B8C999;}
</style>
<title>F1DAFA9F-C85A-4E69-9A4A-2CE92D1AAC31</title>
<desc>Created with sketchtool.</desc>
<g id="Symbols">
	<g id="Wasajon-_x2F_-lookdown" transform="translate(-16.000000, -38.000000)">
		<g id="Group" transform="translate(-13.000000, 20.000000)">
			<g id="Group-6">
				
					<g id="Page-1" transform="translate(82.824619, 81.771736) rotate(-2.000000) translate(-82.824619, -81.771736) translate(3.324619, 2.771736)">
					<g transform="translate(-0.000000, -0.000000)">
						
							<g transform="translate(79.133947, 78.678639) rotate(-6.000000) translate(-79.133947, -78.678639) translate(7.133947, 7.178639)">
							<path id="Fill-5" class="st0" d="M29,110.2c-2.7-3.2-3.8-7.9-5.5-11.6c-1.1-2.3-2-4.8-2.6-7.2c-0.6-2.5,0.3-6.7,0-9.2
								c-0.4-3.5-0.9-7.3-0.7-10.8c0.2-3.7,2.9-7.6,3.8-11.3c1.7-6.8,5.2-12.2,8.8-17.2c3.1-4.4,9-9.2,13.3-12.1
								c14.4-9.9,31.6-11.2,51.9-4.6c16.3,5.3,27,12.3,33.8,22.9c2.3,3.6,4,8.1,5.6,12.4c0.7,1.8,1.3,3.6,1.8,5.5
								c1.1,3.8,3.1,14.4,2.9,18.8c-0.1,4.4-2.2,9-3.3,13.8c-0.5,1.9-0.2,5.4-0.9,7.1c-1,2.4-2.1,0.6-3.4,2.7
								c-1.7,2.8-2.6,7.1-4.8,9.4c-1.3,1.3-2.6,3.4-4,4.5c-15.9,12.8-41.2,14-63.7,7C49.7,126.4,36.9,119.9,29,110.2z"/>
							<g id="Group-12" transform="translate(-0.000000, 0.095069)">
								<g id="Group-9" transform="translate(11.088848, 9.006516)">
									<g id="Clip-8">
									</g>
									<defs>
										<filter id="Adobe_OpacityMaskFilter" filterUnits="userSpaceOnUse" x="-7.3" y="0.2" width="141.9" height="106.2">
											<feColorMatrix  type="matrix" values="1 0 0 0 0  0 1 0 0 0  0 0 1 0 0  0 0 0 1 0"/>
										</filter>
									</defs>
									<mask maskUnits="userSpaceOnUse" x="-7.3" y="0.2" width="141.9" height="106.2" id="mask-2_1_">
										<g class="st1">
											<path id="path-1_1_" class="st2" d="M117.3,20.8c18.1,29.4,8.7,67.8-21,85.8c-29.7,18-68.4,8.7-86.5-20.7
												S1.2,18,30.9,0.1L117.3,20.8z"/>
										</g>
									</mask>
									<path id="Fill-7" class="st3" d="M117.3,20.8c18.1,29.4,8.7,67.8-21,85.8c-29.7,18-68.4,8.7-86.5-20.7S1.2,18,30.9,0.1
										C60.6-17.9,99.3-8.6,117.3,20.8"/>
								</g>
								<path id="Fill-10" class="st4" d="M70.7,1.5C58.1,1.5,45.6,5,34.5,11.7C1.6,31.6-8.8,74.3,11.2,106.9
									c9.7,15.8,25,26.9,43.1,31.2c18.1,4.3,36.9,1.4,52.8-8.2c15.9-9.6,27.1-24.9,31.5-42.8c4.4-18,1.5-36.6-8.2-52.4
									c-9.7-15.8-25-26.9-43.1-31.2C81.8,2.2,76.2,1.5,70.7,1.5 M70.9,141.1c-5.6,0-11.2-0.7-16.8-2
									c-18.4-4.4-33.9-15.7-43.8-31.7C-10,74.3,0.6,31,33.9,10.8C50.1,1,69.1-1.9,87.5,2.5c18.4,4.4,33.9,15.7,43.8,31.7
									c9.8,16,12.8,34.9,8.4,53.1c-4.5,18.2-15.8,33.7-32,43.5C96.4,137.6,83.8,141.1,70.9,141.1"/>
								<path id="Fill-37" class="st5" d="M131.4,51c0,0-2.7,0,1.5,17.8c3.2,13.4-3.5,27.5-9,35.5c-9.1,13.2-27.9,20.6-45,18.6
									s-30.3,3.8-39.9-3.5s15.6,17.7,50.1,17c19.8-0.4,33.9-7.5,40.3-15.8c8.3-10.6,17.3-35.6,9.3-51.7
									C130.7,52.8,131.4,51,131.4,51"/>
							</g>
							<path id="Fill-15" class="st6" d="M111.7,81.2c1.5-1.1,4.1-3.8,5.7-2.1c1.6,1.7,1.6,0.8,2.1,0.5c0.5-0.4,3.6-0.8,2.8,1.1
								c-0.9,1.8-0.3,2-0.3,2s2-1.3,2.7-0.3c0.8,1,0,1.7,0,2.8s0.9,0,0.8,1.8c-0.1,1.8-1.4,2.8-2.3,2.7c-0.9-0.1-2.2,2.1-3.8,1.5
								c-1.6-0.6-2.5-0.6-3.4-0.7c-0.9-0.1-2.4,0.3-2.4-0.8c0-1.1,0.8-2.4,0.8-2.4s-1.5,0.8-2.7,0.1s-1.3-2.2-0.9-3.3
								C111.1,82.9,110.2,82.3,111.7,81.2"/>
							<path id="Fill-17" class="st6" d="M28.7,64.8c1.5-1.1,4.1-3.8,5.7-2.1c1.6,1.7,1.6,0.8,2.1,0.5c0.5-0.4,3.6-0.8,2.8,1.1
								c-0.9,1.8-0.3,2-0.3,2s2-1.3,2.7-0.3c0.8,1,0,1.7,0,2.8c0,1.1,0.9,0,0.8,1.8c-0.1,1.8-1.4,2.8-2.3,2.7
								c-0.9-0.1-2.2,2.1-3.8,1.5c-1.6-0.6-2.5-0.6-3.4-0.7c-0.9-0.1-2.4,0.3-2.4-0.8c0-1.1,0.8-2.4,0.8-2.4s-1.5,0.8-2.7,0.1
								s-1.3-2.2-0.9-3.3C28.1,66.5,27.1,65.8,28.7,64.8"/>
							<g id="山葵醬眼睛" transform="translate(33.600000, 35.797297)">
								<g id="Group-17" transform="translate(0.205158, 0.378346)">
									<path id="Fill-25" class="st7" d="M40.2,23.6C38.4,34,28.3,41,17.8,39.1C7.3,37.3,0.2,27.3,2.1,16.8S14.1-0.6,24.6,1.3
										S42.1,13.1,40.2,23.6"/>
									<path id="Fill-27" class="st8" d="M16.6,37.6c-9.2-2.3-15-11.7-13.3-20.7C5.1,6.6,16-0.3,26.4,3.2
										c8.7,3,13.4,11.5,12.2,20.3C36.4,33.3,27,40.2,16.6,37.6 M40.7,23.9C40.7,23.8,40.7,23.8,40.7,23.9
										C42.3,12.6,34.6,2.1,23,0.9C12.7-0.1,2.9,6.8,1,17c-2,11.1,6.2,21.7,17.5,22.9C29,41.1,38.4,34.2,40.7,23.9
										C40.7,23.9,40.7,23.9,40.7,23.9"/>
								</g>
								<g id="右" transform="translate(47.794842, 8.364897)">
									<path id="Fill-19" class="st7" d="M40.4,23c-1.9,10.4-11.9,17.4-22.5,15.5C7.4,36.7,0.4,26.7,2.3,16.2S14.2-1.2,24.8,0.7
										S42.3,12.5,40.4,23"/>
									<path id="Fill-21" class="st8" d="M16.8,37c-9.2-2.3-15-11.7-13.3-20.7C5.3,6,16.2-0.9,26.5,2.6c8.7,3,13.4,11.5,12.2,20.3
										C36.5,32.7,27.1,39.6,16.8,37 M40.8,23.3C40.8,23.2,40.8,23.2,40.8,23.3C42.5,12,34.7,1.5,23.2,0.3
										C12.9-0.7,3,6.2,1.2,16.5c-2,11.1,6.2,21.7,17.5,22.9C29.2,40.5,38.6,33.6,40.8,23.3C40.8,23.3,40.8,23.3,40.8,23.3"/>
									<path id="Fill-35" class="st8" d="M42.4,28.3c-0.4-0.1-0.7,0.2-0.9,0.5c-0.5,0.6-5.3,4.3-7.4,5.6c-2.1,1.3-5.4,3.1-5.5,3.1
										L25,39.1l3-0.3c0.1,0,2.8-1,3.9-1.5c1.1-0.6,10.9-5.5,10.9-8.5C42.8,28.5,42.7,28.3,42.4,28.3"/>
								</g>
							</g>
							<g id="Group-41" transform="translate(17.558103, 22.654262)">
								<path id="Fill-39" class="st8" d="M45.3,108.1c-11.3-3.6-22.5-8.9-30.7-17.6C10.4,86.2,8.5,80.5,6.3,75
									c-1-2.6-2-5.1-2.1-7.9c-0.1-3,0.3-5.6,0-8.5c-0.4-3.4-1-7-0.3-10.5C4.4,45.2,6,42.7,7,40c2.1-6.1,4.1-11.3,7.8-16.7
									c3.6-5.2,7.3-10.5,12.8-14c6-3.9,12.9-6.2,20-7.2c22.6-3.2,53.6,6.5,65.5,27.2c5,8.6,7.6,18.8,8.9,28.5
									c0.8,5.4,0.3,9.9-1.2,15.2c-0.7,2.5-1.5,4.9-1.8,7.5c-0.3,2.9-0.4,4-2.4,6c-3.7,3.6-4.6,9.1-8.1,13.1
									c-4.7,5.2-11.7,8.4-18.4,10.3C75.5,114.1,59.7,112.4,45.3,108.1c-0.8-0.2-3.5,1-2.4,1.3c12.4,3.7,25.6,5.4,38.5,3.6
									c10.5-1.4,22.7-5.3,29.8-13.5c1.7-2,3.2-3.9,4.3-6.3c0.8-1.7,1.2-3.8,2.4-5.2c0.8-0.8,1.4-0.8,2.2-1.5
									c1.2-1.2,1.6-2.2,1.8-3.9c0.4-3.2,0.7-6.1,1.6-9.3c3.4-11.4,1.3-22.8-2.7-33.9c-4.4-12.1-10.9-21.3-22.2-28
									C87.4,4.9,73.8,0.7,60.6,0.1c-12.2-0.6-24.9,2-35.3,8.7c-5.6,3.7-9.5,9-13.3,14.5c-4,5.7-5.9,11.5-8.3,17.9
									c-1.3,3.4-2.9,6.3-3,10c-0.2,4.2,0.9,8.2,0.8,12.4C1.3,67.4,1.2,70.3,2.5,74c1.3,3.7,2.9,7.5,4.6,11
									c6.2,13,22.8,20.3,35.8,24.4C43.7,109.7,46.4,108.5,45.3,108.1"/>
							</g>
							<g id="Group-14" transform="translate(51.219646, 10.014947)">
								<path id="Fill-13" class="st9" d="M18.3,5.2l0,0.5c0,0-0.3,0.7-2.5,2.4c-2.1,1.7-4,2.6-5.3,3.3c-1.3,0.7-0.2,1.1-1.6,1.2
									c-1.3,0.1-2.3,0.1-2.9,1.2c-0.6,1.1-1.3,2.8-2.1,2.7c-0.8-0.1-0.8-1.2-0.3-1.9C4,13.8,5.8,11.7,8,10.8
									C10.2,10,17.1,5.2,18.3,5.2"/>
								<path id="Fill-42" class="st9" d="M43.8,19.1c-0.1,0-0.8-0.1-0.6,0.1c1.3,0.9,3,1.1,4.5,1.5c3.3,0.9,6.1,2.2,8.9,4
									c3.5,2.3,5.9,2.7,9.7,3.2c1.2,2.1,4.1,2.5,6.3,3.8c0.3,0.2,1.9,1,1.9,0.2c0-3.7,0.4-4.6,0.9-8.1c0.5-3.9-4.1-6.1-7.2-9
									c0.2-0.7,0.4-1.3,0.7-1.9c0.1-0.2-0.8-0.6-1-0.7c-1.2-0.4-2.3-0.7-3.5-1c-0.6-2.1,0.1-3.6,1.8-5.2c0.3-0.3-1.1-0.7-1.4-0.8
									c-3.4-0.6-6.4-0.5-9.7-0.4c-2.6,0.1-6.2,0.4-8.2-1.8c-0.3-0.3,0.5-1.1-0.1-1.5c-3.3-1.7-10.7,0.8-11.7,0.7
									c-4.9-0.6-9.4-1-12.5,0.1c-1.2,0.4-2.8,0.9-3,2C18,4.9,8.7,9.6,5.1,12.6c-6.8,5.7,1.9,5.1,5.5,4.8c0.5,0.3,0.9,0.6,1.4,0.9
									c1.7,0.5,2.8,1.2,4.7,1.5c2.6,0.5,5.3,0.4,7.8,0.4c6-0.2,11.6-1,17.6-1.4C44.5,18.6,43.8,19.1,43.8,19.1"/>
								<path id="Fill-44" class="st8" d="M64.2,7c0.2-0.1,0.4-0.2,0.4-0.3c0.1-0.2,0.2-0.5,0.4-0.8c0,0-0.1,0-0.1,0
									c-3.4-0.6-6.4-0.5-9.7-0.4c-2.6,0.1-6.8-0.1-8.8-2.2c-0.3-0.3,0.6-1.1,0-1.4c-3.3-1.7-10.4,0.6-11.4,0.6
									c-5.1,0-5.7-1.3-10.8-0.6c-0.3,0-5.2,2-5.4,3.1c1,0.6,0.6,1.8-3.7,6.4c-0.5,0.4-0.8,0.1-1.3,0.6c0,0-1,0.8-1.7,1
									c-0.6,0.2-1.5,0.3-1.5,0.3s-0.2,0.8,1,0.8c1.2,0,2.6-1.5,3.8-2.2c2.7-1.7,5.5-5.6,5.8-7.2c0.2-1.2,3.7-2,3.7-2
									S31.4,3,34,3.3c2.7,0.3,10.8-2.9,10.1,0.9c-0.3,1.4,7.4,2.7,9.8,3.1c2.4,0.5,9.7,0,9.7,0C63.8,6.6,64.1,7.6,64.2,7"/>
								<path id="Fill-46" class="st8" d="M45.9,12.2c-0.1,0-0.3-0.1-0.3-0.1l0-0.1l-0.1-0.1c-0.3-0.2-1.9,0.1-2.5,0.4
									c-0.9,0.4-2,0.8-3,1.3c-2.6,1.1-6,2.5-6.9,2.6c0.1-0.2,0.5-0.5,0.8-0.8c0.9-1,1.5-1.5,1.3-1.9C35,13.1,34.8,13,34.5,13
									c-0.4,0-4.3,3.9-4.5,4.4l0,0c0,0.1,0,0.2,0.1,0.3c0.1,0.1,0.2,0.2,0.5,0.2c0.4,0,1.1-0.1,2.3-0.4l0.2,0
									c1.1-0.2,5.3-1.9,7.9-2.9c0.9-0.3,1.6-0.6,1.7-0.7c0.6,0,3.1-0.4,3.6-0.8c0.1-0.1,0.2-0.2,0.2-0.3
									C46.6,12.5,46.2,12.3,45.9,12.2"/>
								<path id="Fill-48" class="st8" d="M60.1,13.8c-1.2,2.5-8.9,4.9-17.5,4.9c-0.6,0,7,1.9,7.4,1.7c2.6-0.9,10.9-3.6,10.9-6.4
									C60.9,13.8,60.2,13.6,60.1,13.8"/>
								<path id="Fill-50" class="st8" d="M66,20.4c-1.7,0.2-6.3,2.8-8,3.1c-0.8,0.1,1,1.4,1.2,1.4c1.3-0.1,7.2-2.7,8.4-3.9
									C68.2,20.4,66.5,20.4,66,20.4"/>
								<path id="Fill-52" class="st8" d="M25.6,11.7c1.2-1.3,1.3-2.8,1.8-4.2c0.6-1.9,1.7-3.2,4.2-4.7c0.4-0.2-0.4-0.1-0.6,0
									c-5.3,1.8-5.3,6.2-5.8,8.9C25.1,11.9,25.5,11.7,25.6,11.7"/>
								<path id="Fill-54" class="st8" d="M36.2,2.8c-0.3,0.9-1.6,1.1-2.3,1.9C32.7,6,32,7.5,32,9.1c0,0.2,0.9,0.1,1.2-0.4
									c1.1-1.6,1.1-2.8,2.3-4.2C36.2,3.8,36.7,3.8,37,3C37,3,36.9,3,36.8,3c-0.1-0.1-0.2-0.1-0.3-0.2C36.4,2.7,36.2,2.7,36.2,2.8"
									/>
								<path id="Fill-56" class="st8" d="M73.3,20.7l-4.6-4.5l-1.6-1.4c-0.1-0.5-0.3-0.9-0.8-1.3c-1.8-1.5-6.9-2.3-9.1-3
									c-2.2-0.8-6.5-1.3-10-2.9c-3.5-1.6-7.9-0.7-7.9-0.7c-4.1,2.1-12.5,5.5-14.5,5.9c-1.7,0.3-3.8,0-3.8,0s-3.1,0.9,0.2,1.1
									C24.5,14,37,10.6,40.6,9.5c3.6-1.1,11.4,2.4,15.5,2.9c4.1,0.5,8.4,2.7,9,6.2c0.3,1.6,2.1,0.1,2.2-0.1
									c0.6,0.4,2.3,1.6,2.7,2.3c0.5,0.8,0.5,3,0.3,4.5c-0.3,1.5,0.8,3.5,0.8,3.5l0.1,1.1c0,0,2.5,0.6,2.8,0.8
									c0.3,0.1,0.3-1.4,0.3-1.4v-3.7L73.3,20.7z"/>
								<path id="Fill-58" class="st8" d="M75,33c0-3.7,0-5.5,0.5-9c0.5-3.9-4.1-6.1-7.2-9c0.2-0.7,0.4-1.3,0.7-1.9
									c0.1-0.2-0.8-0.6-1-0.7c-1.2-0.4-2.3-0.7-3.5-1c-0.6-2.1,0.1-3.6,1.8-5.2c0.3-0.3-1.1-0.7-1.4-0.8c-3.4-0.6-6.4-0.5-9.7-0.4
									c-2.6,0.1-6.2,0.4-8.2-1.8c-0.3-0.3,0.5-1.1-0.1-1.5c-3.3-1.7-10.5-0.2-11.5-0.2C30.2,1.7,26.1,0.9,23,1.7
									c-1.3,0.4-4.2,1.8-4.4,2.9C17,4.9,9.1,9.4,5.2,12.3c-4.3,3.2-5.1,5.3-2.9,6.5c1.3,0.7,4.6-1.1,8.3-1.4
									c0.5,0.3,0.9,0.6,1.4,0.9c1.7,0.5,2.8,1.2,4.7,1.5c2.6,0.5,5.3,0.4,7.8,0.4c8.4-0.3,16.4-1.8,24.8-1.5
									c1.9,0.1-1.7-1.1-2.8-1.1c-10.8,0-23.9,1.8-34.3-2.1c-0.4-0.1-1.3,0-1.6,0.1c-3.2,0.9-7.7,0.9-6.8-0.5
									c3.5-5.7,3.7-2.2,6.9-4.8c1.4-1.1,4.8-3,6.4-4.5c0.4,0,0.9-0.2,1.1-0.2c-0.3,0.9-0.9,1.8-1.6,2.6c0,0-4.6,4.8-5.1,4.7
									c-0.2-0.1-1,0.1-0.9,0.3c0,0.1,0,0.1,0,0.2c0,0.1,0.2,0.1,0.3,0.1c2.3-0.1,4-1.9,5.3-3c2.5-2,4.5-4.1,5.2-6.5
									c0.5-1.8,5.4-1.9,7.3-1.9c2.5,0,1.6,0.2,4.1,0.2c0.9,0.2,2,0.1,3.1,0.1c2.6,0,6.6-1.6,8.5,0c0.7,0.6-0.4,1.5,0.7,2.2
									c3.5,2.3,12.8,1,17.8,1.3c-1.3,1.4-1.9,2.9-1.4,4.7C57.9,9.8,54.4,9,50.8,7.9c-3.2-1-5.5-1.9-8.9-1.8
									c-6.7,0.2-12.9,6.8-19.3,6.3c-0.7-0.1-3.5,0.8-1.9,0.9c6,0.4,10.1-2.3,14.7-4.3c6.8-2.9,11.4-1,18.5,1c2,0.5,4,0.6,5.9,1.3
									c6.9,2.4,5.1,2.6,6,7c0.1,0.6,1,0.6,1.2,0.1c0.3-0.8,0.6-1.6,0.8-2.4c0.9,0.9,2.1,1.7,3,2.7c1.9,1.9,1.8,3.6,1.2,5.5
									c-0.7,2,0.9,3.4,0.4,5.3c-1.1-0.3-3.3-1-3.9-1.5c-0.1-0.1-0.5-0.2-1-0.4c-0.5-0.4-1.4-0.8-1.8-0.8c-3-0.3-5.4-0.8-8-2.5
									c-1.4-0.9-2.7-2.1-4.3-2.8c-3.1-1.3-6-1.6-9.2-2.6c-0.1,0-1.4,0.1-1.1,0.3c1.3,0.9,3,1.1,4.5,1.5c3.3,0.9,6.1,2.2,8.9,4
									c3.5,2.3,5.9,2.7,9.7,3.2c1.2,2.1,4.5,3.4,6.7,4.8C73.3,32.9,75,33.7,75,33"/>
							</g>
						</g>
					</g>
				</g>
			</g>
		</g>
	</g>
</g>
</svg>
