<?xml version="1.0" encoding="UTF-8"?>
<svg width="120px" height="120px" viewBox="0 0 120 120" version="1.1" xmlns="http://www.w3.org/2000/svg" xmlns:xlink="http://www.w3.org/1999/xlink">
    <!-- Generator: Sketch 61 (89581) - https://sketch.com -->
    <title>IMG-流程/諮詢</title>
    <desc>Created with Sketch.</desc>
    <g id="IMG-流程/諮詢" stroke="none" stroke-width="1" fill="none" fill-rule="evenodd">
        <g id="Group" transform="translate(0.000000, 7.000000)">
            <g id="Group-13" transform="translate(46.336634, 51.089109)">
                <path d="M28.4067883,54.6534653 L3.67241963,54.6534653 C1.65207013,54.6534653 0,52.9730359 0,50.9238602 L0,3.73223906 C0,1.68042944 1.65207013,0 3.67241963,0 L28.4067883,0 C30.4245443,0 32.0792079,1.68042944 32.0792079,3.73223906 L32.0792079,50.9238602 C32.0792079,52.9730359 30.4245443,54.6534653 28.4067883,54.6534653 Z" id="Stroke-5" stroke="#73BEA5" stroke-width="2" fill="#F4D964"></path>
                <path d="M28.4067883,41.5841584 L3.67241963,41.5841584 C1.65207013,41.5841584 1.08058776e-12,40.5978194 1.08058776e-12,39.3950423 L1.08058776e-12,11.6956125 C1.08058776e-12,10.4912895 1.65207013,9.5049505 3.67241963,9.5049505 L28.4067883,9.5049505 C30.4245443,9.5049505 32.0792079,10.4912895 32.0792079,11.6956125 L32.0792079,39.3950423 C32.0792079,40.5978194 30.4245443,41.5841584 28.4067883,41.5841584 Z" id="Stroke-5" stroke="#73BEA5" stroke-width="2.37623762" fill="#FFFFFF"></path>
                <line x1="0" y1="9.5049505" x2="30.8910891" y2="9.5049505" id="Stroke-7" stroke="#73BEA5" stroke-width="2" stroke-linecap="round" stroke-linejoin="round"></line>
                <line x1="0" y1="41.5841584" x2="32.0792079" y2="41.5841584" id="Stroke-9" stroke="#73BEA5" stroke-width="2" stroke-linecap="round" stroke-linejoin="round"></line>
                <path d="M20.1980198,48.1188119 C20.1980198,46.4773319 18.8670365,45.1485149 17.2291179,45.1485149 C15.588409,45.1485149 14.2574257,46.4773319 14.2574257,48.1188119 C14.2574257,49.7602918 15.588409,51.0891089 17.2291179,51.0891089 C18.8670365,51.0891089 20.1980198,49.7602918 20.1980198,48.1188119" id="Fill-11" fill="#73BEA5"></path>
            </g>
            <path d="M55.9541179,83.1817669 C56.2102506,83.1817669 56.4316987,83.0883852 56.6184621,82.9016218 C56.8052255,82.7148584 56.8986072,82.4934103 56.8986072,82.2372776 L56.8986072,82.2372776 L56.8986072,78.0591128 C56.8986072,77.9737352 56.9359599,77.9310465 57.0106653,77.9310465 L57.0106653,77.9310465 L61.3649213,77.9310465 C61.4396267,77.9310465 61.4769794,77.9737352 61.4769794,78.0591128 L61.4769794,78.0591128 L61.4769794,82.2372776 C61.4769794,82.4934103 61.5703611,82.7148584 61.7571245,82.9016218 C61.943888,83.0883852 62.165336,83.1817669 62.4214687,83.1817669 L62.4214687,83.1817669 L62.9497424,83.1817669 C63.2058751,83.1817669 63.4273232,83.0883852 63.6140866,82.9016218 C63.8008501,82.7148584 63.8942318,82.4934103 63.8942318,82.2372776 L63.8942318,82.2372776 L63.8942318,71.9919693 C63.8942318,71.7358366 63.8008501,71.5143886 63.6140866,71.3276251 C63.4273232,71.1408617 63.2058751,71.04748 62.9497424,71.04748 L62.9497424,71.04748 L62.4214687,71.04748 C62.165336,71.04748 61.943888,71.1408617 61.7571245,71.3276251 C61.5703611,71.5143886 61.4769794,71.7358366 61.4769794,71.9919693 L61.4769794,71.9919693 L61.4769794,75.7058936 C61.4769794,75.7805989 61.4396267,75.8179516 61.3649213,75.8179516 L61.3649213,75.8179516 L57.0106653,75.8179516 C56.9359599,75.8179516 56.8986072,75.7805989 56.8986072,75.7058936 L56.8986072,75.7058936 L56.8986072,71.9919693 C56.8986072,71.7358366 56.8052255,71.5143886 56.6184621,71.3276251 C56.4316987,71.1408617 56.2102506,71.04748 55.9541179,71.04748 L55.9541179,71.04748 L55.4098359,71.04748 C55.1537032,71.04748 54.9322551,71.1408617 54.7454917,71.3276251 C54.5587283,71.5143886 54.4653465,71.7358366 54.4653465,71.9919693 L54.4653465,71.9919693 L54.4653465,82.2372776 C54.4653465,82.4934103 54.5587283,82.7148584 54.7454917,82.9016218 C54.9322551,83.0883852 55.1537032,83.1817669 55.4098359,83.1817669 L55.4098359,83.1817669 L55.9541179,83.1817669 Z M68.6414187,72.520243 C69.0469621,72.520243 69.3858043,72.3975128 69.6579453,72.1520523 C69.9300863,71.9065918 70.0661568,71.591762 70.0661568,71.2075629 C70.0661568,70.8233639 69.9300863,70.5112021 69.6579453,70.2710777 C69.3858043,70.0309533 69.0469621,69.9108911 68.6414187,69.9108911 C68.2145308,69.9108911 67.8676844,70.0309533 67.6008795,70.2710777 C67.3340746,70.5112021 67.2006722,70.8233639 67.2006722,71.2075629 C67.2006722,71.591762 67.3367427,71.9065918 67.6088837,72.1520523 C67.8810247,72.3975128 68.225203,72.520243 68.6414187,72.520243 Z M68.8655348,83.1817669 C69.1323397,83.1817669 69.3564558,83.0883852 69.5378831,82.9016218 C69.7193105,82.7148584 69.8100241,82.4934103 69.8100241,82.2372776 L69.8100241,82.2372776 L69.8100241,74.9535037 C69.8100241,74.6866988 69.7193105,74.4625827 69.5378831,74.2811554 C69.3564558,74.0997281 69.1323397,74.0090144 68.8655348,74.0090144 L68.8655348,74.0090144 L68.3692777,74.0090144 C68.1024727,74.0090144 67.8783566,74.0997281 67.6969293,74.2811554 C67.515502,74.4625827 67.4247883,74.6866988 67.4247883,74.9535037 L67.4247883,74.9535037 L67.4247883,82.2372776 C67.4247883,82.4934103 67.515502,82.7148584 67.6969293,82.9016218 C67.8783566,83.0883852 68.1024727,83.1817669 68.3692777,83.1817669 L68.3692777,83.1817669 L68.8655348,83.1817669 Z" id="Hi" fill="#73BEA5" fill-rule="nonzero"></path>
            <g id="Group-2" transform="translate(31.685582, 54.206491) rotate(1.000000) translate(-31.685582, -54.206491) translate(1.185582, 29.706491)">
                <path d="M15.8645776,33.1455457 C18.1859307,31.0248626 27.9322739,32.1403595 31.987066,32.434118 C35.4500275,32.6846591 45.3596343,33.0572973 49.9217393,32.1542616 C59.727245,30.2130976 62.0718919,19.9678136 59.7862013,12.9157941 C57.5367914,5.97589862 51.401625,2.03584646 36.9128035,0.381792189 C30.3358771,-0.369226422 25.8362329,0.163891015 21.2483603,0.489987224 C16.7169704,0.812154564 8.07389341,2.03584646 3.99085999,8.2558521 C0.114998202,12.7175373 -1.23790473,20.9935508 1.27722077,27.7173585 C2.66228169,31.4189585 4.34542239,35.3668684 6.45445026,38.2047214 C8.20087623,40.5550923 14.2653363,48.4361033 15.3791157,48.6996398 C17.5901834,49.1919575 12.9606703,35.7981374 15.8645776,33.1455457" id="Fill-1" stroke="#73BEA5" stroke-width="2.37623762" fill="#FEFFF6"></path>
                <path d="M16.8937415,16.6318485 C20.6339703,16.1144264 24.3741991,15.5849497 28.1149697,15.0823641 C30.0281593,14.8255076 31.9478508,14.7930528 33.8610404,14.5463964 C36.6568655,14.1856846 39.4163882,13.2964233 42.2105878,12.9310751 C42.9279662,12.8374198 43.662683,12.7437646 44.381145,12.8550382 C44.5176853,12.8754383 44.5344819,12.8837838 44.7008227,12.9449843 C44.7793875,12.9755845 44.7203284,12.9579662 44.6742732,12.8921293 C44.9408518,13.2713868 45.3260905,12.6185818 45.0573446,12.2365426 C44.9441028,12.0742686 44.7988933,12.0241955 44.6553092,11.9843225 C44.1665817,11.8489396 43.6605157,11.8749035 43.1674535,11.906431 C40.4203928,12.0872505 37.7090927,13.0061847 34.9761195,13.4549881 C33.0358386,13.7739724 31.0895975,13.8249728 29.1455238,14.0308289 C26.7912874,14.2811944 24.4397601,14.6623064 22.0882328,14.9877815 C20.3570969,15.2260924 18.6248774,15.4653306 16.8937415,15.7045688 C16.548598,15.75186 16.5453471,16.680067 16.8937415,16.6318485" id="Fill-15" fill="#73BEA5" transform="translate(30.891089, 14.257426) rotate(4.000000) translate(-30.891089, -14.257426) "></path>
                <path d="M20.3923715,23.4704849 C23.0417003,22.9530629 25.691029,22.4235861 28.3407415,21.9210005 C29.6959174,21.664144 31.0556989,21.6316892 32.4108749,21.3850328 C34.391251,21.024321 36.3459129,20.1350598 38.3251376,19.7697115 C38.8332806,19.6760563 39.3537051,19.582401 39.8626157,19.6936746 C39.9593317,19.7140748 39.9712293,19.7224203 40.089054,19.7836207 C40.1447041,19.814221 40.1028706,19.7966026 40.0702481,19.7307658 C40.2590747,20.1100232 40.5319521,19.4572183 40.3415903,19.075179 C40.2613774,18.9129051 40.1585207,18.862832 40.0568153,18.8229589 C39.7106333,18.6875761 39.3521699,18.7135399 39.0029175,18.7450674 C37.0570829,18.925887 35.1365786,19.8448212 33.2007226,20.2936246 C31.8263569,20.6126088 30.4477695,20.6636092 29.0707173,20.8694653 C27.4031332,21.1198308 25.737468,21.5009428 24.0718029,21.826418 C22.8455816,22.0647289 21.6185928,22.303967 20.3923715,22.5432052 C20.1478949,22.5904965 20.1455921,23.5187035 20.3923715,23.4704849" id="Fill-15" fill="#73BEA5" transform="translate(30.307159, 21.096062) rotate(4.000000) translate(-30.307159, -21.096062) "></path>
            </g>
            <g id="Group-3" transform="translate(38.019802, 0.000000)">
                <path d="M21.1527702,37.1876855 C24.2479075,34.8083824 37.2430318,36.0599155 42.6494213,36.3894983 C47.2667033,36.6705931 60.4795125,37.088675 66.5623191,36.075513 C79.6363266,33.8976217 82.7625226,22.4029128 79.714935,14.490891 C76.7157219,6.70466674 68.5355001,2.28412041 49.2170714,0.428352212 C40.4478362,-0.414254034 34.4483105,0.183877724 28.3311471,0.549741764 C22.2892938,0.911197803 10.7651912,2.28412041 5.32114665,9.26266333 C0.153330936,14.2684565 -1.65053964,23.55374 1.70296103,31.0975242 C3.54970892,35.2505388 5.79389652,39.6799011 8.60593368,42.8638338 C10.9345016,45.5008353 19.0204484,54.3429452 20.5054876,54.6386203 C23.4535778,55.1909767 17.2808938,40.1637639 21.1527702,37.1876855" id="Fill-1" fill="#73BEA5" transform="translate(40.396040, 27.326733) scale(-1, 1) translate(-40.396040, -27.326733) "></path>
                <path d="M17.9855332,18.4896299 C24.0634049,17.9253999 30.1412767,17.3480247 36.2200289,16.7999733 C39.328962,16.5198806 42.4484607,16.4844898 45.5573938,16.21552 C50.1006096,15.8221768 54.584834,14.8524696 59.1254083,14.4540706 C60.2911482,14.351943 61.485063,14.2498153 62.6525638,14.3711551 C62.8744418,14.3934007 62.9017363,14.4025012 63.17204,14.4692381 C63.2997079,14.5026065 63.2037369,14.4833944 63.1288971,14.4116017 C63.5620874,14.8251682 64.1881003,14.113308 63.7513881,13.6967081 C63.5673702,13.5197542 63.3314047,13.4651513 63.0980807,13.4216712 C62.3038984,13.2740411 61.4815411,13.3023537 60.6803151,13.3367334 C56.2163415,13.5339105 51.8104788,14.535975 47.3693973,15.0253788 C44.2164408,15.3732196 41.0537992,15.4288336 37.8946794,15.6533122 C34.0690452,15.9263268 30.2478133,16.3419156 26.4265815,16.6968345 C23.6134857,16.9567039 20.798629,17.2175844 17.9855332,17.478465 C17.4246749,17.5300344 17.4193921,18.5422105 17.9855332,18.4896299" id="Fill-15" fill="#FFFFFF" transform="translate(40.731223, 15.900408) rotate(4.000000) translate(-40.731223, -15.900408) "></path>
                <path d="M22.8652488,26.8696071 C26.6054776,26.352185 30.3457063,25.8227082 34.0864769,25.3201226 C35.9996665,25.0632661 37.9193581,25.0308114 39.8325477,24.7841549 C42.6283727,24.4234431 45.3878954,23.5341819 48.182095,23.1688337 C48.8994734,23.0751784 49.6341902,22.9815231 50.3526522,23.0927967 C50.4891925,23.1131969 50.5059892,23.1215424 50.6723299,23.1827429 C50.7508948,23.2133431 50.6918357,23.1957248 50.6457804,23.1298879 C50.9123591,23.5091453 51.2975978,22.8563404 51.0288518,22.4743011 C50.91561,22.3120272 50.7704005,22.2619541 50.6268165,22.222081 C50.1380889,22.0866982 49.6320229,22.112662 49.1389607,22.1441896 C46.3919001,22.3250091 43.6805999,23.2439433 40.9476267,23.6927467 C39.0073458,24.0117309 37.0611048,24.0627313 35.1170311,24.2685874 C32.7627946,24.5189529 30.4112673,24.9000649 28.0597401,25.2255401 C26.3286042,25.463851 24.5963847,25.7030892 22.8652488,25.9423273 C22.5201053,25.9896186 22.5168543,26.9178256 22.8652488,26.8696071" id="Fill-15" fill="#FFFFFF" transform="translate(36.862596, 24.495184) rotate(4.000000) translate(-36.862596, -24.495184) "></path>
            </g>
        </g>
    </g>
</svg>