<?xml version="1.0" encoding="UTF-8"?>
<svg width="120px" height="120px" viewBox="0 0 120 120" version="1.1" xmlns="http://www.w3.org/2000/svg" xmlns:xlink="http://www.w3.org/1999/xlink">
    <!-- Generator: Sketch 61 (89581) - https://sketch.com -->
    <title>IMG-流程/上架</title>
    <desc>Created with Sketch.</desc>
    <g id="IMG-流程/上架" stroke="none" stroke-width="1" fill="none" fill-rule="evenodd">
        <circle id="Oval" fill="#F4F6E3" cx="57.5" cy="47.5" r="47.5"></circle>
        <g id="Group-19" transform="translate(9.000000, -1.000000)">
            <rect id="Rectangle" stroke="#73BEA5" stroke-width="3" fill="#F4D964" x="1.5" y="19.5" width="44" height="32" rx="3"></rect>
            <rect id="Rectangle" stroke="#73BEA5" stroke-width="3" fill="#FFFFFF" x="1.5" y="19.5" width="44" height="27" rx="3"></rect>
            <path d="M16.7213877,27.3037501 C16.9565562,27.0460205 17.0493172,26.7084215 16.9748471,26.3782054 C16.8958044,26.027183 16.6423449,25.7379083 16.2980843,25.6043453 C15.6552902,25.3546697 14.8838067,25.5634039 14.3749281,26.1198046 C12.8626637,27.7782679 11.3477862,29.4340466 9.83356204,31.0898252 L9.2789562,31.6958926 C9.0431344,31.9542934 8.95037347,32.2912212 9.02549676,32.6207661 C9.10453952,32.9717885 9.35865221,33.2624055 9.70552583,33.3966397 C9.88582172,33.4664415 10.0765695,33.5 10.2692771,33.5 C10.7611713,33.5 11.2635175,33.2798559 11.6280288,32.8805092 L16.7213877,27.3037501 Z" id="Fill-1" fill="#F4D964"></path>
            <path d="M11.6867099,38.4603372 C11.8103379,38.4867791 11.9412382,38.5 12.0741218,38.5 C12.615573,38.5 13.197352,38.2849859 13.5622861,37.9273249 C15.2699397,36.2733169 16.9769323,34.6165256 18.6812803,32.96043 C18.9457253,32.7050573 19.0534867,32.3912342 18.9748143,32.1003737 C18.8987863,31.8143841 18.6574803,31.6091117 18.3143629,31.5381362 C17.6830004,31.4052311 16.8936321,31.6285952 16.4374644,32.0697568 L11.317148,37.0380434 C11.0540252,37.2941119 10.946925,37.6072393 11.0249363,37.8980997 C11.1009642,38.1840893 11.3422703,38.38797 11.6867099,38.4603372" id="Fill-3" fill="#F4D964"></path>
            <g id="Group-9" transform="translate(45.000000, 37.500000)" fill="#73BEA5">
                <path d="M31.5094516,42.315172 L32.0407419,42.3571505 C34.4813978,42.5532688 36.8905699,43.0878387 39.2006989,43.9451183 L39.6152366,44.099914 L39.5056989,44.5282258 C39.0583656,46.280172 38.5244516,47.9160215 37.9210108,49.3924839 C36.3730538,53.1771075 34.3554624,55.9057097 32.2394839,57.077172 L31.5094516,57.4812151 L31.5094516,42.315172 Z M31.5094516,32.5689462 L41.0936667,32.5689462 L41.0766129,33.0772796 C40.9913441,35.5638495 40.755871,38.0084409 40.3754409,40.3415269 L40.2809892,40.9187312 L39.7280538,40.7265484 C37.2198387,39.8554946 34.6093011,39.3209247 31.9672796,39.1372688 L31.5094516,39.1057849 L31.5094516,32.5689462 Z M31.5094516,22.8214086 L31.9672796,22.7899247 C34.6112688,22.6069247 37.2218065,22.0723548 39.7273978,21.201957 L40.2803333,21.0097742 L40.3747849,21.5863226 C40.7552151,23.9194086 40.9906882,26.364 41.0766129,28.8531935 L41.0936667,29.3615269 L31.5094516,29.3615269 L31.5094516,22.8214086 Z M31.5094516,4.44663441 L32.2394839,4.85067742 C34.3554624,6.02213978 36.3730538,8.75074194 37.9210108,12.5353656 C38.5224839,14.0059247 39.0563978,15.6417742 39.5063548,17.3989677 L39.6165484,17.8279355 L39.2013548,17.9820753 C36.8931935,18.8393548 34.4840215,19.3732688 32.0413978,19.5706989 L31.5094516,19.6133333 L31.5094516,4.44663441 Z M38.9376774,5.74665591 C42.4658387,7.00469892 45.6404624,8.95604301 48.3723441,11.5469032 L48.7481828,11.9030645 L48.3736559,12.2598817 C46.7942151,13.7652043 45.0298065,15.0750645 43.1309355,16.1527312 L42.5806237,16.4656022 L42.4133656,15.8549462 C41.9706237,14.2354946 41.4583548,12.7098387 40.8896774,11.3212688 C40.1432473,9.4952043 39.2931828,7.86722581 38.3637527,6.48390323 L37.5320538,5.24488172 L38.9376774,5.74665591 Z M50.8982688,14.2886237 L51.2295054,14.7221828 C54.3700215,18.8236129 56.2446237,23.7016452 56.6512903,28.8302366 L56.6932688,29.3615269 L44.301086,29.3615269 L44.286,28.8853333 C44.1876129,25.8464839 43.8767097,22.8758495 43.3624731,20.058043 L43.2975376,19.699914 L43.6215591,19.5326559 C46.1396129,18.2365699 48.4536774,16.5987527 50.5007849,14.6638065 L50.8982688,14.2886237 Z M56.6512903,33.0995806 C56.2439677,38.2294839 54.3693656,43.1068602 51.2295054,47.2056667 L50.8982688,47.6385699 L50.5007849,47.264043 C48.4549892,45.3304086 46.1402688,43.6925914 43.6215591,42.3958495 L43.2975376,42.2285914 L43.3624731,41.8698065 C43.8767097,39.0480645 44.1876129,36.0787419 44.286,33.0444839 L44.301086,32.5689462 L56.6932688,32.5689462 L56.6512903,33.0995806 Z M48.3723441,50.3816022 C45.6404624,52.9724624 42.4658387,54.9238065 38.9376774,56.1818495 L37.5327097,56.6829677 L38.3637527,55.4446022 C39.2931828,54.0599677 40.1432473,52.4326452 40.8896774,50.6072366 C41.457043,49.2206344 41.9699677,47.6956344 42.4133656,46.0729032 L42.5806237,45.4629032 L43.1309355,45.7751183 C45.0317742,46.8554086 46.7955269,48.1652688 48.3736559,49.6686237 L48.7481828,50.0254409 L48.3723441,50.3816022 Z M28.3020323,19.6126774 L27.7713978,19.570043 C25.330086,19.3739247 22.920914,18.8400108 20.610129,17.9820753 L20.1942796,17.8279355 L20.3044731,17.3989677 C20.7537742,15.6443978 21.2870323,14.0085484 21.8891613,12.5353656 C23.4371183,8.75139785 25.4553656,6.02213978 27.572,4.85067742 L28.3020323,4.44663441 L28.3020323,19.6126774 Z M28.3020323,39.105129 L27.8442043,39.1372688 C25.1975914,39.3222366 22.5863978,39.8568065 20.0827742,40.7265484 L19.5298387,40.9187312 L19.436043,40.3415269 C19.0556129,38.0097527 18.8194839,35.5658172 18.7335591,33.0772796 L18.7165054,32.5689462 L28.3020323,32.5689462 L28.3020323,39.105129 Z M28.3020323,57.4805591 L27.572,57.077172 C25.4560215,55.9063656 23.4371183,53.1777634 21.8891613,49.3924839 C21.2870323,47.9206129 20.7537742,46.2841075 20.3044731,44.5282258 L20.1949355,44.0992581 L20.610129,43.9451183 C22.9196022,43.0884946 25.3287742,42.5545806 27.7707419,42.3571505 L28.3020323,42.315172 L28.3020323,57.4805591 Z M20.8298602,56.1195376 C17.3403978,54.8470645 14.2018495,52.8950645 11.5021075,50.3160108 L11.1275806,49.9585376 L11.5034194,49.6030323 C13.0664624,48.125914 14.8072581,46.8383548 16.6798925,45.7751183 L17.2295484,45.4629032 L17.3968065,46.0729032 C17.8402043,47.6956344 18.3524731,49.2206344 18.9211505,50.6072366 C19.6577419,52.4077204 20.4940323,54.0147097 21.4077204,55.3842581 L22.2413871,56.6337742 L20.8298602,56.1195376 Z M8.98798925,47.5664194 L8.65806452,47.1322043 C5.55231183,43.0484839 3.6973871,38.1960323 3.29268817,33.0995806 L3.25136559,32.5689462 L15.509086,32.5689462 L15.524828,33.0444839 C15.6225591,36.0793978 15.9334624,39.0487204 16.4476989,41.8698065 L16.5132903,42.2285914 L16.1892688,42.3958495 C13.7040108,43.6748817 11.414871,45.289086 9.38612903,47.1932043 L8.98798925,47.5664194 Z M3.29203226,28.8295806 C3.69673118,23.7337849 5.55165591,18.8800215 8.6574086,14.7963011 L8.98733333,14.362086 L9.38547312,14.7353011 C11.4155269,16.6394194 13.7046667,18.2536237 16.1886129,19.532 L16.5132903,19.6992581 L16.4476989,20.0573871 C15.9334624,22.8751935 15.6225591,25.845828 15.524828,28.8846774 L15.509086,29.360871 L3.25070968,29.360871 L3.29203226,28.8295806 Z M20.0827742,21.2013011 C22.5909892,22.0723548 25.2021828,22.6069247 27.8435484,22.7899247 L28.3013763,22.8214086 L28.3013763,29.3615269 L18.7165054,29.3615269 L18.7335591,28.8531935 C18.818828,26.3685914 19.054957,23.9233441 19.436043,21.5856667 L19.5298387,21.0091183 L20.0827742,21.2013011 Z M11.5027634,11.6111828 C14.2025054,9.03278495 17.3410538,7.08012903 20.8298602,5.80831183 L22.2400753,5.29473118 L21.4077204,6.5435914 C20.4927204,7.91576344 19.6564301,9.52275269 18.9211505,11.3206129 C18.353129,12.7072151 17.8408602,14.232871 17.3968065,15.8549462 L17.2295484,16.4656022 L16.6798925,16.1527312 C14.8046344,15.0875269 13.0631828,13.7993118 11.5040753,12.3241613 L11.1282366,11.9686559 L11.5027634,11.6111828 Z M29.9719892,0.5 L29.9608387,0.991935484 L29.8558925,0.993903226 C13.3878602,1.06277419 3.62376795e-13,14.5076989 3.62376795e-13,30.9639247 C3.62376795e-13,47.4253978 13.3924516,60.8703226 29.8545806,60.9346022 L29.9260753,60.9352581 C46.4990538,60.935914 59.9439785,47.4909892 59.9439785,30.9639247 C59.9439785,22.9716129 56.8231398,15.4482796 51.1553871,9.78052688 C45.4882903,4.11343011 37.964957,0.991935484 29.9719892,0.991935484 L29.9719892,0.5 Z" id="Fill-7"></path>
            </g>
            <g id="Group-12" transform="translate(43.000000, 0.500000)" fill="#73BEA5">
                <path d="M3.63926577,7.31209292 C11.1064359,3.6559673 21.0692737,2.68423223 28.3717187,7.14573012 C33.9593068,10.5590342 38.2716847,17.0080718 39.0027537,23.7080087 C40.6676829,23.9485577 42.0638414,25.2324285 42.3675974,26.9812774 C42.7467657,29.1574179 41.2892102,31.2285736 39.114089,31.6067227 C36.9369292,31.9858909 34.8667927,30.5283355 34.4876245,28.3532142 C34.1550615,26.443659 35.2346672,24.6164346 36.9740706,23.9402656 C36.300502,17.6139051 31.9839797,11.4758306 26.6357697,8.52676175 C20.0935943,4.91856183 11.2419622,5.88368645 4.68215739,9.09581069 C3.4916192,9.67863137 2.44542206,7.89601535 3.63926577,7.31209292 Z" id="Combined-Shape" transform="translate(22.769969, 17.918341) rotate(-11.000000) translate(-22.769969, -17.918341) "></path>
            </g>
            <path d="M37.5046069,91.2213413 C32.0725513,92.9869369 26.1114459,92.1200282 21.6422478,88.6155306 C18.7054021,86.3135193 15.4391234,82.5992857 15.4462992,78.6511647 C15.4482562,77.1175498 13.001972,77.1150076 13,78.6511647 C12.9915345,83.3308194 16.5931172,87.7346394 20.1235946,90.4898076 C25.1772916,94.4322085 31.9975319,95.5215645 38.1549923,93.5189036 C39.6410285,93.0358753 39.0043422,90.7332284 37.5046069,91.2213413" id="Fill-13" fill="#73BEA5"></path>
            <path d="M17,78.4996905 C17,80.4330945 15.4333717,82 13.5003095,82 C11.5672473,82 10,80.4330945 10,78.4996905 C10,76.5669055 11.5672473,75 13.5003095,75 C15.4333717,75 17,76.5669055 17,78.4996905" id="Fill-17" fill="#73BEA5"></path>
        </g>
        <rect id="Rectangle" fill="#73BEA5" x="32" y="52" width="2" height="7"></rect>
        <path d="M33,51.9375 L33.5755661,51.6677034 C34.0756373,51.433295 34.6710506,51.6486573 34.9054589,52.1487284 C34.9677233,52.2815592 35,52.4264624 35,52.5731623 L35,64.4268377 C35,64.9791224 34.5522847,65.4268377 34,65.4268377 C33.8533001,65.4268377 33.7083968,65.394561 33.5755661,65.3322966 L33,65.0625 C31.7795203,64.4904001 31,63.2640882 31,61.9161754 L31,55.0838246 C31,53.7359118 31.7795203,52.5095999 33,51.9375 Z" id="Rectangle" fill="#73BEA5" transform="translate(33.000000, 58.500000) rotate(-270.000000) translate(-33.000000, -58.500000) "></path>
    </g>
</svg>