<?xml version="1.0" encoding="UTF-8"?>
<svg width="60px" height="60px" viewBox="0 0 60 60" version="1.1" xmlns="http://www.w3.org/2000/svg" xmlns:xlink="http://www.w3.org/1999/xlink">
    <!-- Generator: Sketch 61 (89581) - https://sketch.com -->
    <title>IMG/服務項目/UIUX規劃</title>
    <desc>Created with Sketch.</desc>
    <g id="IMG/服務項目/UIUX規劃" stroke="none" stroke-width="1" fill="none" fill-rule="evenodd">
        <g id="Group-35" transform="translate(8.000000, 2.000000)">
            <path d="M40.6102,55.4463 L4.1802,55.4463 C2.0182,55.4463 0.2502,53.6773 0.2502,51.5163 L0.2502,8.2393 C0.2502,6.0783 2.0182,4.3093 4.1802,4.3093 L40.6102,4.3093 C42.7722,4.3093 44.5412,6.0783 44.5412,8.2393 L44.5412,51.5163 C44.5412,53.6773 42.7722,55.4463 40.6102,55.4463 Z" id="Stroke-1" stroke="#A3B87E" stroke-width="2.5" stroke-linecap="round" stroke-linejoin="round"></path>
            <path d="M38.7147,51.3496 L6.0757,51.3496 C5.0837,51.3496 4.2727,50.5376 4.2727,49.5456 L4.2727,9.8316 C4.2727,8.8396 5.0837,8.0276 6.0757,8.0276 L38.7147,8.0276 C39.7067,8.0276 40.5187,8.8396 40.5187,9.8316 L40.5187,49.5456 C40.5187,50.5376 39.7067,51.3496 38.7147,51.3496 Z" id="Stroke-3" stroke="#A3B87E" stroke-width="2" stroke-linecap="round" stroke-linejoin="round"></path>
            <path d="M19.2821,19.0059 C19.2831,19.2949 19.5341,19.5279 19.8441,19.5259128 L24.1221,19.4919 C24.4311,19.4889 24.6791,19.2519 24.678103,18.9619 L24.6691,16.2459 C24.6671,15.9559 24.4171,15.7219 24.1071,15.7259 L19.8291,15.7599 C19.5191,15.7609 19.2701,15.9979 19.272088,16.2879 L19.2821,19.0059 Z" id="Stroke-5" stroke="#A3B87E" stroke-width="1.209"></path>
            <path d="M19.3153,27.8926 C19.3163,28.1826 19.5663,28.4156 19.8773,28.4136128 L24.1543,28.3796 C24.4633,28.3756 24.7123,28.1396 24.711303,27.8506 L24.7013,25.1336 C24.7003,24.8426 24.4493,24.6106 24.1403,24.6135712 L19.8623,24.6456 C19.5523,24.6476 19.3033,24.8856 19.304297,25.1756 L19.3153,27.8926 Z" id="Stroke-7" stroke="#A3B87E" stroke-width="1.209"></path>
            <path d="M10.2909,27.9639 C10.2909,28.2529 10.5419,28.4859 10.8519,28.4849032 L15.1299,28.4509 C15.4389,28.4469 15.6879,28.2109 15.686903,27.9219 L15.6769,25.2049 C15.6759,24.9139 15.4259,24.6819 15.1149,24.6828968 L10.8379,24.7169 C10.5279,24.7199 10.2789,24.9559 10.279897,25.2469 L10.2909,27.9639 Z" id="Stroke-9" stroke="#A3B87E" stroke-width="1.209"></path>
            <path d="M32.3329,40.9151 C32.3339,41.2051 32.5849,41.4391 32.8949,41.4361285 L37.1729,41.4011 C37.4809,41.4001 37.7299,41.1631 37.728903,40.8731 L37.7199,38.1571 C37.7179,37.8651 37.4679,37.6341 37.1579,37.6360871 L32.8799,37.6701 C32.5699,37.6711 32.3209,37.9081 32.321897,38.1991 L32.3329,40.9151 Z" id="Stroke-11" stroke="#A3B87E" stroke-width="1.209"></path>
            <path d="M6.6551,39.4815 C6.6561,39.7715 6.9061,40.0045 7.2171,40.0025128 L11.4941,39.9685 C11.8021,39.9665 12.0521,39.7285 12.051103,39.4405 L12.0411,36.7225 C12.0401,36.4315 11.7891,36.1995 11.4801,36.2014872 L7.2011,36.2355 C6.8911,36.2375 6.6431,36.4745 6.64409699,36.7655 L6.6551,39.4815 Z" id="Stroke-13" stroke="#A3B87E" stroke-width="1.209"></path>
            <path d="M14.0106,39.4248 C14.0116,39.7148 14.2636,39.9458 14.5726,39.9448032 L18.8506,39.9098 C19.1596,39.9068 19.4076,39.6718 19.4076,39.3818 L19.3976,36.6638 C19.3976,36.3748 19.1456,36.1418 18.8366,36.1437872 L14.5586,36.1768 C14.2476,36.1798 13.9996,36.4168 14.000597,36.7078 L14.0106,39.4248 Z" id="Stroke-15" stroke="#A3B87E" stroke-width="1.209"></path>
            <path d="M28.3387,27.8233 C28.3407,28.1113 28.5907,28.3443 28.9007,28.3423128 L33.1797,28.3083 C33.4877,28.3053 33.7367,28.0693 33.734712,27.7793 L33.7257,25.0623 C33.7257,24.7713 33.4747,24.5383 33.1647,24.5402872 L28.8867,24.5753 C28.5767,24.5773 28.3277,24.8143 28.328697,25.1053 L28.3387,27.8233 Z" id="Stroke-17" stroke="#A3B87E" stroke-width="1.209"></path>
            <path d="M31.2293,27.9707 C31.2293,27.9707 30.6553,31.8987 31.5423,32.3417 C32.7303,32.9397 34.9963,31.3057 35.0053,34.0467 C35.0153,36.7857 35.0203,37.9007 35.0203,37.9007" id="Stroke-19" stroke="#A3B87E" stroke-width="1.209"></path>
            <path d="M9.4344,36.25 C9.4344,36.25 8.8524,33.45 10.5274,33.503 C11.4454,33.529 15.1014,33.466 15.4434,33.462993 C15.7854,33.461 16.8134,33.885 16.6854,36.193" id="Stroke-21" stroke="#A3B87E" stroke-width="1.209"></path>
            <path d="M12.9969,24.7002 C12.9969,24.7002 12.4909,21.8992 16.4479,21.9322 C18.6199,21.9502 27.2679,21.8472 28.0739,21.8412 C28.8839,21.8352 31.3099,22.2482 30.9959,24.5582" id="Stroke-23" stroke="#A3B87E" stroke-width="1.209"></path>
            <line x1="21.9813" y1="19.5098" x2="22.0013" y2="24.6288" id="Stroke-25" stroke="#A3B87E" stroke-width="1.209"></line>
            <line x1="12.9901" y1="28.5733" x2="13.0081" y2="33.0943" id="Stroke-27" stroke="#A3B87E" stroke-width="1.209"></line>
            <path d="M8.8426,8.8682 C8.7596,9.2232 8.8506,10.3302 8.8506,10.3302 L22.4006,10.2582 L35.9486,10.1842 C35.9486,10.1842 36.0296,9.0762 35.9426,8.7212 C35.6616,7.5802 34.2056,5.3572 33.6926,4.5972 C33.1796,3.8372 32.2246,3.7142 31.5256,3.7182 C30.8246,3.7222 27.8976,3.7372 27.8976,3.7372 C27.8976,3.7372 27.8316,3.2922 27.3776,1.8942 C26.9256,0.4972 25.6496,-0.0048 24.6316,0.000163064139 C23.6146,0.0062 22.3486,0.0132 22.3486,0.0132 L22.3446,0.0132 C22.3426,0.0132 21.0746,0.0192 20.0586,0.0252 C19.0396,0.0312 17.7706,0.5472 17.3316,1.9492 C16.8956,3.3512 16.8336,3.7972 16.8336,3.7972 C16.8336,3.7972 13.9056,3.8132 13.2066,3.8162 C12.5066,3.8202 11.5526,3.9532 11.0476,4.7192 C10.5426,5.4852 9.1116,7.7232 8.8426,8.8682" id="Fill-29" fill="#F4F6E3"></path>
            <path d="M8.8426,8.8682 C8.7596,9.2232 8.8506,10.3302 8.8506,10.3302 L22.4006,10.2582 L35.9486,10.1842 C35.9486,10.1842 36.0296,9.0762 35.9426,8.7212 C35.6616,7.5802 34.2056,5.3572 33.6926,4.5972 C33.1796,3.8372 32.2246,3.7142 31.5256,3.7182 C30.8246,3.7222 27.8976,3.7372 27.8976,3.7372 C27.8976,3.7372 27.8316,3.2922 27.3776,1.8942 C26.9256,0.4972 25.6496,-0.0048 24.6316,0.000163064139 C23.6146,0.0062 22.3486,0.0132 22.3486,0.0132 L22.3446,0.0132 C22.3426,0.0132 21.0746,0.0192 20.0586,0.0252 C19.0396,0.0312 17.7706,0.5472 17.3316,1.9492 C16.8956,3.3512 16.8336,3.7972 16.8336,3.7972 C16.8336,3.7972 13.9056,3.8132 13.2066,3.8162 C12.5066,3.8202 11.5526,3.9532 11.0476,4.7192 C10.5426,5.4852 9.1116,7.7232 8.8426,8.8682 Z" id="Stroke-31" stroke="#A3B87E" stroke-width="2" stroke-linecap="round" stroke-linejoin="round"></path>
            <path d="M23.91,4.7315 C23.91,3.8955 23.232,3.2175 22.395,3.2175 C21.558,3.2175 20.881,3.8955 20.881,4.7315 C20.881,5.5685 21.558,6.2465 22.395,6.2465 C23.232,6.2465 23.91,5.5685 23.91,4.7315 Z" id="Stroke-33" stroke="#A3B87E"></path>
        </g>
    </g>
</svg>