<?xml version="1.0" encoding="UTF-8"?>
<svg width="300px" height="204px" viewBox="0 0 300 204" version="1.1" xmlns="http://www.w3.org/2000/svg" xmlns:xlink="http://www.w3.org/1999/xlink">
    <!-- Generator: Sketch 61 (89581) - https://sketch.com -->
    <title>Fill 1</title>
    <desc>Created with Sketch.</desc>
    <g id="GUI-Page-20191216updated" stroke="none" stroke-width="1" fill="none" fill-rule="evenodd">
        <g id="服務項目" transform="translate(-940.000000, -321.000000)" fill="#FFFFFF">
            <g id="Dialog" transform="translate(940.000000, 321.000000)">
                <path d="M78.5452128,138.807078 C90.0381861,129.926071 138.29214,134.597554 158.367337,135.827758 C175.512391,136.876975 224.57466,138.437511 247.161552,134.655774 C295.708419,126.526558 307.31672,83.621307 296.00031,54.0888257 C284.863526,25.0258974 254.488438,8.52572772 182.754567,1.59887119 C150.192333,-1.54624821 127.914682,0.686343591 105.200215,2.05197089 C82.7653926,3.40114484 39.973688,8.52572772 19.7586696,34.5738977 C0.569353844,53.2585648 -6.12884204,87.9168946 6.323495,116.074889 C13.1809044,131.576468 21.5141011,148.109544 31.9558567,159.993919 C40.6023774,169.836813 70.6274002,202.84095 76.1417005,203.944589 C87.0886529,206.006319 64.1680247,149.915615 78.5452128,138.807078" id="Fill-1" transform="translate(150.000000, 102.000000) scale(-1, 1) translate(-150.000000, -102.000000) "></path>
            </g>
        </g>
    </g>
</svg>