<?xml version="1.0" encoding="UTF-8"?>
<svg width="120px" height="120px" viewBox="0 0 120 120" version="1.1" xmlns="http://www.w3.org/2000/svg" xmlns:xlink="http://www.w3.org/1999/xlink">
    <!-- Generator: Sketch 61 (89581) - https://sketch.com -->
    <title>IMG-流程/開發</title>
    <desc>Created with Sketch.</desc>
    <g id="IMG-流程/開發" stroke="none" stroke-width="1" fill="none" fill-rule="evenodd">
        <g id="Group-2" transform="translate(6.000000, 15.000000)">
            <path d="M105.326887,81.8729248 C107.512645,81.7116224 109.150995,79.8085636 108.988943,77.6240011 L103.48384,3.67225586 C103.321789,1.48769334 101.419039,-0.151697916 99.2356062,0.0111555203 L3.67088913,7.12552419 C1.48668123,7.28915312 -0.151668535,9.19143635 0.0111584654,11.3767744 L5.51471107,85.3277441 C5.67753807,87.5123067 7.58028787,89.1516979 9.76294503,88.9888445 L105.326887,81.8729248 Z" id="Fill-1" stroke="#73BEA5" stroke-width="3" fill="#FFFFFF"></path>
            <path d="M99.6282589,68.4580596 L95.5671308,13.9861617 C95.3607544,11.2328929 92.9626241,9.16707454 90.209146,9.37063967 L11.9862437,15.185139 C9.23233107,15.388677 7.16585476,17.7870354 7.37055339,20.5408617 C7.37058216,20.5412486 7.37061096,20.5416356 7.37180045,20.5419359 L11.4335815,75.0138427 C11.6400452,77.767083 14.0381652,79.8328662 16.7916255,79.6293571 L95.0137565,73.8148642 C97.7676644,73.6112619 99.8341391,71.2129022 99.6294387,68.4590759 C99.6294115,68.4587099 99.6293843,68.4583438 99.6282589,68.4580596 Z" id="Fill-4" stroke="#73BEA5" stroke-width="2" fill="#595757"></path>
            <g id="Group" transform="translate(19.000000, 23.000000)" stroke="#FFFFFF" stroke-linecap="round" stroke-linejoin="round" stroke-width="2.168">
                <line x1="14.4747486" y1="1.03307252" x2="9.15203552" y2="14.2653611" id="Stroke-7" transform="translate(11.813392, 7.649217) rotate(-6.000000) translate(-11.813392, -7.649217) "></line>
                <polyline id="Stroke-9" transform="translate(21.144689, 5.883017) rotate(-6.000000) translate(-21.144689, -5.883017) " points="18.9207774 1.02968301 23.3686013 5.88575985 18.9282514 10.7363509"></polyline>
                <polyline id="Stroke-11" transform="translate(3.370983, 7.650711) rotate(-6.000000) translate(-3.370983, -7.650711) " points="5.58742166 2.79737691 1.14707075 7.64665926 5.59489561 12.5040448"></polyline>
            </g>
            <path d="M33.4651607,48.3601894 C40.1547157,47.8852957 46.8442707,47.3993383 53.5347948,46.9380617 C56.9566141,46.702317 60.3900624,46.6725298 63.8118817,46.4461468 C68.8123313,46.115083 73.7478526,45.2989128 78.745395,44.9635936 C80.0284561,44.8776362 81.3425278,44.7916787 82.6275271,44.8938064 C82.8717351,44.9125298 82.9017765,44.9201894 83.1992839,44.9763596 C83.3398004,45.0044447 83.2341707,44.9882745 83.151799,44.9278489 C83.6285861,45.275934 84.3176015,44.6767851 83.8369381,44.3261468 C83.6344005,44.1772106 83.3746873,44.1312532 83.1178812,44.0946574 C82.2437716,43.9704021 81.3386515,43.9942319 80.4567892,44.0231681 C75.5435567,44.1891255 70.6942835,45.0325298 65.8062471,45.4444447 C62.3359738,45.7372106 58.8550406,45.7840191 55.3779838,45.9729553 C51.1673338,46.2027426 46.9615293,46.5525298 42.7557247,46.8512532 C39.6595161,47.0699766 36.5613693,47.2895511 33.4651607,47.5091255 C32.8478571,47.5525298 32.8420426,48.4044447 33.4651607,48.3601894" id="Fill-15" fill="#F4D964"></path>
            <path d="M25.4625289,54.4606149 C28.0831281,54.155083 30.7105416,53.875083 33.3369816,53.6052957 C38.1128581,53.115934 42.8984694,52.6512532 47.6977094,52.3695511 C49.4528878,52.2665723 51.2265622,52.1610404 52.9856346,52.2316787 C53.4928159,52.2521043 53.8082224,52.2572106 54.2657564,52.3831681 C55.4767614,52.715934 56.6644029,52.6895511 57.9162939,52.541466 C59.4855382,52.355934 61.0236314,52.021466 62.5782736,51.7627426 C63.7883051,51.5610404 65.0275409,51.3746574 66.2492541,51.5840191 C68.0307164,51.8895511 69.9669615,51.7218915 71.7630259,51.6410404 C75.9441082,51.4546574 80.120323,51.1074234 84.2838827,50.7133808 C84.3676017,50.7057213 84.4522942,50.6972106 84.5360132,50.6895511 C85.1512504,50.6299766 85.1580648,49.7780617 84.5360132,49.8384872 C80.9059187,50.1891255 77.265116,50.4844447 73.6213928,50.6946574 C71.507975,50.8163596 69.3536712,50.9669979 67.2353859,50.8393383 C66.400143,50.7899766 65.5795021,50.6001894 64.7004527,50.6487 C63.1993517,50.7312532 61.7206407,51.0452957 60.2526379,51.3125298 C58.7953433,51.5763596 57.2864545,51.875083 55.7882739,51.7993383 C55.0912646,51.7644447 54.4643456,51.5074234 53.7741507,51.435083 C52.279864,51.2767851 50.73593,51.3678489 49.2387229,51.4367851 C44.4930242,51.6546574 39.7590072,52.1108277 35.0395923,52.582317 C31.8942892,52.8955085 28.7509331,53.2291255 25.6134178,53.5916787 L25.4625289,53.6095511 C24.8502121,53.6810404 24.8414508,54.5329553 25.4625289,54.4606149" id="Fill-17" fill="#F4D964"></path>
            <path d="M25.2729364,62.0191893 C27.3882384,61.7630191 29.5035405,61.5076999 31.6188425,61.2523808 C33.6313056,61.0089765 35.6250189,60.6183382 37.6306639,60.2711042 C39.2306345,59.9953595 40.8351505,59.7434446 42.4436437,59.6140829 C43.1072678,59.5596148 43.774301,59.5238701 44.4384934,59.5604659 C44.8651901,59.5842957 45.2884778,59.6694021 45.7151745,59.6855723 C48.3077405,59.7808914 50.9326923,59.295785 53.507645,58.9059978 C55.5490848,58.5970616 57.5893882,58.2583382 59.6251462,57.8753595 L59.7302579,57.854934 C60.0876377,57.7876999 60.0921831,56.935785 59.7302579,57.0038701 C58.0183576,57.3264233 56.3030482,57.615785 54.5877388,57.8881255 C51.8775613,58.3153595 49.1469296,58.7732318 46.4191388,58.8370616 C45.4464294,58.8591893 44.4833789,58.6736574 43.5101014,58.7025936 C41.9476301,58.7459978 40.3868633,58.9732318 38.8334827,59.2200404 C36.7068172,59.5587638 34.5903788,60.042168 32.4580317,60.2991893 C30.1205746,60.5825936 27.7825494,60.8651467 25.4450923,61.1476999 C25.387707,61.1536574 25.3303217,61.1604659 25.2729364,61.1681255 C24.910443,61.2115297 24.9076022,62.0634446 25.2729364,62.0191893" id="Fill-19" fill="#F4D964" transform="translate(42.500000, 59.510427) rotate(2.000000) translate(-42.500000, -59.510427) "></path>
        </g>
    </g>
</svg>