<?xml version="1.0" encoding="UTF-8"?>
<svg width="120px" height="120px" viewBox="0 0 120 120" version="1.1" xmlns="http://www.w3.org/2000/svg" xmlns:xlink="http://www.w3.org/1999/xlink">
    <!-- Generator: Sketch 61 (89581) - https://sketch.com -->
    <title>IMG-流程/設計</title>
    <desc>Created with Sketch.</desc>
    <g id="IMG-流程/設計" stroke="none" stroke-width="1" fill="none" fill-rule="evenodd">
        <g id="Group" transform="translate(41.920844, 50.955841) rotate(20.000000) translate(-41.920844, -50.955841) translate(2.420844, 8.955841)" stroke="#73BEA5" stroke-width="2.5">
            <path d="M24.8204096,80.3794379 C4.31300541,70.8166783 -2.84217094e-13,56.7359571 -2.84217094e-13,37.8479571 C-2.84217094e-13,19.0699571 19.27,4.65195708 33.182,1.46495708 C44.129,-1.04404292 51.011,-0.32904292 53.933,3.60095708 C55.519,5.72395708 55.807,8.66795708 54.775,12.1139571 C52.672,19.0999571 52.995,24.7349571 55.614,26.8169571 C56.049,27.1629571 56.695,27.5949571 57.473,28.1229571 C62.473,31.5029571 81.450717,34.2274251 77.9545011,56.7834991 C74.4582851,79.3395731 45.3278139,89.9421976 24.8204096,80.3794379 Z" id="Stroke-1" fill="#F4D964"></path>
            <path d="M35.0278,24.5077571 C31.7478,24.5077571 28.9138,22.7407571 27.8028,20.0077571 C27.0238,18.0787571 27.1608,15.9337571 28.1898,13.9597571 C29.1728,12.0867571 30.8598,10.5877571 32.9428,9.74275708 C34.1138,9.26775708 35.3278,9.02675708 36.5558,9.02675708 C39.8368,9.02675708 42.6718,10.7957571 43.7788,13.5257571 C44.5598,15.4557571 44.4238,17.6047571 43.3898,19.5747571 C42.4128,21.4497571 40.7258,22.9467571 38.6408,23.7907571 C37.4698,24.2637571 36.2548,24.5077571 35.0278,24.5077571 Z" id="Stroke-3" fill="#FFFFFF"></path>
            <path d="M20.2593,42.5321571 C19.2403,42.5321571 18.2183,42.3661571 17.2293,42.0421571 C15.0903,41.3381571 13.3083,39.9561571 12.2073,38.1491571 C11.0413,36.2531571 10.7633,34.1201571 11.4143,32.1431571 C12.3983,29.1561571 15.4243,27.1501571 18.9433,27.1501571 C19.9623,27.1501571 20.9833,27.3171571 21.9723,27.6411571 C24.1123,28.3481571 25.8933,29.7261571 26.9973,31.5321571 C28.1583,33.4301571 28.4393,35.5651571 27.7863,37.5421571 C26.8013,40.5281571 23.7783,42.5321571 20.2593,42.5321571 Z" id="Stroke-5" fill="#FFFFFF"></path>
            <path d="M23.9829,63.9540571 C19.4619,63.9540571 15.7419,60.8370571 15.5119,56.8600571 C15.3939,54.7880571 16.2129,52.7970571 17.8269,51.2610571 C19.3559,49.8030571 21.4359,48.9280571 23.6779,48.8010571 C28.4279,48.4760571 32.4869,51.7290571 32.7229,55.8730571 C32.8439,57.9460571 32.0199,59.9360571 30.4109,61.4730571 C28.8779,62.9300571 26.7999,63.8070571 24.5549,63.9360571 C24.3629,63.9470571 24.1729,63.9540571 23.9829,63.9540571 Z" id="Stroke-7" fill="#FFFFFF"></path>
        </g>
        <g id="Group-2" transform="translate(66.000000, 34.000000)" stroke="#F4D964">
            <path d="M47.8051174,50.7662239 C45.1321174,50.7662239 41.1261174,46.6992239 39.9651174,45.4542239 L19.9971174,25.7122239 C17.8131174,23.3682239 17.6921174,19.9792239 19.6881174,18.1202239 L20.5601174,17.3112239 C21.3901174,16.5402239 22.5031174,16.1142239 23.7021174,16.1142239 C25.2991174,16.1142239 26.8901174,16.8402239 28.0711174,18.1112239 L46.4231174,39.5112239 C47.3361174,40.4872239 48.7061174,42.1382239 49.7081174,43.7202239 C50.3181174,44.6902239 52.1811174,47.6302239 50.3711174,49.3112239 L49.5021174,50.1242239 C49.0531174,50.5432239 48.4631174,50.7662239 47.8051174,50.7662239 Z" id="Stroke-9" stroke-width="2" fill="#73BEA5"></path>
            <path d="M19.9559713,10.7636239 C19.9559713,10.7636239 20.6559713,4.38862391 14.5769713,1.97462391 C8.50397133,-0.44137609 2.65597133,-0.59837609 0.631971327,1.27362391 C-1.39202867,3.14262391 1.95697133,2.28562391 3.51497133,5.71362391 C5.07397133,9.14162391 5.07397133,16.2856239 15.5469713,15.0416239 C17.1219713,14.8546239 19.2019713,13.9246239 19.9559713,10.7636239 Z" id="Stroke-11" stroke-width="1.5" fill="#595757"></path>
        </g>
    </g>
</svg>