<?xml version="1.0" encoding="UTF-8"?>
<svg width="445px" height="364px" viewBox="0 0 445 364" version="1.1" xmlns="http://www.w3.org/2000/svg" xmlns:xlink="http://www.w3.org/1999/xlink">
    <title>f@1x</title>
    <defs>
        <linearGradient x1="50.0027592%" y1="-4.70012279e-05%" x2="50.0027592%" y2="99.9985516%" id="linearGradient-1">
            <stop stop-color="#FFFFFF" offset="0%"></stop>
            <stop stop-color="#FEFFF6" offset="100%"></stop>
        </linearGradient>
    </defs>
    <g id="Page-1" stroke="none" stroke-width="1" fill="none" fill-rule="evenodd">
        <g id="f">
            <g id="IMG_x2F_Service">
                <g id="BG-Footer-White" transform="translate(0.025543, 105.981700)" fill="url(#linearGradient-1)">
                    <path d="M247.5,256.6 C230.4,257.3 213.2,257.4 196,256.6 C192.7,256.5 189.5,255.9 186.2,255.7 C158.4,254.2 130.9,251.2 104.4,244.4 C52.8,231.2 18,206.3 5.9,165.8 C3.5,157.9 1.5,149.9 0.7,141.9 C-0.1,134.4 -0.2,126.8 0.7,119.3 C1.2,115.3 2.6,111.4 3.7,107.4 C12.5,77.7 35.3,54.8 67.3,36.7 C106.8,14.4 152,3.4 201.1,0.7 C254.5,-2.2 305.2,5 352,24.7 C389.3,40.4 418.3,62 434.1,92.4 C445.6,114.5 444.7,137.3 439.3,160.1 C430.8,195.8 405.1,222 360.8,237.8 C335.6,246.8 308.8,251.5 281.2,254 C269.9,255 258.7,256.2 247.5,256.6" id="Path"></path>
                </g>
                <g id="Group-359" transform="translate(18.000000, 0.000000)">
                    <g id="Group-181" transform="translate(0.000000, 86.791000)">
                        <path d="M333.6,182.2 L333.6,195.5 C333.6,196.4 334.4,199.1 339.4,199.1 L350.8,199.1 C353.8,199.1 355.700132,200.4 355.700132,202.5 L355.700132,205.5 C355.700132,205.5 355.8,209.8 350.5,209.8 L219.3,209.8 C219.3,209.8 215.3,209.4 215.3,212.7" id="Stroke-1" stroke="#93AD65" stroke-width="1.941"></path>
                        <path d="M50.3,62.4 L50.3,49 C50.3,48.1 49.5,45.4 44.5,45.4 L15.5,45.4 C12.5,45.4 10.5998678,44.1 10.5998678,42 L10.5998678,39 C10.5998678,39 10.5,34.7 15.8,34.7 L123,34.7 C123,34.7 127,35.1 127,31.8 L127,7.4" id="Stroke-3" stroke="#93AD65" stroke-width="1.941"></path>
                        <path d="M67.4,175.1 L67.4,201.5 C67.4,208.1 72.3,209.8 77.6,209.8 L169.4,209.8" id="Stroke-5" stroke="#93AD65" stroke-width="1.941"></path>
                        <path d="M363.8,97.6 L363.8,33.2 C363.8,30 359.1,28.5 359.1,28.5 L354.8,28.5 C351,28.5 350.1,32.9 350.1,32.9 L350.1,62.8 C350.1,68.7 344,69.7 344,69.7 L344.1,69.7 C339.9,69.7 336,68.7 336,61.6 L336,0.8" id="Stroke-7" stroke="#93AD65" stroke-width="1.941"></path>
                        <path d="M106.1,164 C106.5,166 105.2,167.9 103.2,168.3 L25.2,183.2 C23.2,183.6 21.3,182.3 20.9,180.3 L0.7,74.8 C0.3,72.8 1.6,70.9 3.6,70.5 L81.6,55.6 C83.6,55.2 85.5,56.5 85.9,58.5 L106.1,164 Z" id="Fill-9" fill="#DCDDDD"></path>
                        <path d="M106.1,164 C106.5,166 105.2,167.9 103.2,168.3 L25.2,183.2 C23.2,183.6 21.3,182.3 20.9,180.3 L0.7,74.8 C0.3,72.8 1.6,70.9 3.6,70.5 L81.6,55.6 C83.6,55.2 85.5,56.5 85.9,58.5 L106.1,164 Z" id="Stroke-11" stroke="#93AD65" stroke-width="1.295"></path>
                        <path d="M66.2,169.4 C66.5,171.1 65.4,172.8 63.7,173.1 C62,173.4 60.3,172.3 60,170.6 C59.7,168.9 60.8,167.2 62.5,166.9 C64.3,166.6 65.9,167.7 66.2,169.4" id="Fill-13" fill="#FFFFFF"></path>
                        <path d="M66.2,169.4 C66.5,171.1 65.4,172.8 63.7,173.1 C62,173.4 60.3,172.3 60,170.6 C59.7,168.9 60.8,167.2 62.5,166.9 C64.3,166.6 65.9,167.7 66.2,169.4 Z" id="Stroke-15" stroke="#8FC31F" stroke-width="1.295"></path>
                        <polygon id="Fill-17" fill="#FFFFFF" points="96.3 157.7 27.7 170.9 9.8 77.7 78.5 64.6"></polygon>
                        <polygon id="Stroke-19" stroke="#8FC31F" stroke-width="1.295" points="96.3 157.7 27.7 170.9 9.8 77.7 78.5 64.6"></polygon>
                        <g id="Group-24" transform="translate(11.000000, 70.000000)">
                            <line x1="0.4" y1="13" x2="68.6" y2="0" id="Fill-21"></line>
                            <line x1="0.4" y1="13" x2="68.6" y2="0" id="Stroke-23" stroke="#8FC31F" stroke-width="1.295"></line>
                        </g>
                        <path d="M77.4,67.4 C77.5,67.9 77.2,68.4 76.6,68.5 L64.9,70.7 C64.4,70.8 63.9,70.5 63.8,69.9 C63.7,69.4 64,68.9 64.6,68.8 L76.3,66.6 C76.7,66.6 77.3,66.9 77.4,67.4" id="Fill-25" fill="#8FC31F"></path>
                        <path d="M61,70.6 C61.1,71.1 60.9,71.6 60.6,71.7 L53.2,73.1 C52.9,73.2 52.5,72.8 52.4,72.3 C52.3,71.8 52.5,71.3 52.8,71.2 L60.2,69.8 C60.5,69.7 60.9,70 61,70.6" id="Fill-27" fill="#8FC31F"></path>
                        <polygon id="Fill-29" fill="#93AD65" points="13.3 81.4 12.3 81.6 11.8 79 12.8 78.8"></polygon>
                        <polygon id="Fill-31" fill="#93AD65" points="19.8 80.2 18.7 80.4 18.2 77.8 19.3 77.5"></polygon>
                        <polygon id="Fill-33" fill="#93AD65" points="21.4 79.9 20.3 80.1 19.8 77.4 20.9 77.2"></polygon>
                        <polygon id="Fill-35" fill="#93AD65" points="23 79.6 21.9 79.8 21.4 77.1 22.5 76.9"></polygon>
                        <path d="M14,79.1 L16.1,80.9 L17.4,78.4 C17.4,78.4 15.4,77.7 14,79.1" id="Fill-37" fill="#93AD65"></path>
                        <line x1="17.2" y1="86.5" x2="74.9" y2="75.5" id="Stroke-39" stroke="#8FC31F" stroke-width="1.295"></line>
                        <line x1="17.8" y1="90" x2="75.6" y2="79" id="Stroke-41" stroke="#8FC31F" stroke-width="1.295"></line>
                        <line x1="18.5" y1="93.5" x2="50.6" y2="87.4" id="Stroke-43" stroke="#8FC31F" stroke-width="1.295"></line>
                        <polygon id="Fill-45" fill="#FAEE00" points="82.9 117.4 25.2 128.5 19.4 98 77.1 86.9"></polygon>
                        <polygon id="Stroke-47" stroke="#8FC31F" points="82.9 117.4 25.2 128.5 19.4 98 77.1 86.9"></polygon>
                        <polygon id="Stroke-49" stroke="#93AD65" stroke-width="1.295" points="86.5 135.9 73.9 138.3 71.4 125.1 84 122.7"></polygon>
                        <line x1="26.9" y1="135.6" x2="43.1" y2="132.5" id="Stroke-51" stroke="#93AD65" stroke-width="1.295"></line>
                        <line x1="27.6" y1="139" x2="68.1" y2="131.3" id="Stroke-53" stroke="#93AD65" stroke-width="1.295"></line>
                        <line x1="28.2" y1="142.5" x2="68.8" y2="134.7" id="Stroke-55" stroke="#93AD65" stroke-width="1.295"></line>
                        <line x1="28.9" y1="145.9" x2="69.4" y2="138.2" id="Stroke-57" stroke="#93AD65" stroke-width="1.295"></line>
                        <line x1="48.1" y1="151" x2="87" y2="143.6" id="Stroke-59" stroke="#93AD65" stroke-width="1.295"></line>
                        <line x1="48.8" y1="154.4" x2="87.7" y2="147" id="Stroke-61" stroke="#93AD65" stroke-width="1.295"></line>
                        <line x1="49.4" y1="157.9" x2="88.4" y2="150.4" id="Stroke-63" stroke="#93AD65" stroke-width="1.295"></line>
                        <path d="M44.6,155.2 C45.3,159 42.8,162.7 39,163.4 C35.2,164.1 31.5,161.6 30.8,157.8 C30.1,154 32.6,150.3 36.4,149.6 C40.2,148.9 43.9,151.4 44.6,155.2 Z" id="Stroke-65" stroke="#93AD65" stroke-width="1.295"></path>
                        <line x1="36.4" y1="149.6" x2="37.7" y2="156.6" id="Stroke-67" stroke="#93AD65" stroke-width="1.295"></line>
                        <line x1="37.7" y1="156.6" x2="42.1" y2="151.1" id="Stroke-69" stroke="#93AD65" stroke-width="1.295"></line>
                        <line x1="37.7" y1="156.6" x2="41.5" y2="162.4" id="Stroke-71" stroke="#93AD65" stroke-width="1.295"></line>
                        <polygon id="Stroke-73" stroke="#8FC31F" stroke-width="1.295" points="86.5 135.9 73.9 138.3 71.4 125.1 84 122.7"></polygon>
                        <line x1="26.9" y1="135.6" x2="43.1" y2="132.5" id="Stroke-75" stroke="#8FC31F" stroke-width="1.295"></line>
                        <line x1="27.6" y1="139" x2="68.1" y2="131.3" id="Stroke-77" stroke="#8FC31F" stroke-width="1.295"></line>
                        <line x1="28.2" y1="142.5" x2="68.8" y2="134.7" id="Stroke-79" stroke="#8FC31F" stroke-width="1.295"></line>
                        <line x1="28.9" y1="145.9" x2="69.4" y2="138.2" id="Stroke-81" stroke="#8FC31F" stroke-width="1.295"></line>
                        <line x1="48.1" y1="151" x2="87" y2="143.6" id="Stroke-83" stroke="#8FC31F" stroke-width="1.295"></line>
                        <line x1="48.8" y1="154.4" x2="87.7" y2="147" id="Stroke-85" stroke="#8FC31F" stroke-width="1.295"></line>
                        <line x1="49.4" y1="157.9" x2="88.4" y2="150.4" id="Stroke-87" stroke="#8FC31F" stroke-width="1.295"></line>
                        <path d="M44.6,155.2 C45.3,159 42.8,162.7 39,163.4 C35.2,164.1 31.5,161.6 30.8,157.8 C30.1,154 32.6,150.3 36.4,149.6 C40.2,148.9 43.9,151.4 44.6,155.2 Z" id="Stroke-89" stroke="#8FC31F" stroke-width="1.295"></path>
                        <line x1="36.4" y1="149.6" x2="37.7" y2="156.6" id="Stroke-91" stroke="#8FC31F" stroke-width="1.295"></line>
                        <line x1="37.7" y1="156.6" x2="42.1" y2="151.1" id="Stroke-93" stroke="#8FC31F" stroke-width="1.295"></line>
                        <line x1="37.7" y1="156.6" x2="41.5" y2="162.4" id="Stroke-95" stroke="#8FC31F" stroke-width="1.295"></line>
                        <line x1="61.3" y1="92.6" x2="74.5" y2="100.9" id="Stroke-97" stroke="#8FC31F" stroke-width="1.295"></line>
                        <line x1="54.7" y1="94.5" x2="74.2" y2="105.9" id="Stroke-99" stroke="#8FC31F" stroke-width="1.295"></line>
                        <path d="M165,249.3 C164.9,251.6 166.7,253.5 169,253.5 L245.5,256 C247.8,256.1 249.7,254.3 249.7,252 L253,153.1 C253.1,150.8 251.3,148.9 249,148.9 L172.5,146.4 C170.2,146.3 168.3,148.1 168.3,150.4 L165,249.3 Z" id="Fill-101" fill="#93AD65"></path>
                        <path d="M165,249.3 C164.9,251.6 166.7,253.5 169,253.5 L245.5,256 C247.8,256.1 249.7,254.3 249.7,252 L253,153.1 C253.1,150.8 251.3,148.9 249,148.9 L172.5,146.4 C170.2,146.3 168.3,148.1 168.3,150.4 L165,249.3 Z" id="Stroke-103" stroke="#FAEE00" stroke-width="1.86"></path>
                        <polygon id="Fill-105" fill="#FFFFFF" points="174 244.8 241.1 247 244.1 155.3 177 153.1"></polygon>
                        <path d="M209.5,145.3 C209.5,144.5 210.2,143.9 210.9,144 C211.7,144 212.3,144.7 212.2,145.4 C212.2,146.2 211.5,146.8 210.8,146.7 C210.1,146.7 209.5,146.1 209.5,145.3 M188,156 C187.8,156.6 187.9,158.4 187.9,158.4 L210.4,159.1 L232.9,159.8 C232.9,159.8 233.1,158 233,157.4 C232.6,155.5 230.3,151.7 229.5,150.4 C228.7,149.1 227.1,148.8 226,148.8 C224.8,148.8 220,148.6 220,148.6 C220,148.6 219.9,147.9 219.3,145.5 C218.6,143.1 216.5,142.2 214.9,142.2 C213.2,142.1 211.1,142.1 211.1,142.1 C211.1,142.1 209,142 207.3,142 C205.6,141.9 203.5,142.7 202.6,145 C201.8,147.3 201.7,148 201.7,148 C201.7,148 196.8,147.8 195.7,147.8 C194.5,147.8 192.9,147.9 192.1,149.2 C191,150.5 188.5,154.1 188,156" id="Fill-107" fill="#FAEE00"></path>
                        <path d="M209.5,145.3 C209.5,144.5 210.2,143.9 210.9,144 C211.7,144 212.3,144.7 212.2,145.4 C212.2,146.2 211.5,146.8 210.8,146.7 C210.1,146.7 209.5,146.1 209.5,145.3 Z M188,156 C187.8,156.6 187.9,158.4 187.9,158.4 L210.4,159.1 L232.9,159.8 C232.9,159.8 233.1,158 233,157.4 C232.6,155.5 230.3,151.7 229.5,150.4 C228.7,149.1 227.1,148.8 226,148.8 C224.8,148.8 220,148.6 220,148.6 C220,148.6 219.9,147.9 219.3,145.5 C218.6,143.1 216.5,142.2 214.9,142.2 C213.2,142.1 211.1,142.1 211.1,142.1 C211.1,142.1 209,142 207.3,142 C205.6,141.9 203.5,142.7 202.6,145 C201.8,147.3 201.7,148 201.7,148 C201.7,148 196.8,147.8 195.7,147.8 C194.5,147.8 192.9,147.9 192.1,149.2 C191,150.5 188.5,154.1 188,156 Z" id="Stroke-109" stroke="#8FC31F" stroke-width="1.295"></path>
                        <path d="M205.7,170.3 C205.7,170.6 206.1,170.9 206.6,170.9 L213.4,171.1 C213.9,171.1 214.3,170.9 214.3,170.6 L214.4,167.6 C214.4,167.3 214,167 213.5,167 L206.7,166.8 C206.2,166.8 205.8,167 205.8,167.3 L205.7,170.3 Z" id="Stroke-111" stroke="#8FC31F" stroke-width="1.295"></path>
                        <path d="M205.4,180 C205.4,180.3 205.8,180.6 206.3,180.6 L213.1,180.8 C213.6,180.8 214,180.6 214,180.3 L214.1,177.3 C214.1,177 213.7,176.7 213.2,176.7 L206.4,176.5 C205.9,176.5 205.5,176.7 205.5,177 L205.4,180 Z" id="Stroke-113" stroke="#8FC31F" stroke-width="1.295"></path>
                        <path d="M191.1,179.5 C191.1,179.8 191.5,180.1 192,180.1 L198.8,180.3 C199.3,180.3 199.7,180.1 199.7,179.8 L199.8,176.8 C199.8,176.5 199.4,176.2 198.9,176.2 L192.1,176 C191.6,176 191.2,176.2 191.2,176.5 L191.1,179.5 Z" id="Stroke-115" stroke="#8FC31F" stroke-width="1.295"></path>
                        <path d="M225.6,195 C225.6,195.3 226,195.6 226.5,195.6 L233.3,195.8 C233.8,195.8 234.2,195.6 234.2,195.3 L234.3,192.3 C234.3,192 233.9,191.7 233.4,191.7 L226.6,191.5 C226.1,191.5 225.7,191.7 225.7,192 L225.6,195 Z" id="Stroke-117" stroke="#8FC31F" stroke-width="1.295"></path>
                        <path d="M184.8,191.8 C184.8,192.1 185.2,192.4 185.7,192.4 L192.5,192.6 C193,192.6 193.4,192.4 193.4,192.1 L193.5,189.1 C193.5,188.8 193.1,188.5 192.6,188.5 L185.8,188.3 C185.3,188.3 184.9,188.5 184.9,188.8 L184.8,191.8 Z" id="Stroke-119" stroke="#8FC31F" stroke-width="1.295"></path>
                        <path d="M196.5,192.2 C196.5,192.5 196.9,192.8 197.4,192.8 L204.2,193 C204.7,193 205.1,192.8 205.1,192.5 L205.2,189.5 C205.2,189.2 204.8,188.9 204.3,188.9 L197.5,188.7 C197,188.7 196.6,188.9 196.6,189.2 L196.5,192.2 Z" id="Stroke-121" stroke="#8FC31F" stroke-width="1.295"></path>
                        <path d="M219.8,180.5 C219.8,180.8 220.2,181.1 220.7,181.1 L227.5,181.3 C228,181.3 228.4,181.1 228.4,180.8 L228.5,177.8 C228.5,177.5 228.1,177.2 227.6,177.2 L220.8,177 C220.3,177 219.9,177.2 219.9,177.5 L219.8,180.5 Z" id="Stroke-123" stroke="#8FC31F" stroke-width="1.295"></path>
                        <path d="M224.4,180.8 C224.4,180.8 223.3,185 224.7,185.6 C226.6,186.3 230.2,184.7 230.1,187.7 C230,190.7 230,191.9 230,191.9" id="Stroke-125" stroke="#8FC31F" stroke-width="1.295"></path>
                        <path d="M189.3,188.5 C189.3,188.5 188.5,185.4 191.2,185.6 C192.7,185.7 198.5,185.8 199,185.9 C199.5,186 201.2,186.4 200.9,189" id="Stroke-127" stroke="#8FC31F" stroke-width="1.295"></path>
                        <path d="M195.5,176.1 C195.5,176.1 194.8,173 201.1,173.3 C204.6,173.5 218.3,173.9 219.6,173.9 C220.9,173.9 224.7,174.5 224.1,177" id="Stroke-129" stroke="#8FC31F" stroke-width="1.295"></path>
                        <line x1="210" y1="171" x2="209.8" y2="176.6" id="Stroke-131" stroke="#8FC31F" stroke-width="1.295"></line>
                        <line x1="195.3" y1="180.3" x2="195.2" y2="185.3" id="Stroke-133" stroke="#8FC31F" stroke-width="1.295"></line>
                        <line x1="231.9" y1="198.5" x2="231.4" y2="215.5" id="Stroke-135" stroke="#8FC31F" stroke-width="1.295"></line>
                        <line x1="227.6" y1="198.3" x2="227" y2="218.7" id="Stroke-137" stroke="#8FC31F" stroke-width="1.295"></line>
                        <line x1="202.7" y1="197.5" x2="202" y2="220.3" id="Stroke-139" stroke="#8FC31F" stroke-width="1.295"></line>
                        <line x1="198.4" y1="197.3" x2="197.5" y2="224.7" id="Stroke-141" stroke="#8FC31F" stroke-width="1.295"></line>
                        <line x1="194.1" y1="197.2" x2="193.2" y2="224.5" id="Stroke-143" stroke="#8FC31F" stroke-width="1.295"></line>
                        <line x1="189.8" y1="197.1" x2="188.8" y2="224.4" id="Stroke-145" stroke="#8FC31F" stroke-width="1.295"></line>
                        <line x1="185.4" y1="196.9" x2="184.5" y2="224.2" id="Stroke-147" stroke="#8FC31F" stroke-width="1.295"></line>
                        <path d="M159.8,183.6 C159.8,183.6 160.7,178.5 160.1,178.3 C159.5,178.1 156.3,181.4 156.1,181.8 C155.9,182.2 158.9,184 159.8,183.6" id="Fill-149" fill="#FDDEA5"></path>
                        <path d="M159.8,183.6 C159.8,183.6 160.7,178.5 160.1,178.3 C159.5,178.1 156.3,181.4 156.1,181.8 C155.9,182.2 158.9,184 159.8,183.6 Z" id="Stroke-151" stroke="#FDDEA5" stroke-width="0.647"></path>
                        <path d="M156,182.1 L129.5,236.3 C129.5,236.3 129.2,237.6 130.7,238.3 C132.2,239 132.8,238.4 133,237.9 C133.3,237.4 159.5,183.8 159.5,183.8 L158.6,183.7 L158.1,182.3 L157.2,182.7 L156,182.1 Z" id="Fill-153" fill="#8FC31F"></path>
                        <path d="M156,182.1 L129.5,236.3 C129.5,236.3 129.2,237.6 130.7,238.3 C132.2,239 132.8,238.4 133,237.9 C133.3,237.4 159.5,183.8 159.5,183.8 L158.6,183.7 L158.1,182.3 L157.2,182.7 L156,182.1 Z" id="Stroke-155" stroke="#FAEE00" stroke-width="1.295"></path>
                        <path d="M136.3,222.5 L129.6,236.3 C129.6,236.3 129.3,237.6 130.8,238.3 C132.3,239 132.9,238.4 133.1,237.9 C133.4,237.4 139.8,224.2 139.8,224.2 L136.3,222.5 Z" id="Fill-157" fill="#040000"></path>
                        <path d="M136.3,222.5 L129.6,236.3 C129.6,236.3 129.3,237.6 130.8,238.3 C132.3,239 132.9,238.4 133.1,237.9 C133.4,237.4 139.8,224.2 139.8,224.2 L136.3,222.5 Z" id="Stroke-159" stroke="#FAEE00" stroke-width="1.295"></path>
                        <path d="M160.1,178.3 C159.8,178.2 158.5,179.3 158.5,179.3 C158.5,179.3 159.5,180.3 159.8,180.2 L160.2,180.1 C160.3,180 160.5,178.4 160.1,178.3" id="Fill-161" fill="#231815"></path>
                        <path d="M160.1,178.3 C159.8,178.2 158.5,179.3 158.5,179.3 C158.5,179.3 159.5,180.3 159.8,180.2 L160.2,180.1 C160.3,180 160.5,178.4 160.1,178.3 Z" id="Stroke-163" stroke="#231815" stroke-width="0.647"></path>
                        <path d="M353.8,177.2 C353.2,181.6 349.1,184.7 344.6,184 L314.6,179.6 C310.2,179 307.1,174.9 307.8,170.4 L319.2,92.5 C319.8,88.1 323.9,85 328.4,85.7 L358.4,90.1 C362.8,90.7 365.9,94.8 365.2,99.3 L353.8,177.2 Z" id="Fill-165" fill="#DCDDDD"></path>
                        <path d="M353.8,177.2 C353.2,181.6 349.1,184.7 344.6,184 L314.6,179.6 C310.2,179 307.1,174.9 307.8,170.4 L319.2,92.5 C319.8,88.1 323.9,85 328.4,85.7 L358.4,90.1 C362.8,90.7 365.9,94.8 365.2,99.3 L353.8,177.2 Z" id="Stroke-167" stroke="#93AD65" stroke-width="1.295"></path>
                        <path d="M335.1,173.2 C334.8,175.5 332.7,177 330.4,176.7 C328.1,176.4 326.6,174.3 326.9,172 C327.2,169.7 329.3,168.2 331.6,168.5 C333.9,168.8 335.4,170.9 335.1,173.2" id="Fill-169" fill="#FFFFFF"></path>
                        <path d="M335.1,173.2 C334.8,175.5 332.7,177 330.4,176.7 C328.1,176.4 326.6,174.3 326.9,172 C327.2,169.7 329.3,168.2 331.6,168.5 C333.9,168.8 335.4,170.9 335.1,173.2 Z" id="Stroke-171" stroke="#8FC31F" stroke-width="1.295"></path>
                        <path d="M348.6,94.9 C348.5,95.3 348.2,95.6 347.7,95.5 L336.3,93.8 C335.9,93.7 335.6,93.4 335.7,92.9 C335.8,92.5 336.1,92.2 336.6,92.3 L348,94 C348.4,94.1 348.6,94.5 348.6,94.9" id="Fill-173" fill="#FFFFFF"></path>
                        <path d="M348.6,94.9 C348.5,95.3 348.2,95.6 347.7,95.5 L336.3,93.8 C335.9,93.7 335.6,93.4 335.7,92.9 C335.8,92.5 336.1,92.2 336.6,92.3 L348,94 C348.4,94.1 348.6,94.5 348.6,94.9 Z" id="Stroke-175" stroke="#8FC31F" stroke-width="0.647"></path>
                        <path d="M355,95.9 C354.9,96.8 354,97.5 353.1,97.3 C352.2,97.2 351.5,96.3 351.7,95.4 C351.8,94.5 352.7,93.8 353.6,94 C354.5,94.2 355.1,94.9 355,95.9" id="Fill-177" fill="#FFFFFF"></path>
                        <path d="M355,95.9 C354.9,96.8 354,97.5 353.1,97.3 C352.2,97.2 351.5,96.3 351.7,95.4 C351.8,94.5 352.7,93.8 353.6,94 C354.5,94.2 355.1,94.9 355,95.9 Z" id="Stroke-179" stroke="#8FC31F" stroke-width="0.647"></path>
                    </g>
                    <text id="1" fill="#727171" fill-rule="nonzero" font-family="Helvetica" font-size="1.5176" font-weight="normal">
                        <tspan x="337.9435" y="190.729">1</tspan>
                    </text>
                    <text id="2" fill="#727171" fill-rule="nonzero" font-family="Helvetica" font-size="1.5176" font-weight="normal">
                        <tspan x="338.8231" y="190.729">2</tspan>
                    </text>
                    <text id=":" fill="#727171" fill-rule="nonzero" font-family="Helvetica" font-size="1.5176" font-weight="normal">
                        <tspan x="339.7012" y="190.729">:</tspan>
                    </text>
                    <text id="0" fill="#727171" fill-rule="nonzero" font-family="Helvetica" font-size="1.5176" font-weight="normal">
                        <tspan x="340.0528" y="190.729">0</tspan>
                    </text>
                    <text id="0" fill="#727171" fill-rule="nonzero" font-family="Helvetica" font-size="1.5176" font-weight="normal">
                        <tspan x="340.9309" y="190.729">0</tspan>
                    </text>
                    <text id="8" fill="#727171" fill-rule="nonzero" font-family="Helvetica" font-size="1.5176" font-weight="normal">
                        <tspan x="323.365" y="188.5918">8</tspan>
                    </text>
                    <text id="7" fill="#727171" fill-rule="nonzero" font-family="Helvetica" font-size="1.5176" font-weight="normal">
                        <tspan x="324.2446" y="188.5918">7</tspan>
                    </text>
                    <text id="88" fill="#727171" fill-rule="nonzero" font-family="Helvetica" font-size="1.5176" font-weight="normal">
                        <tspan x="325.1226" y="188.5918">88</tspan>
                    </text>
                    <g id="Group-358" transform="translate(2.000000, 0.791000)">
                        <line x1="318" y1="190.9" x2="359" y2="196.9" id="Stroke-182" stroke="#93AD65" stroke-width="0.647"></line>
                        <path d="M356.5,191.2 C356.4,191.6 356.1,191.8 355.7,191.8 L352.7,191.4 C352.3,191.3 352.1,191 352.1,190.6 C352.2,190.2 352.5,190 352.9,190 L355.9,190.4 C356.3,190.5 356.5,190.8 356.5,191.2" id="Fill-184" fill="#727171"></path>
                        <path d="M351.5,190.4 C351.4,190.7 351.1,191 350.8,190.9 C350.5,190.8 350.2,190.5 350.3,190.2 C350.4,189.9 350.7,189.6 351,189.7 C351.3,189.8 351.6,190.1 351.5,190.4" id="Fill-186" fill="#727171"></path>
                        <polygon id="Fill-188" fill="#FFFFFF" points="350.7 253.4 309.7 247.4 319 183.5 360.1 189.5"></polygon>
                        <polygon id="Stroke-190" stroke="#93AD65" stroke-width="1.295" points="350.7 253.4 309.7 247.4 319 183.5 360.1 189.5"></polygon>
                        <polygon id="Fill-192" fill="#FAEE00" points="352.3 218.3 318.8 213.4 321.4 195.6 354.9 200.6"></polygon>
                        <polygon id="Stroke-194" stroke="#8FC31F" points="352.3 218.3 318.8 213.4 321.4 195.6 354.9 200.6"></polygon>
                        <line x1="318.4" y1="217.6" x2="331.6" y2="219.5" id="Stroke-196" stroke="#8FC31F" stroke-width="1.295"></line>
                        <line x1="318.1" y1="219.6" x2="351.4" y2="224.5" id="Stroke-198" stroke="#8FC31F" stroke-width="1.295"></line>
                        <line x1="317.8" y1="221.6" x2="351.1" y2="226.5" id="Stroke-200" stroke="#8FC31F" stroke-width="1.295"></line>
                        <line x1="317.5" y1="223.6" x2="350.8" y2="228.5" id="Stroke-202" stroke="#8FC31F" stroke-width="1.295"></line>
                        <path d="M329.7,235.4 C329.1,239.2 325.6,241.9 321.7,241.3 C317.9,240.7 315.2,237.2 315.8,233.3 C316.4,229.5 319.9,226.8 323.8,227.4 C327.6,228 330.3,231.6 329.7,235.4 Z" id="Stroke-204" stroke="#8FC31F" stroke-width="1.295"></path>
                        <path d="M328.7,230.7 L323.3,234.1 C323.1,234.2 322.8,234.1 322.8,233.8 L323.7,227.5" id="Stroke-206" stroke="#8FC31F" stroke-width="1.295"></path>
                        <line x1="345.2" y1="200.6" x2="350.9" y2="207.7" id="Stroke-208" stroke="#8FC31F" stroke-width="1.295"></line>
                        <line x1="341.3" y1="200.4" x2="349.8" y2="210.4" id="Stroke-210" stroke="#8FC31F" stroke-width="1.295"></line>
                        <path d="M347.1,244.4 L336.6,242.9 C335.8,242.8 335.3,242.1 335.4,241.3 L336.8,231.5 C336.9,230.7 337.6,230.2 338.4,230.3 L348.9,231.8 C349.7,231.9 350.2,232.6 350.1,233.4 L348.7,243.2 C348.6,244 347.8,244.5 347.1,244.4 Z" id="Stroke-212" stroke="#8FC31F" stroke-width="1.295"></path>
                        <polygon id="Fill-214" fill="#8FC31F" points="350.9 247.8 311.1 242.1 310.4 246.9 350.1 253.2"></polygon>
                        <polygon id="Stroke-216" stroke="#FFFFFF" stroke-width="0.324" points="319.9 247.9 315.8 247.3 316.2 244.2 320.3 244.8"></polygon>
                        <polyline id="Stroke-218" stroke="#FFFFFF" stroke-width="0.324" points="316.2 244.2 318 246.2 320.3 244.8"></polyline>
                        <line x1="319.9" y1="247.9" x2="318.4" y2="246" id="Stroke-220" stroke="#FFFFFF" stroke-width="0.324"></line>
                        <line x1="315.8" y1="247.3" x2="317.7" y2="245.9" id="Stroke-222" stroke="#FFFFFF" stroke-width="0.324"></line>
                        <polyline id="Stroke-224" stroke="#FFFFFF" stroke-width="0.324" points="325.4 248.3 325.8 245.6 328.3 245.5 327.9 248.2"></polyline>
                        <line x1="325.6" y1="246.9" x2="328.1" y2="246.7" id="Stroke-226" stroke="#FFFFFF" stroke-width="0.324"></line>
                        <path d="M325.6,248.4 C325.5,248.9 325.1,249.2 324.7,249.1 C324.2,249 323.9,248.6 324,248.2 C324.1,247.7 324.5,247.4 324.9,247.5 C325.3,247.5 325.6,247.9 325.6,248.4" id="Fill-228" fill="#FFFFFF"></path>
                        <path d="M328,248.4 C327.9,248.9 327.5,249.2 327.1,249.1 C326.6,249 326.3,248.6 326.4,248.2 C326.5,247.7 326.9,247.4 327.4,247.5 C327.8,247.5 328.1,247.9 328,248.4" id="Fill-230" fill="#FFFFFF"></path>
                        <path d="M335.4,248.1 C335.5,247.4 335,246.9 334.4,246.8 C333.8,246.7 333.2,247 333.1,247.8 C332.7,247.7 332,248.1 332,248.7 C331.9,249.3 332.3,249.9 332.9,250 C333.4,250.1 334,250.2 334,250.2 C334,250.2 334.6,250.3 335.1,250.4 C335.6,250.5 336.2,250 336.3,249.4 C336.4,248.7 335.8,248.2 335.4,248.1 Z" id="Stroke-232" stroke="#FFFFFF" stroke-width="0.324"></path>
                        <line x1="334" y1="249.5" x2="334.2" y2="248.4" id="Stroke-234" stroke="#FFFFFF" stroke-width="0.324"></line>
                        <polyline id="Stroke-236" stroke="#FFFFFF" stroke-width="0.324" points="333.7 248.4 334.3 247.9 334.7 248.5"></polyline>
                        <g id="Group-241" transform="translate(342.000000, 232.000000)">
                            <line x1="0.3" y1="16" x2="40.5" y2="0.4" id="Fill-238"></line>
                            <line x1="0.3" y1="16" x2="40.5" y2="0.4" id="Stroke-240" stroke="#8FC31F" stroke-width="1.295"></line>
                        </g>
                        <g id="Group-245" transform="translate(341.000000, 250.000000)">
                            <line x1="0.9" y1="0.5" x2="40.4" y2="21.8" id="Fill-242"></line>
                            <line x1="0.9" y1="0.5" x2="40.4" y2="21.8" id="Stroke-244" stroke="#8FC31F" stroke-width="1.295"></line>
                        </g>
                        <path d="M411.8,255.4 C410.1,267.1 399.2,275.3 387.4,273.6 C375.7,271.9 367.5,261 369.2,249.2 C370.9,237.5 381.8,229.3 393.6,231 C405.4,232.8 413.5,243.7 411.8,255.4" id="Fill-246" fill="#FAEE00"></path>
                        <path d="M411.8,255.4 C410.1,267.1 399.2,275.3 387.4,273.6 C375.7,271.9 367.5,261 369.2,249.2 C370.9,237.5 381.8,229.3 393.6,231 C405.4,232.8 413.5,243.7 411.8,255.4 Z" id="Stroke-248" stroke="#8FC31F" stroke-width="1.295"></path>
                        <path d="M392.6,238 C388.3,237.4 383.2,238 382.1,245.7 C381,253.4 388.3,267.5 388.3,267.5 C388.3,267.5 399.3,256 400.5,248.3 C401.6,240.7 396.9,238.6 392.6,238" id="Fill-250" fill="#93AD65"></path>
                        <path d="M392.6,238 C388.3,237.4 383.2,238 382.1,245.7 C381,253.4 388.3,267.5 388.3,267.5 C388.3,267.5 399.3,256 400.5,248.3 C401.6,240.7 396.9,238.6 392.6,238 Z" id="Stroke-252" stroke="#FAEE00" stroke-width="1.295"></path>
                        <path d="M395.9,247.7 C395.5,250.2 393.2,252 390.6,251.6 C388.1,251.2 386.3,248.9 386.7,246.3 C387.1,243.8 389.4,242 392,242.4 C394.5,242.8 396.2,245.1 395.9,247.7" id="Fill-254" fill="#FAEE00"></path>
                        <path d="M342.5,247.8 C341.9,247.7 341.1,247.8 341,248.9 C340.8,250 342,251.6 342,251.6 C342,251.6 343.5,250.4 343.7,249.3 C343.8,248.2 343.2,247.9 342.5,247.8 Z" id="Stroke-256" stroke="#FFFFFF" stroke-width="0.324"></path>
                        <path d="M343,249.2 C342.9,249.6 342.6,249.8 342.2,249.8 C341.8,249.7 341.6,249.4 341.6,249 C341.7,248.6 342,248.4 342.4,248.4 C342.8,248.5 343.1,248.9 343,249.2 Z" id="Stroke-258" stroke="#FFFFFF" stroke-width="0.324"></path>
                        <path d="M345.7,250 C345.5,251.5 344.1,252.5 342.6,252.3 C341.1,252.1 340.1,250.7 340.3,249.2 C340.5,247.7 341.9,246.7 343.4,246.9 C344.8,247.1 345.9,248.5 345.7,250 Z" id="Stroke-260" stroke="#FAEE00" stroke-width="1.295"></path>
                        <path d="M345.5,107.7 C345.5,108.3 345.7,108.9 345.5,109.4 C345.3,110.7 344.2,111.6 342.8,111.7 C342.2,111.7 342,112 341.8,112.5 C341.5,113.1 341.2,113.7 340.8,114.3 C340.6,114.6 340.5,114.9 340.8,115.2 C341.4,116.3 341.4,117.4 340.7,118.5 C340,119.5 339,119.9 337.7,119.7 C336.8,119.6 336.1,119 335.6,118.2 C335.4,117.8 335.2,117.8 334.8,117.9 C334.1,118 333.3,118 332.6,118 C332.1,118 331.9,118 331.6,118.5 C330.4,120.4 327.9,120.6 326.6,118.8 C325.8,117.8 325.8,116.7 326.4,115.6 C326.6,115.2 326.5,115 326.3,114.7 C325.9,114.1 325.5,113.4 325.1,112.7 C324.9,112.4 324.7,112.2 324.3,112.2 C322.4,112.2 321.1,110.7 321.3,108.8 C321.5,107.3 322.7,106.3 324.3,106.2 C324.7,106.2 324.8,106.1 325,105.7 C325.3,105 325.7,104.3 326.2,103.6 C326.4,103.3 326.4,103.1 326.3,102.8 C325.6,101.4 325.7,100.1 326.7,99.1 C328.1,97.7 330.3,98 331.3,99.6 C331.6,100 331.8,100.1 332.3,100.1 C333.2,100 334.1,100 335.1,100 C335.5,99.3 336,98.6 336.8,98.3 C338.1,97.8 339.2,98.2 340.2,99 C340.4,99.4 340.6,99.7 340.8,100.1 C341,101.1 340.9,102 340.4,102.8 C340.3,102.9 340.4,103.1 340.5,103.3 C340.9,104.1 341.4,104.8 341.8,105.5 C341.9,105.7 342.1,105.8 342.2,105.8 C343.2,105.8 344,106.1 344.8,106.8 C345.1,107.1 345.3,107.4 345.5,107.7" id="Fill-262" fill="#727171"></path>
                        <path d="M345.5,107.7 C345.5,108.3 345.7,108.9 345.5,109.4 C345.3,110.7 344.2,111.6 342.8,111.7 C342.2,111.7 342,112 341.8,112.5 C341.5,113.1 341.2,113.7 340.8,114.3 C340.6,114.6 340.5,114.9 340.8,115.2 C341.4,116.3 341.4,117.4 340.7,118.5 C340,119.5 339,119.9 337.7,119.7 C336.8,119.6 336.1,119 335.6,118.2 C335.4,117.8 335.2,117.8 334.8,117.9 C334.1,118 333.3,118 332.6,118 C332.1,118 331.9,118 331.6,118.5 C330.4,120.4 327.9,120.6 326.6,118.8 C325.8,117.8 325.8,116.7 326.4,115.6 C326.6,115.2 326.5,115 326.3,114.7 C325.9,114.1 325.5,113.4 325.1,112.7 C324.9,112.4 324.7,112.2 324.3,112.2 C322.4,112.2 321.1,110.7 321.3,108.8 C321.5,107.3 322.7,106.3 324.3,106.2 C324.7,106.2 324.8,106.1 325,105.7 C325.3,105 325.7,104.3 326.2,103.6 C326.4,103.3 326.4,103.1 326.3,102.8 C325.6,101.4 325.7,100.1 326.7,99.1 C328.1,97.7 330.3,98 331.3,99.6 C331.6,100 331.8,100.1 332.3,100.1 C333.2,100 334.1,100 335.1,100 C335.5,99.3 336,98.6 336.8,98.3 C338.1,97.8 339.2,98.2 340.2,99 C340.4,99.4 340.6,99.7 340.8,100.1 C341,101.1 340.9,102 340.4,102.8 C340.3,102.9 340.4,103.1 340.5,103.3 C340.9,104.1 341.4,104.8 341.8,105.5 C341.9,105.7 342.1,105.8 342.2,105.8 C343.2,105.8 344,106.1 344.8,106.8 C345.1,107.1 345.3,107.4 345.5,107.7 Z" id="Stroke-264" stroke="#FAEE00" stroke-width="0.647"></path>
                        <path d="M334.6,110.7 C335.6,110.1 335.9,108.8 335.3,107.8 C334.7,106.9 333.4,106.5 332.4,107.1 C331.4,107.7 331.1,109 331.7,109.9 C332.3,111 333.6,111.3 334.6,110.7 M335.6,112.4 C333.7,113.5 331.3,113 330.1,111.1 C328.9,109.2 329.6,106.7 331.5,105.6 C333.4,104.5 335.9,105.1 337,107 C338.1,108.7 337.5,111.2 335.6,112.4" id="Fill-266" fill="#FFFFFF"></path>
                        <path d="M334.6,110.7 C335.6,110.1 335.9,108.8 335.3,107.8 C334.7,106.9 333.4,106.5 332.4,107.1 C331.4,107.7 331.1,109 331.7,109.9 C332.3,111 333.6,111.3 334.6,110.7 Z M335.6,112.4 C333.7,113.5 331.3,113 330.1,111.1 C328.9,109.2 329.6,106.7 331.5,105.6 C333.4,104.5 335.9,105.1 337,107 C338.1,108.7 337.5,111.2 335.6,112.4 Z" id="Stroke-268" stroke="#FAEE00" stroke-width="0.647"></path>
                        <path d="M307.4,122.2 C307.4,129 301.9,134.5 295.1,134.5 L115.5,134.5 C108.7,134.5 103.2,129 103.2,122.2 L103.2,13.2 C103.2,6.4 108.7,0.9 115.5,0.9 L295.1,0.9 C301.9,0.9 307.4,6.4 307.4,13.2 L307.4,122.2 L307.4,122.2 Z" id="Fill-270" fill="#EFEFEF"></path>
                        <path d="M307.4,122.2 C307.4,129 301.9,134.5 295.1,134.5 L115.5,134.5 C108.7,134.5 103.2,129 103.2,122.2 L103.2,13.2 C103.2,6.4 108.7,0.9 115.5,0.9 L295.1,0.9 C301.9,0.9 307.4,6.4 307.4,13.2 L307.4,122.2 L307.4,122.2 Z" id="Stroke-272" stroke="#8FC31F" stroke-width="1.295"></path>
                        <polygon id="Fill-274" fill="#3E3A39" points="115.6 111.3 296.8 111.3 296.8 11.9 115.6 11.9"></polygon>
                        <polygon id="Stroke-276" stroke="#8FC31F" stroke-width="1.295" points="115.6 111.3 296.8 111.3 296.8 11.9 115.6 11.9"></polygon>
                        <path d="M103.2,117.8 L103.2,122.1 C103.2,128.9 108.7,134.4 115.5,134.4 L202.2,134.4 L202.2,147.4 C183.3,147.9 168.4,155.3 168.4,164.2 C168.4,164.2 173.3,169.7 203.6,169.7 C234.5,169.7 240.5,164.2 240.5,164.2 C240.5,155.2 225.5,147.9 206.7,147.4 L206.7,134.4 L295.1,134.4 C301.9,134.4 307.4,128.9 307.4,122.1 L307.4,117.8 L103.2,117.8 L103.2,117.8 Z" id="Fill-277" fill="#EFEFEF"></path>
                        <path d="M103.2,117.8 L103.2,122.1 C103.2,128.9 108.7,134.4 115.5,134.4 L202.2,134.4 L202.2,147.4 C183.3,147.9 168.4,155.3 168.4,164.2 C168.4,164.2 173.3,169.7 203.6,169.7 C234.5,169.7 240.5,164.2 240.5,164.2 C240.5,155.2 225.5,147.9 206.7,147.4 L206.7,134.4 L295.1,134.4 C301.9,134.4 307.4,128.9 307.4,122.1 L307.4,117.8 L103.2,117.8 L103.2,117.8 Z" id="Stroke-278" stroke="#8FC31F" stroke-width="1.295"></path>
                        <path d="M209.1,126 C209.1,128.5 207.1,130.5 204.6,130.5 C202.1,130.5 200.1,128.5 200.1,126 C200.1,123.5 202.1,121.5 204.6,121.5 C207.1,121.6 209.1,123.6 209.1,126" id="Fill-279" fill="#EFEFEF"></path>
                        <path d="M209.1,126 C209.1,128.5 207.1,130.5 204.6,130.5 C202.1,130.5 200.1,128.5 200.1,126 C200.1,123.5 202.1,121.5 204.6,121.5 C207.1,121.6 209.1,123.6 209.1,126 Z" id="Stroke-280" stroke="#8FC31F"></path>
                        <polygon id="Fill-281" fill="#EFEFEF" points="202.2 147.4 206.7 147.4 206.7 134.5 202.2 134.5"></polygon>
                        <polygon id="Stroke-282" stroke="#8FC31F" stroke-width="1.295" points="202.2 147.4 206.7 147.4 206.7 134.5 202.2 134.5"></polygon>
                        <path d="M240.1,161.8 C232.2,165.2 218.3,167.3 204.4,167.3 C190.5,167.3 177.5,165.8 168.7,161.8 L168.3,164.2 C168.3,164.2 175.8,169.7 204.5,169.7 C233.2,169.7 239.1,164.7 240.4,164.2 C240.2,163.3 240.1,161.8 240.1,161.8" id="Fill-283" fill="#FAEE00"></path>
                        <path d="M240.1,161.8 C232.2,165.2 218.3,167.3 204.4,167.3 C190.5,167.3 177.5,165.8 168.7,161.8 L168.3,164.2 C168.3,164.2 175.8,169.7 204.5,169.7 C233.2,169.7 239.1,164.7 240.4,164.2 C240.2,163.3 240.1,161.8 240.1,161.8 Z" id="Stroke-284" stroke="#8FC31F" stroke-width="1.295"></path>
                        <polygon id="Fill-285" fill="#FFFFFF" points="114.6 111.6 296 111.6 296 11.7 114.6 11.7"></polygon>
                        <polygon id="Stroke-286" stroke="#898989" stroke-width="0.647" points="114.6 111.6 296 111.6 296 11.7 114.6 11.7"></polygon>
                        <path d="M296,86.9 C289.3,89.8 279.3,90.8 268.7,90.3 C254.6,89.6 234.7,86.9 212.3,86.9 C198.6,86.9 180.9,91.3 164.5,91.3 C151.4,91.3 120,85 114.7,88.9 L114.7,11.7 L296,11.7 L296,86.9 Z" id="Fill-287" fill="#93AD65"></path>
                        <path d="M170.5,82.4 C168.8,82.4 166.4,82 165.4,81 C164,79.5 162.9,75 163.7,73 C164.5,71.2 168.3,68.9 170.5,68.9 C170.6,68.9 170.7,68.9 170.8,68.9 C172.8,69.1 176.7,72.3 176.9,74.4 C177,75.4 176.7,77 176,78.6 C175.7,79.4 174.7,81.3 173.5,81.9 C172.9,82.3 171.8,82.4 170.5,82.4" id="Fill-288" fill="#FFFFFF"></path>
                        <path d="M170.2,73.7 C170.2,73.7 170.2,73.8 170.2,73.7 L170.1,75.9 C170.1,75.9 170.1,76 170.2,76 L170.3,76 C170.3,76 170.4,76 170.4,75.9 L170.4,73.7 C170.4,73.7 170.4,73.6 170.3,73.6 L170.2,73.6 L170.2,73.7 Z M170.3,76.3 L170.2,76.3 C170,76.3 169.9,76.2 169.9,76 L169.9,73.8 C169.9,73.6 170,73.5 170.2,73.5 L170.3,73.5 C170.5,73.5 170.6,73.6 170.6,73.8 L170.6,76 C170.7,76.1 170.5,76.3 170.3,76.3 L170.3,76.3 Z" id="Fill-289" fill="#6C8F31"></path>
                        <path d="M170.3,76.7 L170.3,76.7 C170.2,76.7 170.1,76.8 170.1,77 C170.1,77.1 170.2,77.3 170.3,77.3 L170.4,77.3 C170.4,77.2 170.4,77.1 170.4,77 C170.4,76.9 170.4,76.8 170.4,76.7 C170.4,76.7 170.4,76.7 170.3,76.7 M170.6,77.6 C170.5,77.6 170.3,77.6 170.3,77.5 C170.1,77.4 169.9,77.2 169.9,77 C169.8,76.7 170,76.5 170.3,76.4 C170.5,76.4 170.6,76.4 170.7,76.6 C170.8,76.7 170.8,77 170.8,77.1 C170.8,77.2 170.8,77.2 170.8,77.3 C170.8,77.3 170.8,77.4 170.8,77.5 C170.8,77.5 170.7,77.6 170.6,77.6" id="Fill-290" fill="#6C8F31"></path>
                        <path d="M172.7,78.1 C172.1,78.1 171.6,77.9 171.1,77.6 C171.1,77.6 171,77.5 171.1,77.4 C171.2,77.3 171.3,77.4 171.3,77.4 C171.7,77.7 172.2,77.9 172.7,77.9 C173.2,77.9 173.5,77.8 173.8,77.5 C174.1,77.2 174.2,77 174.2,76.6 C174.2,76.3 174.1,76.1 174,75.9 C173.9,75.7 173.7,75.6 173.4,75.5 L172.8,75.3 L172.8,75.3 C172.7,75.3 172.6,75.2 172.5,75.2 C172.4,75.2 172.4,75.1 172.3,75.1 C172.2,75 172.1,75 172.1,74.9 C172.1,74.8 172,74.7 172,74.6 C172,74.4 172.1,74.2 172.2,74.1 C172.3,74 172.5,74 172.8,74 C173.1,74 173.4,74.1 173.7,74.3 C173.7,74.3 173.7,74.3 173.8,74.3 L173.8,74.3 L174,74 C174,74 174,74 174,73.9 C174,73.9 174,73.9 174,73.8 C173.7,73.5 173.3,73.4 172.8,73.4 C172.4,73.4 172,73.5 171.8,73.7 C171.5,73.9 171.4,74.2 171.4,74.5 C171.4,74.8 171.5,75 171.6,75.2 C171.8,75.4 172,75.5 172.2,75.6 L172.8,75.9 L172.8,75.9 C173,76 173.2,76.1 173.3,76.2 C173.4,76.3 173.5,76.4 173.5,76.6 C173.5,76.8 173.4,77 173.3,77.1 C173.2,77.2 173,77.3 172.7,77.3 C172.7,77.3 172.6,77.3 172.6,77.1 C172.6,77 172.7,77 172.7,77 C172.9,77 173,77 173.1,76.9 C173.2,76.8 173.2,76.7 173.2,76.6 C173.2,76.5 173.1,76.4 173.1,76.4 C173,76.3 172.9,76.3 172.6,76.2 L172.6,76.2 L172,76 C171.7,75.9 171.5,75.7 171.3,75.5 C171.1,75.3 171,75 171,74.7 C171,74.3 171.2,73.9 171.5,73.7 C171.8,73.4 172.2,73.3 172.7,73.3 C173.2,73.3 173.6,73.5 174,73.8 C174.1,73.9 174.1,73.9 174.1,74 C174.1,74.1 174.1,74.2 174,74.3 L173.8,74.5 C173.7,74.6 173.7,74.6 173.6,74.6 C173.5,74.6 173.4,74.6 173.3,74.5 C173.1,74.4 172.9,74.3 172.6,74.3 C172.4,74.3 172.3,74.3 172.2,74.4 C172.1,74.5 172.1,74.5 172.1,74.6 C172.1,74.7 172.1,74.7 172.1,74.7 L172.2,74.8 C172.3,74.8 172.3,74.9 172.4,74.9 C172.4,74.9 172.5,75 172.6,75 C172.6,75 172.6,75 172.7,75 L173.3,75.2 C173.6,75.3 173.9,75.5 174,75.7 C174.2,75.9 174.3,76.2 174.3,76.5 C174.3,76.9 174.1,77.3 173.8,77.6 C173.7,78 173.3,78.1 172.7,78.1" id="Fill-291" fill="#6C8F31"></path>
                        <path d="M169.5,77.4 C169.5,77.3 169.4,77.3 169.4,77.3 L169.3,77.3 L169.3,77.3 C169,77.6 168.6,77.8 168.1,77.8 C167.8,77.8 167.6,77.8 167.4,77.7 C167.2,77.6 167,77.5 166.8,77.3 C166.6,77.1 166.5,76.9 166.4,76.6 C166.3,76.3 166.2,76 166.2,75.7 C166.2,75.4 166.3,75.1 166.4,74.8 C166.5,74.5 166.6,74.3 166.8,74.1 C167,73.9 167.2,73.8 167.4,73.7 C167.6,73.6 167.9,73.6 168.1,73.6 C168.5,73.6 168.8,73.7 169.1,74 L169.1,74 L169.2,74 C169.3,74 169.3,73.9 169.3,73.9 C169.3,73.9 169.3,73.8 169.2,73.8 C168.8,73.5 168.4,73.4 168,73.4 C167.7,73.4 167.4,73.5 167.2,73.6 C166.9,73.7 166.7,73.9 166.5,74.1 C166.3,74.3 166.1,74.6 166,74.9 C165.9,75.2 165.8,75.5 165.8,75.9 C165.8,76.3 165.9,76.6 166,76.9 C166.1,77.2 166.3,77.5 166.5,77.7 C166.7,77.9 166.9,78.1 167.2,78.2 C167.5,78.3 167.7,78.4 168,78.4 C168.5,78.4 169,78.2 169.4,77.9 L169.4,77.9 C169.5,77.5 169.5,77.5 169.5,77.4" id="Fill-292" fill="#6C8F31"></path>
                        <path d="M180.9,76 C180.9,74.3 181.3,71.9 182.3,70.9 C183.8,69.5 188.4,68.3 190.3,69.2 C192.1,70 194.4,73.8 194.4,76.1 C194.4,76.2 194.4,76.3 194.4,76.4 C194.2,78.5 191,82.3 188.9,82.5 C187.9,82.6 186.3,82.3 184.7,81.6 C183.9,81.3 182,80.3 181.4,79.1 C181.1,78.4 180.9,77.2 180.9,76" id="Fill-293" fill="#FFFFFF"></path>
                        <path d="M186.6,76.8 C186.6,76.5 186.6,76.2 186.6,75.8 C186.6,75.5 186.5,75.3 186.4,75 C186.3,74.7 186.1,74.4 186,74.1 C186,73.9 186,73.6 186,73.4 L186,73 C186,72.9 185.8,72.9 185.8,73 L185.8,73.6 C185.8,73.8 185.8,74.1 185.8,74.3 C185.8,74.6 186,74.9 186.2,75.2 C186.3,75.5 186.4,75.8 186.4,76.1 C186.4,76.6 186.4,77.2 186.4,77.7 C186.4,78.2 186.4,78.7 186.1,79.1 C186,79.3 185.8,79.4 185.6,79.4 C185.4,79.4 185.3,79.4 185.1,79.4 C184.9,79.4 184.8,79.4 184.6,79.4 C184.1,79.3 184,78.8 183.9,78.4 C183.8,77.9 183.9,77.4 183.9,76.9 C183.9,76.6 183.9,76.3 183.9,76 C183.9,75.7 184,75.4 184.2,75.1 C184.3,74.9 184.4,74.7 184.5,74.5 C184.5,74.3 184.5,74.2 184.5,74 L184.5,73 C184.5,72.9 184.3,72.9 184.3,73 L184.3,73.6 C184.3,73.8 184.3,74.1 184.3,74.3 C184.2,74.6 184,74.9 183.9,75.2 C183.8,75.5 183.8,75.8 183.7,76.1 C183.7,76.6 183.7,77.2 183.7,77.7 C183.7,78.2 183.7,78.7 184,79.1 C184.1,79.3 184.3,79.4 184.5,79.5 C184.8,79.6 185.1,79.6 185.3,79.6 C185.6,79.6 185.8,79.6 186.1,79.5 C186.3,79.4 186.4,79.2 186.5,79 C186.7,78.5 186.7,78 186.7,77.5 C186.6,77.3 186.6,77 186.6,76.8" id="Fill-294" fill="#6C8F31"></path>
                        <path d="M184.5,72.1 C184.5,71.9 184.7,72 184.8,72 L185.3,72 L185.6,72 C185.7,72 185.7,72.1 185.7,72.1 L185,72.5 L185,72.5 L184.7,72.5 C184.4,72.5 184.5,72.3 184.5,72.1 M184.5,72.7 C184.6,72.8 184.8,72.7 185,72.7 L185.6,72.7 C185.8,72.7 186,72.6 186,72.4 L186,72.4 C186,72.2 186,72 185.8,71.9 C185.7,71.8 185.5,71.9 185.3,71.9 L184.7,71.9 C184.5,71.9 184.3,72 184.3,72.3 C184.2,72.4 184.3,72.6 184.5,72.7" id="Fill-295" fill="#6C8F31"></path>
                        <path d="M185.6,75.9 L185.6,76.8 C185.6,76.9 185.8,76.9 185.8,76.8 L185.8,75.9 C185.8,75.8 185.6,75.8 185.6,75.9" id="Fill-296" fill="#6C8F31"></path>
                        <path d="M185.2,76 L185.2,77.7 C185.2,77.8 185.4,77.8 185.4,77.7 L185.4,76 C185.5,75.8 185.2,75.8 185.2,76" id="Fill-297" fill="#6C8F31"></path>
                        <path d="M184.8,76 L184.8,78.5 C184.8,78.6 185,78.6 185,78.5 L185,76 C185.1,75.8 184.8,75.8 184.8,76" id="Fill-298" fill="#6C8F31"></path>
                        <path d="M191.5,76.3 L191.5,76.3 C191.4,76.5 191.3,76.7 191.1,76.7 L191.1,76.5 L191.1,76.2 L191.1,75.3 L191.1,75.3 C191.1,75.1 191.2,74.9 191.4,74.8 C191.5,74.7 191.5,74.6 191.6,74.6 C191.5,75.1 191.5,75.7 191.5,76.3 L191.5,76.3 Z M191.5,78 C191.5,78.1 191.5,78.2 191.4,78.3 C191.3,78.4 191.3,78.5 191.2,78.5 C191.2,78.6 191.1,78.6 191.1,78.7 L191.1,77 C191.3,77 191.4,76.9 191.5,76.8 C191.5,77.2 191.5,77.6 191.5,78 L191.5,78 Z M191,74.8 C190.9,74.9 190.9,74.9 190.8,74.9 C190.7,74.9 190.7,74.9 190.6,74.9 L190.5,74.9 L189.5,74.9 C189.7,74.6 189.9,74.4 190.1,74.1 C190.5,74.1 190.9,74.1 191.2,74.1 C191.3,74.1 191.3,74.1 191.4,74.1 L191.4,74.1 C191.4,74.1 191.4,74.1 191.5,74.1 C191.4,74.2 191.3,74.4 191.2,74.5 C191.2,74.5 191.2,74.5 191.2,74.6 C191.1,74.7 191,74.7 191,74.8 L191,74.8 Z M190.8,75.3 C190.8,75.6 190.8,75.9 190.8,76.2 L190.8,76.6 L190.8,76.8 C190.7,76.8 190.6,76.8 190.5,76.8 C190.3,76.8 190.2,76.8 190,76.8 C190.2,76.7 190.2,76.5 190,76.3 C189.8,76.1 189.5,76.3 189.2,76.4 L189.2,75 L189.3,75 L190.3,75 L190.4,75 C190.5,75 190.6,75 190.7,75 L190.7,75 C190.8,75.1 190.8,75.2 190.8,75.3 L190.8,75.3 Z M189.5,76.7 C189.6,76.6 189.7,76.5 189.9,76.5 C190,76.5 190,76.5 190,76.6 L189.9,76.7 C189.7,76.7 189.6,76.7 189.5,76.7 L189.5,76.7 Z M190.8,79 C190.8,79.1 190.5,79.1 190.5,79.1 L189.8,79.1 L189.3,79.1 L189.3,77.5 L189.4,77.6 C189.5,77.7 189.6,77.8 189.7,77.9 C189.8,78 190,78.1 190.1,78.3 C190.1,78.5 190.4,78.4 190.3,78.2 C190.2,77.9 189.8,77.7 189.6,77.5 C189.5,77.4 189.4,77.2 189.3,77 C189.7,77 190.2,77.1 190.6,77 L190.7,77 L190.7,79 L190.8,79 Z M189.1,74.9 L187.9,74.9 C188,74.7 188.1,74.6 188.2,74.4 C188.3,74.2 188.4,74.1 188.6,74.1 C189,74.1 189.3,74.1 189.7,74.1 C189.5,74.3 189.3,74.6 189.1,74.9 L189.1,74.9 L189.1,74.9 Z M189,75.5 L189,76.7 C188.8,76.7 188.5,76.6 188.3,76.7 C188.1,76.7 187.9,76.7 187.7,76.7 L187.7,76 L187.7,75.4 C187.7,75.4 187.7,75.1 187.8,75.1 L189,75.1 L189,75.5 Z M188.3,76.9 C188.3,76.8 188.6,76.8 188.8,76.8 C188.7,76.9 188.6,76.9 188.5,76.9 C188.5,77 188.3,77 188.3,76.9 L188.3,76.9 Z M189,78.5 L189,79 L188.2,79 L187.8,79 C187.7,79 187.7,78.9 187.7,78.8 L187.7,77.5 L187.7,76.8 C187.8,76.8 187.9,76.8 188,76.8 L188,76.8 L188,76.8 C188,76.8 188,76.8 188,76.9 C188,77.1 188.2,77.1 188.4,77.1 C188.6,77.1 188.7,77.1 188.9,77 C188.9,77.1 188.8,77.2 188.8,77.3 C188.7,77.6 188.6,77.9 188.6,78.2 C188.6,78.4 188.9,78.4 188.9,78.2 C188.9,77.9 189,77.7 189.1,77.4 L189.1,78.5 L189,78.5 Z M191.7,74.1 L191.7,74.1 C191.6,73.9 191.5,73.8 191.3,73.8 C190.9,73.8 190.5,73.8 190.1,73.8 C190,73.8 190,73.8 189.9,73.8 C189.9,73.8 189.9,73.8 189.8,73.8 C189.4,73.8 189,73.8 188.6,73.8 C188.5,73.8 188.3,73.8 188.2,73.9 C188,74 187.8,74.3 187.7,74.5 C187.6,74.6 187.5,74.8 187.4,74.9 L187.4,74.9 C187.3,75 187.3,75.2 187.3,75.4 L187.3,76.8 L187.3,78.4 C187.3,78.7 187.2,79.1 187.5,79.2 C187.6,79.2 187.7,79.2 187.8,79.2 L188.5,79.2 L190.1,79.2 C190.3,79.2 190.7,79.2 190.8,79 L190.8,79 C190.9,78.8 191.1,78.7 191.2,78.5 C191.3,78.4 191.3,78.3 191.4,78.3 C191.5,78.2 191.5,78 191.5,77.9 C191.7,76.7 191.7,75.4 191.7,74.1 L191.7,74.1 Z" id="Fill-299" fill="#6C8F31"></path>
                        <path d="M206,69 C207.8,69.3 210.1,70 211,71.2 C212.2,72.9 212.7,77.8 211.6,79.7 C210.5,81.4 206.2,83.3 204,82.9 C203.9,82.9 203.8,82.9 203.7,82.8 C201.6,82.3 198.2,78.4 198.2,76.2 C198.2,75.1 198.8,73.6 199.7,72 C200.2,71.2 201.4,69.4 202.8,68.9 C203.5,68.8 204.7,68.8 206,69" id="Fill-300" fill="#FFFFFF"></path>
                        <path d="M208.7,77.3 C208.7,77.3 208.8,77.2 208.7,77.3 C208.8,77.2 208.8,77.1 208.8,77.1 C208.7,77 208.6,76.9 208.5,76.8 L208.4,76.8 L208.4,76.9 C208.3,77 208.6,77.3 208.7,77.3 L208.7,77.3 Z M207,78 C207.1,78.2 207.1,78.3 207.2,78.4 L207.3,78.4 L207.4,78.3 C207.4,78.2 207.3,78 207.2,77.9 C207.2,77.9 207.1,77.8 207.1,77.9 C207.1,77.9 207.1,77.9 207,78 L207,78 Z M207.4,73 C207.4,73 207.4,72.9 207.4,73 C207.2,72.9 207.2,72.9 207.2,73 C207.2,73.1 207.1,73.2 207.1,73.3 C207.1,73.4 207.1,73.4 207.2,73.4 C207.3,73.4 207.3,73.4 207.4,73.3 C207.4,73.2 207.5,73.1 207.5,73 C207.4,73.1 207.4,73.1 207.4,73 L207.4,73 Z M208.4,74.5 L208.4,74.5 C208.6,74.4 208.7,74.3 208.8,74.2 L208.8,74.1 L208.7,74.1 C208.6,74.2 208.5,74.3 208.4,74.3 C208.3,74.4 208.3,74.4 208.4,74.5 C208.3,74.5 208.3,74.5 208.4,74.5 L208.4,74.5 Z M208.3,77.7 C208.4,77.7 208.4,77.7 208.3,77.7 C208.4,77.6 208.4,77.5 208.4,77.5 C208.3,77.4 208.2,77.3 208.1,77.2 C208,77.1 208,77.1 207.9,77.2 C207.9,77.2 207.9,77.3 207.9,77.4 C208.1,77.5 208.1,77.6 208.3,77.7 L208.3,77.7 L208.3,77.7 Z M209,75.3 C208.9,75.3 208.8,75.3 208.6,75.4 C208.5,75.4 208.5,75.5 208.5,75.5 C208.5,75.6 208.6,75.6 208.6,75.6 C208.7,75.6 208.9,75.6 209,75.5 C209.1,75.5 209.1,75.4 209.1,75.4 C209.2,75.3 209.1,75.2 209,75.3 L209,75.3 Z M206.7,73.3 C206.7,73.3 206.8,73.3 206.7,73.3 C206.8,73.1 206.8,73 206.9,72.8 C206.9,72.7 206.9,72.7 206.8,72.7 C206.7,72.7 206.7,72.7 206.7,72.8 C206.7,72.9 206.6,73.1 206.6,73.2 C206.5,73.3 206.6,73.3 206.7,73.3 L206.7,73.3 Z M208,74.1 C208.1,74.1 208.1,74.1 208,74.1 C208.2,74 208.3,73.9 208.4,73.8 L208.4,73.7 C208.4,73.7 208.3,73.6 208.3,73.7 C208.2,73.8 208.1,73.9 208,74 C207.9,74 207.9,74 208,74.1 L208,74.1 L208,74.1 Z M209,76.1 C209.1,76.1 209.1,76.1 209.1,76 C209.1,75.9 209.1,75.9 209,75.9 C208.9,75.9 208.7,75.9 208.6,75.8 C208.5,75.8 208.5,75.8 208.5,75.9 C208.5,76 208.5,76 208.6,76 C208.8,76 208.9,76 209,76.1 L209,76.1 Z M206.5,78.1 C206.5,78.3 206.6,78.4 206.6,78.6 C206.6,78.6 206.7,78.7 206.7,78.6 L206.8,78.5 C206.8,78.4 206.7,78.2 206.7,78.1 L206.6,78 C206.6,78 206.6,78.1 206.5,78.1 L206.5,78.1 Z M207.5,77.7 C207.5,77.7 207.5,77.8 207.5,77.7 C207.6,77.9 207.8,78.1 207.9,78.3 C207.9,78.3 208,78.3 208.1,78.3 C208.2,78.3 208.2,78.2 208.1,78.2 C208,78 207.9,77.9 207.7,77.7 C207.7,77.6 207.6,77.6 207.5,77.7 C207.5,77.6 207.5,77.7 207.5,77.7 L207.5,77.7 Z M208.1,73.1 L208.1,73.1 C208,73 207.9,73 207.9,73.1 C207.8,73.3 207.7,73.4 207.6,73.6 C207.6,73.7 207.6,73.7 207.6,73.8 C207.7,73.8 207.7,73.8 207.8,73.8 C207.8,73.5 208,73.4 208.1,73.1 C208.1,73.2 208.1,73.2 208.1,73.1 L208.1,73.1 Z M208.4,74.9 C208.4,75 208.5,75.1 208.6,75 C208.8,74.9 209,74.9 209.2,74.8 C209.3,74.8 209.3,74.7 209.3,74.6 C209.3,74.5 209.2,74.5 209.1,74.5 C208.9,74.7 208.7,74.7 208.4,74.9 C208.5,74.8 208.4,74.9 208.4,74.9 L208.4,74.9 Z M209.1,76.8 L209.1,76.8 C209.2,76.8 209.2,76.7 209.2,76.7 C209.2,76.6 209.2,76.6 209.1,76.6 C208.9,76.5 208.7,76.5 208.5,76.4 C208.4,76.4 208.4,76.4 208.3,76.5 C208.3,76.6 208.3,76.6 208.4,76.7 C208.7,76.6 208.9,76.7 209.1,76.8 L209.1,76.8 L209.1,76.8 Z M206,72.8 C206,72.9 206,73 206,73.1 C206,73.2 206,73.2 206.1,73.2 C206.2,73.2 206.2,73.2 206.2,73.1 L206.2,72.5 C206.2,72.4 206.2,72.4 206.1,72.4 C206,72.4 206,72.5 206,72.5 C206,72.7 206,72.8 206,72.8 L206,72.8 Z M206.3,78.5 C206.3,78.4 206.3,78.3 206.3,78.2 C206.3,78.1 206.3,78.1 206.2,78.1 C206.1,78.1 206.1,78.1 206.1,78.2 C206.1,78.4 206.1,78.6 206.1,78.8 C206.1,78.9 206.2,78.9 206.2,78.9 C206.3,78.9 206.3,78.8 206.3,78.8 C206.3,78.7 206.3,78.6 206.3,78.5 L206.3,78.5 Z M206.4,73.7 L206.4,77.7 C207.3,77.6 208.1,76.9 208.1,75.8 C208.2,74.6 207.4,73.9 206.4,73.7 L206.4,73.7 Z M205.4,75.7 L205.4,72.1 C205.4,71.9 205.4,71.9 205.6,71.9 C206.4,71.9 207.2,72.1 207.9,72.5 C208.9,73.1 209.5,73.9 209.7,75 C209.8,75.8 209.8,76.5 209.4,77.3 C209,78.1 208.5,78.7 207.7,79 C207,79.3 206.3,79.5 205.5,79.5 C205.4,79.5 205.3,79.4 205.3,79.3 L205.3,75.7 L205.4,75.7 Z" id="Fill-301" fill="#6C8F31"></path>
                        <path d="M203.3,73 L202.5,73 C202.6,72.8 202.8,72.6 202.9,72.3 C203,72.5 203.1,72.7 203.3,73 M203.6,73 C203.4,72.6 203.2,72.3 203,71.9 C202.9,71.8 202.8,71.8 202.8,71.9 C202.6,72.3 202.4,72.6 202.2,73 C202.2,73.1 202.2,73.1 202.2,73.2 L202.3,73.3 L203.6,73.3 C203.6,73.2 203.7,73.1 203.6,73" id="Fill-302" fill="#6C8F31"></path>
                        <path d="M203.1,79.2 L202.6,79.2 C202.5,79.2 202.4,79.1 202.4,78.9 L202.4,78.8 L203.4,78.8 L203.4,78.9 C203.4,79.1 203.3,79.2 203.1,79.2 L203.1,79.2 Z M202.4,78.5 L203.4,78.5 L203.4,73.9 L202.4,73.9 L202.4,78.5 Z M202.1,73.7 L202.1,79 C202.1,79.3 202.3,79.5 202.6,79.5 L203.1,79.5 C203.4,79.5 203.6,79.3 203.6,79 L203.6,73.7 L202.1,73.7 Z" id="Fill-303" fill="#6C8F31"></path>
                        <path d="M222.3,68.9 C224,68.9 226.4,69.3 227.4,70.3 C228.8,71.8 230,76.4 229.1,78.4 C228.3,80.2 224.5,82.6 222.2,82.6 C222.1,82.6 222,82.6 221.9,82.6 C219.8,82.4 216,79.2 215.7,77 C215.6,76 215.9,74.4 216.6,72.8 C216.9,72 217.9,70 219.1,69.4 C219.9,69.1 221.1,68.9 222.3,68.9" id="Fill-304" fill="#FFFFFF"></path>
                        <path d="M220.3,74.6 C220.4,74.6 220.5,74.6 220.5,74.5 C220.8,74.2 221,73.9 221.3,73.7 C221.4,73.6 221.3,73.6 221.3,73.5 C221.2,73.5 221.1,73.5 221.1,73.6 C220.8,73.9 220.6,74.2 220.3,74.4 C220.2,74.5 220.2,74.6 220.3,74.6" id="Fill-305" fill="#6C8F31"></path>
                        <path d="M220.5,75.2 C220.4,75.2 220.5,75.3 220.5,75.3 C220.6,75.3 220.7,75.3 220.7,75.2 C221,75 221.2,74.7 221.5,74.5 C221.6,74.5 221.5,74.4 221.5,74.4 C221.4,74.4 221.3,74.4 221.3,74.5 C221,74.7 220.8,75 220.5,75.2" id="Fill-306" fill="#6C8F31"></path>
                        <path d="M225.9,78.4 C225.9,78.5 225.8,78.5 225.8,78.5 C225.7,78.5 225.7,78.5 225.7,78.4 C225.7,78.3 225.7,78.3 225.8,78.3 C225.9,78.3 225.9,78.4 225.9,78.4" id="Fill-307" fill="#6C8F31"></path>
                        <path d="M226.6,78.7 L225,78.7 C225,78.7 224.9,78.7 224.9,78.6 L224.9,78.2 L226.6,78.2 L226.6,78.7 C226.7,78.6 226.6,78.7 226.6,78.7 L226.6,78.7 Z M225,78.1 L226.7,78.1 L226.7,75.8 L225,75.8 L225,78.1 Z M225,75.3 L226.5,75.3 C226.5,75.3 226.6,75.3 226.6,75.4 L226.6,75.6 L225,75.6 L225,75.3 C225,75.4 225,75.3 225,75.3 L225,75.3 Z M226.6,75.1 L225,75.1 C224.8,75.1 224.7,75.2 224.7,75.4 L224.7,78.6 C224.7,78.8 224.8,78.9 225,78.9 L226.5,78.9 C226.7,78.9 226.8,78.8 226.8,78.6 L226.8,75.4 C226.9,75.3 226.8,75.1 226.6,75.1 L226.6,75.1 Z" id="Fill-308" fill="#6C8F31"></path>
                        <path d="M223.5,78.5 L222.5,78.5 L222.5,77.5 L224.5,77.5 L224.5,77.3 L220,77.3 C219.6,77.3 219.3,77.1 219.2,76.8 L224.5,76.8 L224.5,76.6 L219.1,76.6 L219.1,76.5 L219.1,73.6 C219.1,73.1 219.5,72.7 220,72.7 L224.8,72.7 C225.3,72.7 225.7,73.1 225.7,73.6 L225.7,74.9 L225.9,74.9 L225.9,73.6 C225.9,73 225.4,72.5 224.8,72.5 L220,72.5 C219.4,72.5 218.9,73 218.9,73.6 L218.9,76.5 C218.9,77.1 219.4,77.6 220,77.6 L222.3,77.6 L222.3,78.6 L221.3,78.6 C221.2,78.6 221.1,78.7 221.1,78.8 C221.1,78.9 221.2,79 221.3,79 L223.6,79 C223.7,79 223.8,78.9 223.8,78.8 C223.7,78.6 223.6,78.5 223.5,78.5" id="Fill-309" fill="#6C8F31"></path>
                        <path d="M243.9,70 C245.3,71 247,72.7 247.2,74.1 C247.5,76.1 245.7,80.5 243.8,81.6 C242.1,82.6 237.6,82.2 235.8,80.9 C235.7,80.8 235.6,80.8 235.6,80.7 C234.1,79.3 232.8,74.5 233.9,72.6 C234.4,71.7 235.6,70.6 237.1,69.7 C237.9,69.2 239.7,68.2 241.1,68.5 C241.8,68.8 242.8,69.3 243.9,70" id="Fill-310" fill="#FFFFFF"></path>
                        <path d="M239.4,72.3 C239.1,72.3 238.8,72.3 238.5,72.4 C237.3,72.7 235.7,73.9 235.7,75.4 C235.7,76.6 236.2,78.1 237.6,78.4 C238.2,78.5 238.7,78.6 238.9,78.6 L239,78.6 C241.5,78.6 241.6,77.2 241.7,76.6 C241.7,76.5 241.7,76.5 241.7,76.5 C241.8,75.7 241,75.1 240.5,74.8 C240.4,74.7 240.4,74.7 240.3,74.7 C239.9,74.4 239.9,73.8 240.1,73 C240.1,72.9 240.2,72.6 240.1,72.5 C239.9,72.3 239.7,72.3 239.4,72.3 M238.9,78.9 L238.9,78.9 L238.9,78.9 C238.6,78.9 238,78.9 237.5,78.7 C236.2,78.4 235.3,77.1 235.3,75.4 C235.3,73.7 237.1,72.4 238.3,72.1 C239.3,71.9 239.9,71.9 240.2,72.3 C240.3,72.5 240.4,72.8 240.3,73.1 C240.1,73.7 240.1,74.3 240.4,74.4 C240.4,74.4 240.5,74.5 240.6,74.5 C241.1,74.8 242,75.5 241.9,76.5 L241.9,76.6 C241.9,77.2 241.8,78.9 238.9,78.9" id="Fill-311" fill="#6C8F31"></path>
                        <path d="M238.7,73.1 C238.6,73.1 238.6,73.1 238.5,73.1 C238.4,73.1 238.3,73.2 238.2,73.3 C238.2,73.4 238.1,73.5 238.2,73.6 C238.3,73.7 238.4,73.8 238.6,73.8 C238.7,73.8 238.7,73.8 238.8,73.8 C238.9,73.8 239,73.7 239.1,73.6 C239.1,73.5 239.2,73.4 239.1,73.3 C239,73.2 238.8,73.1 238.7,73.1 M238.5,74.2 C238.2,74.2 237.9,74 237.8,73.8 C237.7,73.6 237.7,73.4 237.8,73.2 C237.9,73 238,72.9 238.2,72.8 C238.3,72.8 238.4,72.7 238.5,72.7 C238.8,72.7 239.1,72.9 239.2,73.1 C239.3,73.3 239.3,73.5 239.2,73.7 C239.1,73.9 239,74 238.8,74.1 C238.8,74.2 238.6,74.2 238.5,74.2" id="Fill-312" fill="#6C8F31"></path>
                        <path d="M237.1,74.8 C236.9,74.8 236.8,74.9 236.7,75 C236.7,75.1 236.7,75.2 236.7,75.3 C236.8,75.4 236.9,75.5 237,75.5 C237.2,75.6 237.5,75.5 237.6,75.3 C237.6,75.2 237.6,75.1 237.6,75 C237.5,74.9 237.4,74.8 237.3,74.8 C237.2,74.8 237.1,74.8 237.1,74.8 M237.2,75.8 C237.1,75.8 237,75.8 236.9,75.8 C236.7,75.7 236.5,75.6 236.4,75.4 C236.3,75.2 236.3,75 236.3,74.8 C236.4,74.5 236.7,74.3 237,74.3 C237.1,74.3 237.2,74.3 237.3,74.3 C237.5,74.4 237.7,74.5 237.8,74.7 C237.9,74.9 237.9,75.1 237.9,75.3 C237.8,75.7 237.5,75.8 237.2,75.8" id="Fill-313" fill="#6C8F31"></path>
                        <path d="M237.3,76.6 L237.3,76.6 C237.1,76.6 237,76.7 236.9,76.7 C236.8,76.8 236.8,76.9 236.8,77 C236.8,77.2 237,77.4 237.3,77.3 C237.4,77.3 237.5,77.2 237.6,77.2 C237.7,77.1 237.7,77 237.7,76.9 C237.7,76.7 237.5,76.6 237.3,76.6 M237.2,77.6 C236.8,77.6 236.4,77.3 236.4,76.9 C236.4,76.7 236.5,76.5 236.6,76.4 C236.7,76.3 236.9,76.2 237.1,76.2 C237.5,76.2 237.9,76.5 237.9,76.8 C237.9,77 237.8,77.2 237.7,77.3 C237.7,77.5 237.5,77.6 237.2,77.6 C237.3,77.6 237.3,77.6 237.2,77.6" id="Fill-314" fill="#6C8F31"></path>
                        <path d="M243.1,74.4 L243,74.4 L242.9,74.5 C242.8,74.6 242.8,74.8 242.9,74.9 L245.1,77.1 C245.4,77.4 245.6,77.6 245.7,77.6 L245.8,77.5 C245.8,77.4 245.6,77.1 245.4,76.8 L243.3,74.4 C243.3,74.4 243.2,74.4 243.1,74.4 L243.1,74.4 Z M245.8,77.6 L245.8,77.8 L245.8,77.6 Z M245.8,77.9 C245.5,77.9 245.1,77.4 244.9,77.3 L242.7,75.1 C242.5,74.8 242.4,74.5 242.7,74.3 L242.8,74.2 C242.9,74.1 243,74.1 243.2,74.1 C243.4,74.1 243.6,74.2 243.7,74.3 L245.7,76.7 C245.8,76.8 246,77 246.1,77.2 C246.2,77.3 246.4,77.6 246.2,77.8 L246.1,77.9 C246,77.9 245.9,77.9 245.8,77.9 L245.8,77.9 Z" id="Fill-315" fill="#6C8F31"></path>
                        <path d="M241.8,73.2 C241.7,73.2 241.6,73.2 241.6,73.2 C241.5,73.2 241.3,73.3 241.3,73.3 L241.3,73.4 C241.3,73.4 241.4,73.5 241.5,73.5 C241.6,73.5 241.7,73.6 241.7,73.7 C241.8,73.9 241.9,74 242.1,74 C242.2,74 242.4,74 242.4,73.9 C242.5,73.8 242.5,73.5 242.3,73.4 C242.1,73.2 242,73.2 241.8,73.2 M242.1,74.3 L242,74.3 C241.7,74.3 241.5,74.1 241.4,73.8 C241.4,73.8 241.4,73.8 241.3,73.7 C241.3,73.7 241.1,73.6 241,73.5 C240.9,73.4 240.9,73.2 241.1,73 C241.3,72.8 241.5,72.8 241.6,72.8 C241.7,72.8 241.8,72.8 241.9,72.8 C242,72.8 242.3,72.8 242.5,73 C242.9,73.3 242.9,73.7 242.7,74 C242.5,74.2 242.3,74.3 242.1,74.3" id="Fill-316" fill="#6C8F31"></path>
                        <line x1="192.8" y1="97.3" x2="217.8" y2="97.3" id="Stroke-317" stroke="#93AD65" stroke-width="1.295"></line>
                        <line x1="186.5" y1="101.8" x2="224.2" y2="101.8" id="Stroke-318" stroke="#93AD65" stroke-width="1.295"></line>
                        <path d="M320.3,295.7 C320.3,297.4 318.9,298.8 317.2,298.8 C315.5,298.8 311.3,297 311.3,295.7 C311.3,294.7 315.5,292.6 317.2,292.6 C318.9,292.6 320.3,294 320.3,295.7" id="Fill-319" fill="#93AD65"></path>
                        <path d="M102.1,295.8 C102.1,297.5 100.7,298.9 99,298.9 C97.3,298.9 93.1,297.1 93.1,295.8 C93.1,294.8 97.3,292.7 99,292.7 C100.7,292.7 102.1,294.1 102.1,295.8" id="Fill-320" fill="#93AD65"></path>
                        <path d="M57.3,120.5 C57.3,118.8 58.7,117.4 60.4,117.4 C62.1,117.4 66.3,119.2 66.3,120.5 C66.3,121.5 62.1,123.6 60.4,123.6 C58.7,123.6 57.3,122.2 57.3,120.5" id="Fill-321" fill="#93AD65"></path>
                        <path d="M361.7,143.9 C363.4,143.9 364.8,145.3 364.8,147 C364.8,148.7 363,152.9 361.7,152.9 C360.7,152.9 358.6,148.7 358.6,147 C358.7,145.2 360,143.9 361.7,143.9" id="Fill-322" fill="#93AD65"></path>
                        <path d="M267.2,104.4 C267.1,104.1 267.1,103.8 267,103.5 C266.8,102.1 267.2,100.9 268.4,100 C268.9,99.6 269.5,99.2 270,98.8 C269.5,96.9 269.1,95 268.6,93 C268.2,93 267.6,92.9 267.1,92.8 C264.7,92.4 263.4,90.7 263.8,88.3 C263.9,87.6 264,86.9 264.1,86.2 C264.5,83.9 266.2,82.6 268.6,83 C269.2,83.1 269.7,83.2 270.2,83.3 C271.2,81.6 272.2,80 273.3,78.2 C273,77.8 272.6,77.2 272.2,76.7 C271.1,75.1 271.4,73 272.9,71.7 C273.7,71.1 274.5,70.5 275.3,69.9 C276.9,68.8 279.1,69.2 280.3,70.8 C280.7,71.3 281.1,71.9 281.4,72.3 C283.3,71.8 285.2,71.4 287.2,70.9 C287.2,70.5 287.3,69.9 287.4,69.3 C287.8,67 289.5,65.7 291.8,66 C292.6,66.1 293.4,66.2 294.1,66.4 C296.2,66.8 297.5,68.5 297.2,70.6 C297.1,71.2 297,71.9 296.9,72.4 C298.6,73.4 300.2,74.4 302,75.5 C302.5,75.2 303,74.7 303.6,74.3 C305.2,73.2 307.4,73.6 308.5,75.1 C309,75.8 309.6,76.5 310.1,77.2 C311.3,78.9 311,81.1 309.4,82.4 C308.9,82.8 308.4,83.2 307.9,83.5 C308.4,85.4 308.8,87.2 309.3,89.3 C309.8,89.4 310.4,89.4 311.1,89.5 C313.2,89.9 314.4,91.5 314.2,93.6 C314.1,94.7 313.9,95.7 313.7,96.8 C313.3,98.4 311.8,99.5 310.1,99.5 C309.3,99.5 308.5,99.3 307.8,99.2 C306.8,100.9 305.8,102.5 304.8,104.2 C305.1,104.7 305.5,105.2 305.9,105.7 C307.1,107.3 306.8,109.5 305.2,110.8 C304.5,111.4 303.7,111.9 303,112.4 C301.3,113.5 299.1,113.1 297.9,111.5 C297.5,111 297.1,110.5 296.8,110 C294.9,110.5 293.1,110.9 291.1,111.4 C291.1,111.8 291,112.3 290.9,112.9 C290.5,115.4 288.8,116.7 286.2,116.3 C285.3,116.2 284.5,116.1 283.6,115.8 C281.9,115.3 280.8,113.8 280.9,112 C281,111.3 281.2,110.6 281.3,109.9 C279.5,108.8 277.9,107.8 276.2,106.8 C274.4,108.4 272.4,109.4 270,107.7 C268.8,106.7 268,105.6 267.2,104.4" id="Fill-323" fill="#727171"></path>
                        <path d="M267.2,104.4 C267.1,104.1 267.1,103.8 267,103.5 C266.8,102.1 267.2,100.9 268.4,100 C268.9,99.6 269.5,99.2 270,98.8 C269.5,96.9 269.1,95 268.6,93 C268.2,93 267.6,92.9 267.1,92.8 C264.7,92.4 263.4,90.7 263.8,88.3 C263.9,87.6 264,86.9 264.1,86.2 C264.5,83.9 266.2,82.6 268.6,83 C269.2,83.1 269.7,83.2 270.2,83.3 C271.2,81.6 272.2,80 273.3,78.2 C273,77.8 272.6,77.2 272.2,76.7 C271.1,75.1 271.4,73 272.9,71.7 C273.7,71.1 274.5,70.5 275.3,69.9 C276.9,68.8 279.1,69.2 280.3,70.8 C280.7,71.3 281.1,71.9 281.4,72.3 C283.3,71.8 285.2,71.4 287.2,70.9 C287.2,70.5 287.3,69.9 287.4,69.3 C287.8,67 289.5,65.7 291.8,66 C292.6,66.1 293.4,66.2 294.1,66.4 C296.2,66.8 297.5,68.5 297.2,70.6 C297.1,71.2 297,71.9 296.9,72.4 C298.6,73.4 300.2,74.4 302,75.5 C302.5,75.2 303,74.7 303.6,74.3 C305.2,73.2 307.4,73.6 308.5,75.1 C309,75.8 309.6,76.5 310.1,77.2 C311.3,78.9 311,81.1 309.4,82.4 C308.9,82.8 308.4,83.2 307.9,83.5 C308.4,85.4 308.8,87.2 309.3,89.3 C309.8,89.4 310.4,89.4 311.1,89.5 C313.2,89.9 314.4,91.5 314.2,93.6 C314.1,94.7 313.9,95.7 313.7,96.8 C313.3,98.4 311.8,99.5 310.1,99.5 C309.3,99.5 308.5,99.3 307.8,99.2 C306.8,100.9 305.8,102.5 304.8,104.2 C305.1,104.7 305.5,105.2 305.9,105.7 C307.1,107.3 306.8,109.5 305.2,110.8 C304.5,111.4 303.7,111.9 303,112.4 C301.3,113.5 299.1,113.1 297.9,111.5 C297.5,111 297.1,110.5 296.8,110 C294.9,110.5 293.1,110.9 291.1,111.4 C291.1,111.8 291,112.3 290.9,112.9 C290.5,115.4 288.8,116.7 286.2,116.3 C285.3,116.2 284.5,116.1 283.6,115.8 C281.9,115.3 280.8,113.8 280.9,112 C281,111.3 281.2,110.6 281.3,109.9 C279.5,108.8 277.9,107.8 276.2,106.8 C274.4,108.4 272.4,109.4 270,107.7 C268.8,106.7 268,105.6 267.2,104.4 Z" id="Stroke-324" stroke="#FAEE00" stroke-width="1.295"></path>
                        <path d="M340.9,81.5 C341,82.2 341.2,83 341.1,83.7 C340.9,85.3 339.7,86.6 338.1,86.8 C337.4,86.9 337.1,87.2 336.9,87.9 C336.7,88.7 336.3,89.5 335.8,90.2 C335.5,90.7 335.5,90.9 335.8,91.4 C336.7,92.7 336.8,94.1 336,95.5 C335.2,96.8 334,97.4 332.5,97.3 C331.3,97.2 330.4,96.6 329.8,95.7 C329.5,95.3 329.2,95.3 328.8,95.4 C327.9,95.6 327,95.7 326.1,95.7 C325.5,95.7 325.2,95.8 325,96.4 C323.8,98.9 320.7,99.4 318.8,97.3 C317.8,96.1 317.6,94.7 318.2,93.3 C318.4,92.8 318.3,92.6 318,92.2 C317.4,91.5 316.8,90.7 316.3,89.9 C316,89.5 315.8,89.3 315.3,89.4 C312.9,89.6 311.1,87.9 311.2,85.6 C311.2,83.8 312.6,82.3 314.6,82 C315.1,81.9 315.2,81.8 315.4,81.3 C315.7,80.4 316.2,79.5 316.6,78.6 C316.8,78.2 316.8,78 316.6,77.6 C315.5,75.9 315.6,74.3 316.7,72.9 C318.2,71.1 321,71.1 322.5,73 C322.9,73.5 323.2,73.6 323.8,73.4 C324.9,73.2 326,73.1 327.2,73 C327.6,72.1 328.1,71.2 329.1,70.7 C330.6,70 332,70.3 333.4,71.2 C333.7,71.6 334,72 334.3,72.5 C334.6,73.7 334.6,74.8 334.1,75.9 C334,76 334.2,76.3 334.3,76.5 C334.9,77.4 335.6,78.3 336.2,79.1 C336.3,79.3 336.6,79.5 336.8,79.5 C338,79.3 339.1,79.7 340.1,80.4 C340.3,80.7 340.6,81.1 340.9,81.5" id="Fill-325" fill="#93AD65"></path>
                        <path d="M340.9,81.5 C341,82.2 341.2,83 341.1,83.7 C340.9,85.3 339.7,86.6 338.1,86.8 C337.4,86.9 337.1,87.2 336.9,87.9 C336.7,88.7 336.3,89.5 335.8,90.2 C335.5,90.7 335.5,90.9 335.8,91.4 C336.7,92.7 336.8,94.1 336,95.5 C335.2,96.8 334,97.4 332.5,97.3 C331.3,97.2 330.4,96.6 329.8,95.7 C329.5,95.3 329.2,95.3 328.8,95.4 C327.9,95.6 327,95.7 326.1,95.7 C325.5,95.7 325.2,95.8 325,96.4 C323.8,98.9 320.7,99.4 318.8,97.3 C317.8,96.1 317.6,94.7 318.2,93.3 C318.4,92.8 318.3,92.6 318,92.2 C317.4,91.5 316.8,90.7 316.3,89.9 C316,89.5 315.8,89.3 315.3,89.4 C312.9,89.6 311.1,87.9 311.2,85.6 C311.2,83.8 312.6,82.3 314.6,82 C315.1,81.9 315.2,81.8 315.4,81.3 C315.7,80.4 316.2,79.5 316.6,78.6 C316.8,78.2 316.8,78 316.6,77.6 C315.5,75.9 315.6,74.3 316.7,72.9 C318.2,71.1 321,71.1 322.5,73 C322.9,73.5 323.2,73.6 323.8,73.4 C324.9,73.2 326,73.1 327.2,73 C327.6,72.1 328.1,71.2 329.1,70.7 C330.6,70 332,70.3 333.4,71.2 C333.7,71.6 334,72 334.3,72.5 C334.6,73.7 334.6,74.8 334.1,75.9 C334,76 334.2,76.3 334.3,76.5 C334.9,77.4 335.6,78.3 336.2,79.1 C336.3,79.3 336.6,79.5 336.8,79.5 C338,79.3 339.1,79.7 340.1,80.4 C340.3,80.7 340.6,81.1 340.9,81.5 Z" id="Stroke-326" stroke="#FAEE00" stroke-width="1.295"></path>
                        <path d="M293.3,97.4 C296.7,94.9 297.5,90.1 295,86.7 C292.5,83.3 287.6,82.6 284.3,85 C280.9,87.5 280.2,92.3 282.6,95.7 C285.1,99.1 289.9,99.9 293.3,97.4 M294.7,99.4 C290.2,102.7 283.9,101.7 280.6,97.2 C277.4,92.7 278.4,86.4 282.8,83.1 C287.3,79.9 293.6,80.9 296.9,85.3 C300.2,89.8 299.2,96.1 294.7,99.4" id="Fill-327" fill="#FFFFFF"></path>
                        <path d="M293.3,97.4 C296.7,94.9 297.5,90.1 295,86.7 C292.5,83.3 287.6,82.6 284.3,85 C280.9,87.5 280.2,92.3 282.6,95.7 C285.1,99.1 289.9,99.9 293.3,97.4 Z M294.7,99.4 C290.2,102.7 283.9,101.7 280.6,97.2 C277.4,92.7 278.4,86.4 282.8,83.1 C287.3,79.9 293.6,80.9 296.9,85.3 C300.2,89.8 299.2,96.1 294.7,99.4 Z" id="Stroke-328" stroke="#FAEE00" stroke-width="1.295"></path>
                        <path d="M295.7,104.7 C294.1,105.5 292.5,106 290.9,106.2 C286.3,106.8 282.3,105.6 278.8,102.6 C278.6,102.4 278.5,102.3 278.3,102.1 C277.9,101.6 277.9,101 278.4,100.5 C278.8,100.1 279.4,100 279.9,100.4 C280.3,100.7 280.7,101 281.1,101.3 C285.1,104.2 289.4,104.7 294,102.8 C294.4,102.7 294.8,102.5 295.1,102.6 C295.5,102.7 295.8,103.2 295.9,103.5 C296,104 295.8,104.4 295.7,104.7" id="Fill-329" fill="#FFFFFF"></path>
                        <path d="M295.7,104.7 C294.1,105.5 292.5,106 290.9,106.2 C286.3,106.8 282.3,105.6 278.8,102.6 C278.6,102.4 278.5,102.3 278.3,102.1 C277.9,101.6 277.9,101 278.4,100.5 C278.8,100.1 279.4,100 279.9,100.4 C280.3,100.7 280.7,101 281.1,101.3 C285.1,104.2 289.4,104.7 294,102.8 C294.4,102.7 294.8,102.5 295.1,102.6 C295.5,102.7 295.8,103.2 295.9,103.5 C296,104 295.8,104.4 295.7,104.7 Z" id="Stroke-330" stroke="#FAEE00" stroke-width="1.295"></path>
                        <path d="M301.1,82.3 C301.7,83.5 302.4,84.8 302.9,86.1 C303.2,86.7 302.8,87.3 302.3,87.6 C301.7,87.9 301.1,87.7 300.8,87.1 C300.7,86.9 300.6,86.7 300.5,86.5 C299.9,85.5 299.4,84.4 298.7,83.5 C297,81.2 294.7,79.8 291.9,79.1 C291.6,79 291.3,79 291.1,78.9 C290.3,78.7 289.9,78.1 290.1,77.4 C290.3,76.7 290.9,76.3 291.7,76.6 C293,77 294.4,77.4 295.6,77.9 C297.8,78.8 299.6,80.4 301.1,82.3" id="Fill-331" fill="#FFFFFF"></path>
                        <path d="M301.1,82.3 C301.7,83.5 302.4,84.8 302.9,86.1 C303.2,86.7 302.8,87.3 302.3,87.6 C301.7,87.9 301.1,87.7 300.8,87.1 C300.7,86.9 300.6,86.7 300.5,86.5 C299.9,85.5 299.4,84.4 298.7,83.5 C297,81.2 294.7,79.8 291.9,79.1 C291.6,79 291.3,79 291.1,78.9 C290.3,78.7 289.9,78.1 290.1,77.4 C290.3,76.7 290.9,76.3 291.7,76.6 C293,77 294.4,77.4 295.6,77.9 C297.8,78.8 299.6,80.4 301.1,82.3 Z" id="Stroke-332" stroke="#FAEE00" stroke-width="1.295"></path>
                        <path d="M327.6,86.5 C328.8,85.6 329.1,84 328.2,82.9 C327.4,81.8 325.7,81.5 324.6,82.4 C323.5,83.2 323.2,84.8 324,86 C324.9,87 326.4,87.3 327.6,86.5 M329.1,88.4 C326.9,90 323.8,89.6 322.2,87.3 C320.6,85.1 321,81.9 323.3,80.3 C325.5,78.7 328.7,79.2 330.3,81.4 C331.8,83.6 331.3,86.8 329.1,88.4" id="Fill-333" fill="#FFFFFF"></path>
                        <path d="M327.6,86.5 C328.8,85.6 329.1,84 328.2,82.9 C327.4,81.8 325.7,81.5 324.6,82.4 C323.5,83.2 323.2,84.8 324,86 C324.9,87 326.4,87.3 327.6,86.5 Z M329.1,88.4 C326.9,90 323.8,89.6 322.2,87.3 C320.6,85.1 321,81.9 323.3,80.3 C325.5,78.7 328.7,79.2 330.3,81.4 C331.8,83.6 331.3,86.8 329.1,88.4 Z" id="Stroke-334" stroke="#FAEE00" stroke-width="1.295"></path>
                        <path d="M3.2,268.3 C3.2,268.3 -1.5,234.2 4,229.7 C9.5,225.1 11.8,223.3 11.8,223.3 C11.8,223.3 20.4,228.5 22.1,232.4 C23.8,236.3 25.4,241.9 26,243.8 C26.9,246.9 27.4,251.6 26.9,253.5 C26.4,255.4 25.9,258.2 24.3,262.6 C22.7,267 23,270.2 22.6,271.8 C22.1,273.4 22.4,289.8 22.4,289.8 L5.4,290.2 L3.2,268.3 Z" id="Fill-335" fill="#FDDEA5"></path>
                        <path d="M3.2,268.3 C3.2,268.3 -1.5,234.2 4,229.7 C9.5,225.1 11.8,223.3 11.8,223.3 C11.8,223.3 20.4,228.5 22.1,232.4 C23.8,236.3 25.4,241.9 26,243.8 C26.9,246.9 27.4,251.6 26.9,253.5 C26.4,255.4 25.9,258.2 24.3,262.6 C22.7,267 23,270.2 22.6,271.8 C22.1,273.4 22.4,289.8 22.4,289.8 L5.4,290.2 L3.2,268.3 Z" id="Stroke-336" stroke="#93AD65" stroke-width="1.302"></path>
                        <g id="Group" transform="translate(11.000000, 212.000000)">
                            <path d="M0.8,31.1 C0.8,31.1 2.6,22.3 2.3,20.2 C2.1,18.1 -2.2,1.7 2.7,0.5 C7.6,-0.7 11,10.5 11.3,14.6 C11.7,20.4 12.6,24.4 13.1,26" id="Fill-337" fill="#FDDEA5"></path>
                            <path d="M0.8,31.1 C0.8,31.1 2.6,22.3 2.3,20.2 C2.1,18.1 -2.2,1.7 2.7,0.5 C7.6,-0.7 11,10.5 11.3,14.6 C11.7,20.4 12.6,24.4 13.1,26" id="Stroke-338" stroke="#93AD65" stroke-width="1.302"></path>
                        </g>
                        <polygon id="Fill-340" fill="#93AD65" points="0.3 283.7 25.3 281.9 26.7 296.5 0.9 296.3"></polygon>
                        <polygon id="Stroke-341" stroke="#FAEE00" stroke-width="1.302" points="0.3 283.7 25.3 281.9 26.7 296.5 0.9 296.3"></polygon>
                    </g>
                </g>
            </g>
            <g id="Group" transform="translate(215.000000, 28.000000)" stroke="#FFFFFF" stroke-linecap="round" stroke-linejoin="round" stroke-width="0.75">
                <path d="M12.6,13.8 C16.2,13.8 19.1,10.9 19.1,7.3 C19.1,3.7 16.2,0.8 12.6,0.8 L12.6,26.9 C16.2,26.9 19.1,24 19.1,20.4 C19.1,16.8 16.2,13.8 12.6,13.8" id="Path"></path>
                <line x1="22.4" y1="0.7" x2="12.6" y2="13.8" id="Path"></line>
                <polyline id="Path" points="22.4 26.8 2.8 26.8 2.8 0.7 22.4 26.8"></polyline>
                <line x1="12.6" y1="13.8" x2="2.8" y2="13.8" id="Path"></line>
                <g id="Path">
                    <path d="M22.4,23 C17.3,28.1 9,28.1 3.9,23 C-1.2,17.9 -1.2,9.6 3.9,4.5"></path>
                    <path d="M3.9,4.5 C9,-0.6 17.3,-0.6 22.4,4.5"></path>
                </g>
            </g>
        </g>
    </g>
</svg>